<?xml version="1.0" encoding="utf-8"?>
<svg xmlns="http://www.w3.org/2000/svg" viewBox="0 0 200 200" width="200" height="200">
  <g fill="None" fill-opacity="0.0" stroke="#FEFEFE" stroke-opacity="1.00" stroke-width="0.3"/>
  <g fill="None" fill-opacity="0.0" stroke="#F2A897" stroke-opacity="1.00" stroke-width="0.3">
    <path d="M 107 173 C 117.36 170.69 128.77 168.35 138 162 C 182.27 139.47 183.46 69.77 144.23 41.77 C 106.61 10.93 41.74 30.62 29.32 78.32 C 12.417 125.18 58.978 178.187 107 173 M 94 89 C 91.94 92.98 86.79 91.85 83 92 C 81.67 92 80.33 92 79 92 C 78.08 94.77 81.19 95.9 82 98 C 87.92 108.74 73.99 119.96 65 112 C 60.3 112.58 59.9 104.37 60 101 C 53.52 102.92 50.07 104.17 45 101 C 41.68 76.25 57.63 48.01 83.07 41.07 C 91.4 40.55 105.99 34.74 110 43 C 113.57 39.74 113.54 41.29 117 44 C 114.81 44.18 109.76 46.16 115 46 C 111.19 49.81 117.88 57.39 110.92 59.92 C 107.25 63.36 104.68 70.38 104 76 C 101.65 84.3 95.53 79.66 90 81 C 89.92 83.8 97.59 85.74 94 89 M 157 110 C 150.59 150.79 96.98 176.44 64 148 C 57.51 144.17 50.84 137.55 50 130 C 59.13 132.55 62 120.18 72 122 C 72.59 124.73 72.77 125.62 75 123 C 75.51 125.18 78.6 127.55 81 128 C 80.22 129.05 79.17 131.41 81 132 C 85.56 123.74 94.23 117.09 104 118 C 107.75 116.19 110.66 107.97 117 106 C 117.95 106.87 117.54 108.68 119 109 C 116.22 103.63 119.17 96.74 125 95 C 130.77 91.41 132.16 84.63 137 80 C 134.96 80.81 134.03 83.27 132 84 C 127.19 89.67 112.02 94.76 110.01 84.99 C 116.92 83.6 125.87 82.19 132 76 C 133.31 73.5 135.53 76.37 137 77 C 137.37 74.53 134.62 73.9 133 73 C 134.79 68.98 132.55 65.98 132 62 C 136.96 58.19 143.52 50.58 148.3 60.7 C 154.35 66.57 158.67 74.62 156 83 C 156.91 91.69 161.9 101.8 157 110 M 161 110 C 164.99 132.45 155.17 154.55 133.31 163.31 C 112.79 170.82 83.31 172.33 69 153 C 86.62 163.5 110.49 164.05 128.08 153.08 C 145.09 143.78 152.85 125.31 161 110 Z"/>
  </g>
  <g fill="None" fill-opacity="0.0" stroke="#F29677" stroke-opacity="1.00" stroke-width="0.3">
    <path d=" M 65.00 112.00 C 52.41 102.77 73.55 87.55 82.00 98.00 C 81.19 95.90 78.08 94.77 79.00 92.00 C 80.33 92.00 81.67 92.00 83.00 92.00 C 82.97 92.00 83.00 91.00 83.00 91.00 C 75.60 89.00 65.04 84.94 64.01 75.99 C 70.56 68.37 75.82 86.13 85.00 84.00 C 88.69 83.53 94.78 83.73 94.00 89.00 C 97.59 85.74 89.92 83.80 90.00 81.00 C 95.53 79.66 101.65 84.30 104.00 76.00 C 104.68 70.38 107.25 63.36 110.92 59.92 C 117.88 57.39 111.19 49.81 115.00 46.00 C 109.76 46.16 114.81 44.18 117.00 44.00 C 113.54 41.29 113.57 39.74 110.00 43.00 C 105.99 34.74 91.40 40.55 83.07 41.07 C 57.63 48.01 41.68 76.25 45.00 101.00 C 50.07 104.17 53.52 102.92 60.00 101.00 C 59.90 104.37 60.30 112.58 65.00 112.00 M 76.00 49.00 C 81.11 55.88 68.16 65.30 62.33 65.67 C 55.33 58.41 68.56 48.22 76.00 49.00 M 59.00 70.00 C 66.25 81.72 45.51 72.94 59.00 70.00 Z"/>
  </g>
  <g fill="None" fill-opacity="0.0" stroke="#EFD2D0" stroke-opacity="1.00" stroke-width="0.3">
    <path d=" M 76.00 49.00 C 68.56 48.22 55.33 58.41 62.33 65.67 C 68.16 65.30 81.11 55.88 76.00 49.00 Z"/>
  </g>
  <g fill="None" fill-opacity="0.0" stroke="#ECBAAF" stroke-opacity="1.00" stroke-width="0.3">
    <path d=" M 137.00 77.00 C 137.00 78.00 137.00 79.00 137.00 80.00 C 132.16 84.63 130.77 91.41 125.00 95.00 C 135.59 91.45 143.73 105.11 135.00 112.00 C 141.26 111.30 139.08 100.30 141.32 95.32 C 147.01 92.38 146.83 82.95 153.00 81.00 C 154.46 90.69 160.65 99.68 157.00 110.00 C 161.90 101.80 156.91 91.69 156.00 83.00 C 158.67 74.62 154.35 66.57 148.30 60.70 C 143.52 50.58 136.96 58.19 132.00 62.00 C 132.55 65.98 134.79 68.98 133.00 73.00 C 134.62 73.90 137.37 74.53 137.00 77.00 Z"/>
  </g>
  <g fill="None" fill-opacity="0.0" stroke="#EFD3D2" stroke-opacity="1.00" stroke-width="0.3">
    <path d=" M 59.00 70.00 C 45.51 72.94 66.25 81.72 59.00 70.00 Z"/>
  </g>
  <g fill="None" fill-opacity="0.0" stroke="#832721" stroke-opacity="1.00" stroke-width="0.3">
    <path d=" M 83.00 91.00 C 93.29 93.94 95.69 83.19 85.00 84.00 C 75.82 86.13 70.56 68.37 64.01 75.99 C 65.04 84.94 75.60 89.00 83.00 91.00 Z"/>
  </g>
  <g fill="None" fill-opacity="0.0" stroke="#A55750" stroke-opacity="1.00" stroke-width="0.3">
    <path d=" M 132.00 76.00 C 138.66 75.49 134.67 81.77 132.00 84.00 C 134.03 83.27 134.96 80.81 137.00 80.00 C 137.00 79.00 137.00 78.00 137.00 77.00 C 135.53 76.37 133.31 73.50 132.00 76.00 Z"/>
  </g>
  <g fill="None" fill-opacity="0.0" stroke="#802622" stroke-opacity="1.00" stroke-width="0.3">
    <path d=" M 132.00 84.00 C 134.67 81.77 138.66 75.49 132.00 76.00 C 125.87 82.19 116.92 83.60 110.01 84.99 C 112.02 94.76 127.19 89.67 132.00 84.00 Z"/>
  </g>
  <g fill="None" fill-opacity="0.0" stroke="#EDD2D1" stroke-opacity="1.00" stroke-width="0.3">
    <path d=" M 135.00 112.00 C 133.06 112.91 131.32 114.33 129.00 114.00 C 127.95 115.43 125.90 116.23 124.00 116.00 C 126.73 117.42 120.28 123.35 119.00 125.00 C 118.55 127.46 122.70 130.31 121.00 132.00 C 127.11 139.18 117.08 144.17 114.00 136.00 C 106.35 133.37 98.08 147.00 88.32 140.68 C 78.17 136.75 69.19 140.36 60.00 142.00 C 59.73 144.75 63.29 145.68 64.00 148.00 C 96.98 176.44 150.59 150.79 157.00 110.00 C 160.65 99.68 154.46 90.69 153.00 81.00 C 146.83 82.95 147.01 92.38 141.32 95.32 C 139.08 100.30 141.26 111.30 135.00 112.00 Z"/>
  </g>
  <g fill="None" fill-opacity="0.0" stroke="#B65F53" stroke-opacity="1.00" stroke-width="0.3">
    <path d=" M 83.00 91.00 C 83.00 91.00 82.97 92.00 83.00 92.00 C 86.79 91.85 91.94 92.98 94.00 89.00 C 94.78 83.73 88.69 83.53 85.00 84.00 C 95.69 83.19 93.29 93.94 83.00 91.00 Z"/>
  </g>
  <g fill="None" fill-opacity="0.0" stroke="#7E221F" stroke-opacity="1.00" stroke-width="0.3">
    <path d=" M 65.00 112.00 C 73.99 119.96 87.92 108.74 82.00 98.00 C 73.55 87.55 52.41 102.77 65.00 112.00 Z"/>
  </g>
  <g fill="None" fill-opacity="0.0" stroke="#7C2220" stroke-opacity="1.00" stroke-width="0.3">
    <path d=" M 119.00 109.00 C 121.03 112.75 124.66 114.99 129.00 114.00 C 131.32 114.33 133.06 112.91 135.00 112.00 C 143.73 105.11 135.59 91.45 125.00 95.00 C 119.17 96.74 116.22 103.63 119.00 109.00 Z"/>
  </g>
  <g fill="None" fill-opacity="0.0" stroke="#E6B4AA" stroke-opacity="1.00" stroke-width="0.3">
    <path d=" M 104.00 118.00 C 110.72 120.54 117.28 125.32 121.00 132.00 C 122.70 130.31 118.55 127.46 119.00 125.00 C 120.28 123.35 126.73 117.42 124.00 116.00 C 125.90 116.23 127.95 115.43 129.00 114.00 C 124.66 114.99 121.03 112.75 119.00 109.00 C 117.54 108.68 117.95 106.87 117.00 106.00 C 110.66 107.97 107.75 116.19 104.00 118.00 Z"/>
  </g>
  <g fill="None" fill-opacity="0.0" stroke="#F39677" stroke-opacity="1.00" stroke-width="0.3">
    <path d=" M 161.00 110.00 C 152.85 125.31 145.09 143.78 128.08 153.08 C 110.49 164.05 86.62 163.50 69.00 153.00 C 83.31 172.33 112.79 170.82 133.31 163.31 C 155.17 154.55 164.99 132.45 161.00 110.00 Z"/>
  </g>
  <g fill="None" fill-opacity="0.0" stroke="#812925" stroke-opacity="1.00" stroke-width="0.3">
    <path d=" M 81.00 132.00 C 77.76 145.52 90.23 134.01 93.75 128.75 C 100.57 121.92 111.25 128.44 114.00 136.00 C 117.08 144.17 127.11 139.18 121.00 132.00 C 117.28 125.32 110.72 120.54 104.00 118.00 C 94.23 117.09 85.56 123.74 81.00 132.00 Z"/>
  </g>
  <g fill="None" fill-opacity="0.0" stroke="#EBB8AD" stroke-opacity="1.00" stroke-width="0.3">
    <path d=" M 64.00 148.00 C 63.29 145.68 59.73 144.75 60.00 142.00 C 69.19 140.36 78.17 136.75 88.32 140.68 C 98.08 147.00 106.35 133.37 114.00 136.00 C 111.25 128.44 100.57 121.92 93.75 128.75 C 90.23 134.01 77.76 145.52 81.00 132.00 C 79.17 131.41 80.22 129.05 81.00 128.00 C 78.60 127.55 75.51 125.18 75.00 123.00 C 72.77 125.62 72.59 124.73 72.00 122.00 C 62.00 120.18 59.13 132.55 50.00 130.00 C 50.84 137.55 57.51 144.17 64.00 148.00 Z"/>
  </g>
  <g fill="None" fill-opacity="0.0" stroke="#F9CFC5" stroke-opacity="1.00" stroke-width="0.3"/>
  <g fill="#FEFEFE" fill-opacity="1.00" stroke="None"/>
  <g fill="#F2A897" fill-opacity="1.00" stroke="None">
    <path d="M 107 173 C 117.36 170.69 128.77 168.35 138 162 C 182.27 139.47 183.46 69.77 144.23 41.77 C 106.61 10.93 41.74 30.62 29.32 78.32 C 12.304 125.459 57.602 179.442 107 173 M 94 89 C 91.94 92.98 86.79 91.85 83 92 C 81.67 92 80.33 92 79 92 C 78.08 94.77 81.19 95.9 82 98 C 87.92 108.74 73.99 119.96 65 112 C 60.3 112.58 59.9 104.37 60 101 C 53.52 102.92 50.07 104.17 45 101 C 41.68 76.25 57.63 48.01 83.07 41.07 C 91.4 40.55 105.99 34.74 110 43 C 113.57 39.74 113.54 41.29 117 44 C 114.81 44.18 109.76 46.16 115 46 C 111.19 49.81 117.88 57.39 110.92 59.92 C 107.25 63.36 104.68 70.38 104 76 C 101.65 84.3 95.53 79.66 90 81 C 89.92 83.8 97.59 85.74 94 89 M 157 110 C 150.59 150.79 96.98 176.44 64 148 C 57.51 144.17 50.84 137.55 50 130 C 59.13 132.55 62 120.18 72 122 C 72.59 124.73 72.77 125.62 75 123 C 75.51 125.18 78.6 127.55 81 128 C 80.22 129.05 79.17 131.41 81 132 C 85.56 123.74 94.23 117.09 104 118 C 107.75 116.19 110.66 107.97 117 106 C 117.95 106.87 117.54 108.68 119 109 C 116.22 103.63 119.17 96.74 125 95 C 130.77 91.41 132.16 84.63 137 80 C 134.96 80.81 134.03 83.27 132 84 C 127.19 89.67 112.02 94.76 110.01 84.99 C 116.92 83.6 125.87 82.19 132 76 C 133.31 73.5 135.53 76.37 137 77 C 137.37 74.53 134.62 73.9 133 73 C 134.79 68.98 132.55 65.98 132 62 C 136.96 58.19 143.52 50.58 148.3 60.7 C 154.35 66.57 158.67 74.62 156 83 C 156.91 91.69 161.9 101.8 157 110 M 161 110 C 164.99 132.45 155.17 154.55 133.31 163.31 C 112.79 170.82 83.31 172.33 69 153 C 86.62 163.5 110.49 164.05 128.08 153.08 C 145.09 143.78 152.85 125.31 161 110 Z"/>
  </g>
  <g fill="#F29677" fill-opacity="1.00" stroke="None">
    <path d=" M 65.00 112.00 C 52.41 102.77 73.55 87.55 82.00 98.00 C 81.19 95.90 78.08 94.77 79.00 92.00 C 80.33 92.00 81.67 92.00 83.00 92.00 C 82.97 92.00 83.00 91.00 83.00 91.00 C 75.60 89.00 65.04 84.94 64.01 75.99 C 70.56 68.37 75.82 86.13 85.00 84.00 C 88.69 83.53 94.78 83.73 94.00 89.00 C 97.59 85.74 89.92 83.80 90.00 81.00 C 95.53 79.66 101.65 84.30 104.00 76.00 C 104.68 70.38 107.25 63.36 110.92 59.92 C 117.88 57.39 111.19 49.81 115.00 46.00 C 109.76 46.16 114.81 44.18 117.00 44.00 C 113.54 41.29 113.57 39.74 110.00 43.00 C 105.99 34.74 91.40 40.55 83.07 41.07 C 57.63 48.01 41.68 76.25 45.00 101.00 C 50.07 104.17 53.52 102.92 60.00 101.00 C 59.90 104.37 60.30 112.58 65.00 112.00 M 76.00 49.00 C 81.11 55.88 68.16 65.30 62.33 65.67 C 55.33 58.41 68.56 48.22 76.00 49.00 M 59.00 70.00 C 66.25 81.72 45.51 72.94 59.00 70.00 Z"/>
  </g>
  <g fill="#EFD2D0" fill-opacity="1.00" stroke="None">
    <path d=" M 76.00 49.00 C 68.56 48.22 55.33 58.41 62.33 65.67 C 68.16 65.30 81.11 55.88 76.00 49.00 Z"/>
  </g>
  <g fill="#ECBAAF" fill-opacity="1.00" stroke="None">
    <path d=" M 137.00 77.00 C 137.00 78.00 137.00 79.00 137.00 80.00 C 132.16 84.63 130.77 91.41 125.00 95.00 C 135.59 91.45 143.73 105.11 135.00 112.00 C 141.26 111.30 139.08 100.30 141.32 95.32 C 147.01 92.38 146.83 82.95 153.00 81.00 C 154.46 90.69 160.65 99.68 157.00 110.00 C 161.90 101.80 156.91 91.69 156.00 83.00 C 158.67 74.62 154.35 66.57 148.30 60.70 C 143.52 50.58 136.96 58.19 132.00 62.00 C 132.55 65.98 134.79 68.98 133.00 73.00 C 134.62 73.90 137.37 74.53 137.00 77.00 Z"/>
  </g>
  <g fill="#EFD3D2" fill-opacity="1.00" stroke="None">
    <path d=" M 59.00 70.00 C 45.51 72.94 66.25 81.72 59.00 70.00 Z"/>
  </g>
  <g fill="#832721" fill-opacity="1.00" stroke="None">
    <path d=" M 83.00 91.00 C 93.29 93.94 95.69 83.19 85.00 84.00 C 75.82 86.13 70.56 68.37 64.01 75.99 C 65.04 84.94 75.60 89.00 83.00 91.00 Z"/>
  </g>
  <g fill="#A55750" fill-opacity="1.00" stroke="None">
    <path d=" M 132.00 76.00 C 138.66 75.49 134.67 81.77 132.00 84.00 C 134.03 83.27 134.96 80.81 137.00 80.00 C 137.00 79.00 137.00 78.00 137.00 77.00 C 135.53 76.37 133.31 73.50 132.00 76.00 Z"/>
  </g>
  <g fill="#802622" fill-opacity="1.00" stroke="None">
    <path d=" M 132.00 84.00 C 134.67 81.77 138.66 75.49 132.00 76.00 C 125.87 82.19 116.92 83.60 110.01 84.99 C 112.02 94.76 127.19 89.67 132.00 84.00 Z"/>
  </g>
  <g fill="#EDD2D1" fill-opacity="1.00" stroke="None">
    <path d=" M 135.00 112.00 C 133.06 112.91 131.32 114.33 129.00 114.00 C 127.95 115.43 125.90 116.23 124.00 116.00 C 126.73 117.42 120.28 123.35 119.00 125.00 C 118.55 127.46 122.70 130.31 121.00 132.00 C 127.11 139.18 117.08 144.17 114.00 136.00 C 106.35 133.37 98.08 147.00 88.32 140.68 C 78.17 136.75 69.19 140.36 60.00 142.00 C 59.73 144.75 63.29 145.68 64.00 148.00 C 96.98 176.44 150.59 150.79 157.00 110.00 C 160.65 99.68 154.46 90.69 153.00 81.00 C 146.83 82.95 147.01 92.38 141.32 95.32 C 139.08 100.30 141.26 111.30 135.00 112.00 Z"/>
  </g>
  <g fill="#B65F53" fill-opacity="1.00" stroke="None">
    <path d=" M 83.00 91.00 C 83.00 91.00 82.97 92.00 83.00 92.00 C 86.79 91.85 91.94 92.98 94.00 89.00 C 94.78 83.73 88.69 83.53 85.00 84.00 C 95.69 83.19 93.29 93.94 83.00 91.00 Z"/>
  </g>
  <g fill="#7E221F" fill-opacity="1.00" stroke="None">
    <path d=" M 65.00 112.00 C 73.99 119.96 87.92 108.74 82.00 98.00 C 73.55 87.55 52.41 102.77 65.00 112.00 Z"/>
  </g>
  <g fill="#7C2220" fill-opacity="1.00" stroke="None">
    <path d=" M 119.00 109.00 C 121.03 112.75 124.66 114.99 129.00 114.00 C 131.32 114.33 133.06 112.91 135.00 112.00 C 143.73 105.11 135.59 91.45 125.00 95.00 C 119.17 96.74 116.22 103.63 119.00 109.00 Z"/>
  </g>
  <g fill="#E6B4AA" fill-opacity="1.00" stroke="None">
    <path d=" M 104.00 118.00 C 110.72 120.54 117.28 125.32 121.00 132.00 C 122.70 130.31 118.55 127.46 119.00 125.00 C 120.28 123.35 126.73 117.42 124.00 116.00 C 125.90 116.23 127.95 115.43 129.00 114.00 C 124.66 114.99 121.03 112.75 119.00 109.00 C 117.54 108.68 117.95 106.87 117.00 106.00 C 110.66 107.97 107.75 116.19 104.00 118.00 Z"/>
  </g>
  <g fill="#F39677" fill-opacity="1.00" stroke="None">
    <path d=" M 161.00 110.00 C 152.85 125.31 145.09 143.78 128.08 153.08 C 110.49 164.05 86.62 163.50 69.00 153.00 C 83.31 172.33 112.79 170.82 133.31 163.31 C 155.17 154.55 164.99 132.45 161.00 110.00 Z"/>
  </g>
  <g fill="#812925" fill-opacity="1.00" stroke="None">
    <path d=" M 81.00 132.00 C 77.76 145.52 90.23 134.01 93.75 128.75 C 100.57 121.92 111.25 128.44 114.00 136.00 C 117.08 144.17 127.11 139.18 121.00 132.00 C 117.28 125.32 110.72 120.54 104.00 118.00 C 94.23 117.09 85.56 123.74 81.00 132.00 Z"/>
  </g>
  <g fill="#EBB8AD" fill-opacity="1.00" stroke="None">
    <path d=" M 64.00 148.00 C 63.29 145.68 59.73 144.75 60.00 142.00 C 69.19 140.36 78.17 136.75 88.32 140.68 C 98.08 147.00 106.35 133.37 114.00 136.00 C 111.25 128.44 100.57 121.92 93.75 128.75 C 90.23 134.01 77.76 145.52 81.00 132.00 C 79.17 131.41 80.22 129.05 81.00 128.00 C 78.60 127.55 75.51 125.18 75.00 123.00 C 72.77 125.62 72.59 124.73 72.00 122.00 C 62.00 120.18 59.13 132.55 50.00 130.00 C 50.84 137.55 57.51 144.17 64.00 148.00 Z"/>
  </g>
  <g fill="#F9CFC5" fill-opacity="1.00" stroke="None"/>
</svg>