<svg xmlns="http://www.w3.org/2000/svg" xmlns:v="https://svgstorm.com"
viewBox = "0 0 1960 1306"
width="1960"
height="1306">
<g fill="None" fill-opacity="0.0" stroke="#C6DBEA" stroke-opacity="1.00" stroke-width="0.3"><path d="
M 0.00 344.00 
C 8.40 336.73 19.35 328.50 26.00 319.00
C 18.84 327.71 8.53 334.68 1.00 343.00
C 1.00 229.00 1.00 115.00 1.00 1.00
C 8.78 1.00 16.19 1.00 24.00 1.00 C 31.81 1.00 40.17 1.00 48.00 1.00 C 55.83 1.00 63.17 1.00 71.00 1.00 C 78.83 1.00 87.17 0.99 95.00 1.00 C 102.83 1.01 110.19 0.98 118.00 1.00 C 125.81 1.02 134.23 0.95 142.00 1.00 C 149.77 1.05 157.34 0.89 165.00 1.00 C 172.66 1.11 181.54 0.77 189.00 1.00 C 196.46 1.23 205.04 0.47 212.00 1.00 C 218.96 1.53 229.67 -1.03 232.00 3.00
C 232.65 2.09 234.73 1.79 234.00 0.00
L 0.00 0.00
L 0.00 344.00 Z"/>
</g>
<g fill="None" fill-opacity="0.0" stroke="#FBFDFD" stroke-opacity="1.00" stroke-width="0.3"><path d="
M 232.00 3.00 
C 213.02 29.38 186.68 43.10 160.77 61.77 C 134.86 80.44 108.30 90.94 86.23 118.23 C 64.16 145.52 66.88 192.69 66.00 228.00 C 65.12 263.31 45.36 291.34 26.00 319.00
C 19.35 328.50 8.40 336.73 0.00 344.00
L 0.00 355.00
C 0.50 355.00 1.57 355.17 2.00 355.00
C 22.78 346.62 32.07 326.83 48.30 311.30 C 64.54 295.78 71.36 272.22 77.33 250.33 C 83.30 228.43 81.92 190.98 87.00 169.00 C 92.08 147.02 105.93 129.22 123.25 115.25 C 140.56 101.28 158.52 90.58 177.23 79.23 C 195.94 67.88 212.48 54.16 230.00 41.00
C 241.40 28.76 258.13 15.80 267.00 0.00
L 234.00 0.00
C 234.73 1.79 232.65 2.09 232.00 3.00 Z"/>
</g>
<g fill="None" fill-opacity="0.0" stroke="#D1E1EF" stroke-opacity="1.00" stroke-width="0.3"><path d="
M 230.00 41.00 
C 239.57 33.81 245.38 28.40 253.75 18.75 C 262.12 9.11 267.58 -1.61 283.00 1.00 C 298.42 3.61 314.52 -0.20 330.00 1.00 C 345.48 2.20 360.48 0.47 376.00 1.00 C 391.52 1.53 407.44 0.76 423.00 1.00 C 438.56 1.24 454.46 0.90 470.00 1.00 C 485.54 1.10 500.45 0.98 516.00 1.00 C 531.55 1.02 547.42 1.04 563.00 1.00 C 578.58 0.96 594.45 1.12 610.00 1.00 C 625.55 0.88 640.46 1.29 656.00 1.00 C 671.54 0.71 687.44 1.63 703.00 1.00 C 718.56 0.37 734.50 2.40 750.00 1.00
C 750.11 0.53 750.00 0.00 750.00 0.00
L 267.00 0.00
C 258.13 15.80 241.40 28.76 230.00 41.00 Z"/>
</g>
<g fill="None" fill-opacity="0.0" stroke="#FBECD8" stroke-opacity="1.00" stroke-width="0.3"><path d="
M 750.00 1.00 
C 744.08 26.25 725.24 48.66 709.25 69.25 C 693.25 89.83 673.44 105.39 652.25 121.25 C 631.06 137.11 606.81 149.35 581.78 159.78 C 556.75 170.21 528.20 180.33 500.31 187.31 C 472.41 194.29 441.16 202.85 411.93 207.93 C 382.69 213.00 351.99 221.51 324.00 230.00
C 327.81 231.26 332.85 238.22 337.75 240.25 C 342.64 242.29 347.12 247.12 351.25 250.75 C 355.38 254.39 359.70 258.24 363.75 262.25 C 367.79 266.27 370.82 271.52 373.92 276.08 C 377.02 280.63 382.01 285.44 383.26 290.74 C 384.50 296.05 390.54 302.47 389.99 308.01 C 389.45 313.55 395.94 324.26 393.00 329.00
C 413.50 324.83 439.52 327.42 459.67 329.33 C 479.82 331.24 499.13 336.17 516.75 344.25 C 534.36 352.34 545.78 359.11 560.75 372.25 C 575.72 385.38 578.35 402.86 583.78 421.22 C 589.20 439.59 594.09 457.68 598.93 477.07 C 603.76 496.47 602.34 523.43 599.22 543.22 C 596.10 563.01 585.33 574.64 572.77 588.77 C 560.21 602.90 543.85 608.03 530.00 616.00
C 538.54 613.19 547.32 609.59 555.08 605.08 C 562.84 600.58 569.33 595.41 575.75 588.75 C 582.17 582.10 587.00 576.75 591.77 568.77 C 596.54 560.79 598.70 550.49 601.00 541.00 C 603.30 531.51 612.43 544.31 619.25 548.75 C 626.07 553.19 629.99 562.46 636.75 568.25 C 643.51 574.03 645.45 582.58 649.92 591.08 C 654.40 599.57 657.43 608.73 659.33 618.67 C 661.23 628.61 664.46 640.08 664.00 651.00 C 663.54 661.93 663.93 674.85 662.00 685.00 C 660.07 695.16 658.26 705.95 655.00 715.00 C 651.74 724.05 647.86 730.66 642.75 738.75 C 637.63 746.83 632.94 752.80 627.75 760.75 C 622.56 768.70 615.35 771.38 608.75 777.75 C 602.16 784.12 594.08 788.28 585.33 791.33 C 576.57 794.38 567.31 799.39 557.00 799.00 C 546.69 798.61 533.38 798.01 523.99 795.01 C 514.61 792.01 506.00 788.67 497.77 784.23 C 489.54 779.79 483.03 775.75 476.30 769.70 C 469.57 763.65 463.40 758.29 457.25 751.75 C 451.09 745.21 447.14 738.47 441.23 731.77 C 435.32 725.07 429.98 717.90 426.08 709.92 C 422.19 701.94 416.29 693.86 414.22 685.78 C 412.15 677.70 406.01 665.42 405.22 657.78 C 404.43 650.14 395.58 631.09 405.00 629.00
C 376.46 628.18 347.70 616.19 324.92 597.08 C 302.14 577.98 294.75 546.63 287.00 520.00
C 288.59 529.02 283.13 532.66 276.25 537.25 C 269.37 541.83 265.62 545.79 258.77 549.77 C 251.92 553.75 246.41 556.76 239.30 560.31 C 232.20 563.85 225.52 566.12 217.99 568.99 C 210.46 571.86 202.45 574.01 194.00 575.00 C 185.55 575.99 174.96 577.46 166.00 577.00 C 157.04 576.54 147.02 575.69 138.78 574.22 C 130.54 572.76 122.89 569.26 115.32 567.68 C 107.75 566.09 101.79 558.63 95.00 558.00
C 93.20 558.61 91.92 558.66 90.00 559.00
C 60.23 564.21 31.19 574.81 0.00 575.00
L 0.00 1306.00
L 586.00 1306.00
C 600.28 1286.76 618.35 1270.89 628.31 1249.31 C 638.26 1227.72 660.01 1215.71 676.25 1198.25 C 692.48 1180.79 706.76 1161.70 720.30 1142.30 C 733.85 1122.91 752.71 1109.10 770.75 1093.75 C 788.80 1078.40 811.51 1067.48 832.68 1056.68 C 853.85 1045.88 876.64 1032.90 898.23 1022.23 C 919.82 1011.55 941.36 999.14 962.23 987.23 C 983.10 975.33 1002.99 962.91 1022.08 948.08 C 1041.17 933.25 1060.44 919.87 1080.00 906.00
C 1074.53 928.83 1056.61 947.32 1038.75 962.75 C 1020.90 978.19 1005.90 995.02 990.75 1012.75 C 975.60 1030.47 960.60 1047.59 945.70 1065.70 C 930.80 1083.81 914.94 1098.68 898.25 1116.25 C 881.55 1133.82 864.46 1146.86 845.75 1162.75 C 827.05 1178.65 800.04 1187.14 775.78 1190.78 C 751.52 1194.42 734.23 1214.91 713.25 1226.25 C 692.28 1237.60 674.42 1255.23 650.77 1261.77 C 627.13 1268.32 610.39 1285.66 596.00 1306.00
L 813.00 1306.00
C 824.35 1256.43 873.30 1223.88 922.00 1220.00
C 922.79 1231.27 918.94 1243.39 922.00 1254.00
C 922.00 1207.57 935.37 1167.13 973.25 1138.25 C 1011.12 1109.37 1053.12 1097.40 1101.00 1098.00 C 1148.88 1098.60 1193.26 1109.27 1231.25 1135.75 C 1269.23 1162.23 1289.99 1204.64 1282.00 1251.00
C 1285.42 1243.25 1299.92 1243.73 1306.00 1239.00 C 1312.09 1234.27 1322.01 1230.87 1327.75 1224.75 C 1333.50 1218.63 1341.94 1214.63 1348.23 1208.23 C 1354.52 1201.83 1359.06 1195.64 1364.92 1188.92 C 1370.77 1182.19 1372.60 1174.25 1377.25 1167.25 C 1381.90 1160.24 1387.49 1151.58 1389.77 1142.77 C 1392.05 1133.96 1393.23 1122.70 1397.32 1114.32 C 1401.42 1105.94 1402.39 1094.61 1407.00 1087.00
C 1410.10 1078.81 1405.90 1068.69 1404.22 1060.78 C 1402.55 1052.87 1399.61 1044.09 1396.07 1036.93 C 1392.54 1029.76 1388.20 1023.55 1384.23 1016.77 C 1380.26 1010.00 1375.54 1004.35 1371.23 997.77 C 1366.92 991.19 1362.49 985.49 1358.23 978.77 C 1353.97 972.05 1349.59 966.10 1346.03 958.97 C 1342.47 951.84 1338.75 944.70 1336.22 936.78 C 1333.69 928.86 1331.16 918.71 1331.00 910.00 C 1330.85 901.29 1332.49 890.87 1334.93 882.93 C 1337.37 874.99 1339.59 866.50 1343.32 859.32 C 1347.06 852.15 1350.38 845.35 1354.92 838.92 C 1359.46 832.49 1363.44 826.75 1369.25 821.25 C 1375.05 815.74 1380.15 811.39 1386.70 806.70 C 1393.25 802.01 1400.29 799.06 1408.03 796.03 C 1415.76 792.99 1424.35 790.30 1433.00 789.00 C 1441.66 787.71 1452.82 785.43 1462.00 786.00 C 1471.19 786.57 1482.46 786.83 1491.01 788.99 C 1499.56 791.16 1507.64 792.85 1515.68 795.32 C 1523.71 797.80 1530.73 801.68 1538.07 804.93 C 1545.42 808.17 1551.36 813.00 1558.23 816.77 C 1565.10 820.54 1570.53 825.62 1576.75 830.25 C 1582.97 834.88 1587.48 840.39 1593.25 845.75 C 1599.02 851.12 1603.08 857.30 1607.75 863.25 C 1612.42 869.19 1617.34 875.84 1620.32 882.68 C 1623.31 889.52 1629.44 897.48 1629.93 905.07 C 1630.41 912.67 1637.68 924.52 1635.00 932.00
C 1648.21 925.89 1663.59 919.60 1673.77 908.77 C 1683.95 897.94 1695.48 889.22 1705.10 878.10 C 1714.72 866.98 1722.37 853.55 1731.30 841.30 C 1740.24 829.05 1748.26 816.62 1753.97 801.97 C 1759.68 787.32 1765.07 771.46 1770.33 756.33 C 1775.59 741.20 1782.73 725.85 1786.78 709.78 C 1790.82 693.71 1798.62 676.40 1798.00 659.00 C 1797.38 641.60 1809.72 624.55 1810.00 608.00
C 1797.52 585.12 1792.99 558.60 1775.23 537.77 C 1757.47 516.94 1743.17 501.99 1717.77 490.23 C 1692.37 478.46 1666.56 469.16 1636.33 466.67 C 1606.10 464.19 1566.36 464.35 1535.00 467.00 C 1503.65 469.64 1467.41 471.68 1436.00 474.00 C 1404.59 476.32 1365.88 474.72 1336.78 470.22 C 1307.68 465.72 1280.46 459.11 1256.31 445.69 C 1232.16 432.28 1216.05 417.25 1203.23 393.77 C 1190.41 370.29 1182.26 343.08 1173.00 318.00
C 1126.96 351.20 1078.49 383.72 1036.25 423.25 C 994.01 462.78 956.87 504.85 915.00 544.00
C 928.60 504.07 963.94 474.61 986.25 439.25 C 1008.56 403.89 1029.74 365.67 1055.77 332.77 C 1081.80 299.87 1112.02 270.31 1146.00 247.00
C 1110.62 163.08 1089.95 70.34 1026.00 0.00
L 750.00 0.00
C 750.00 0.00 750.11 0.53 750.00 1.00
M 600.00 1079.00 
C 596.43 1071.79 603.73 1060.38 603.78 1052.78 C 603.83 1045.17 607.27 1034.71 609.31 1027.31 C 611.34 1019.90 614.44 1011.44 617.32 1004.32 C 620.20 997.21 623.68 990.71 626.92 983.92 C 630.17 977.14 633.97 970.44 638.30 964.30 C 642.64 958.17 646.99 952.24 651.25 946.25 C 655.51 940.25 659.80 935.24 664.75 929.75 C 669.71 924.26 674.27 918.65 680.08 914.08 C 685.89 909.52 691.23 904.39 697.23 900.23 C 703.23 896.07 709.00 891.93 715.70 888.70 C 722.39 885.46 728.51 880.46 735.23 877.23 C 741.95 874.00 748.14 869.43 754.25 865.25 C 760.36 861.07 766.01 857.87 771.25 852.25 C 776.49 846.62 781.47 842.15 786.25 836.25 C 791.02 830.35 794.58 823.85 798.32 817.32 C 802.06 810.79 806.78 803.70 808.00 796.00
C 808.78 827.54 799.80 865.99 778.08 890.08 C 756.36 914.17 734.82 928.50 717.08 955.08 C 699.33 981.66 686.11 1013.03 681.22 1045.22 C 676.33 1077.42 656.82 1105.58 643.00 1134.00
C 645.16 1156.27 648.56 1183.73 642.02 1205.02 C 635.49 1226.32 623.22 1235.53 604.31 1245.31 C 585.39 1255.08 565.99 1260.73 543.78 1262.78 C 521.57 1264.83 493.78 1261.18 473.78 1255.22 C 453.78 1249.27 438.42 1240.37 421.75 1229.25 C 405.09 1218.12 394.49 1205.96 379.25 1192.75 C 364.01 1179.54 348.57 1172.15 329.78 1164.22 C 310.98 1156.29 284.68 1163.45 268.77 1174.77 C 252.86 1186.09 231.10 1196.79 211.93 1192.07 C 192.75 1187.35 179.26 1175.10 167.25 1158.75 C 155.24 1142.41 146.98 1126.38 140.22 1106.78 C 133.47 1087.17 132.13 1058.77 132.00 1037.00 C 131.87 1015.23 126.82 990.88 119.23 971.77 C 111.64 952.66 102.52 938.30 91.75 921.25 C 80.98 904.20 72.66 890.03 64.23 870.77 C 55.80 851.51 53.43 824.22 54.93 802.93 C 56.42 781.63 62.35 759.70 71.77 741.77 C 81.19 723.84 89.55 710.66 105.25 697.25 C 120.94 683.83 133.72 675.73 154.23 668.23 C 174.74 660.72 192.22 651.59 217.07 654.93 C 241.93 658.26 234.27 689.14 227.07 708.07 C 219.87 727.00 215.78 750.04 212.01 771.01 C 208.24 791.97 215.74 817.32 226.31 834.70 C 236.87 852.07 250.71 861.97 269.23 869.77 C 287.75 877.57 307.44 883.83 327.67 889.33 C 347.91 894.82 371.64 899.63 393.07 902.93 C 414.51 906.23 440.80 908.59 462.02 911.98 C 483.25 915.36 505.04 920.11 524.08 927.92 C 543.12 935.73 558.92 941.75 568.92 961.08 C 578.92 980.41 567.29 1009.98 569.93 1030.07 C 572.56 1050.16 581.66 1068.89 600.00 1079.00 Z"/>
</g>
<g fill="None" fill-opacity="0.0" stroke="#DEC7AA" stroke-opacity="1.00" stroke-width="0.3"><path d="
M 1146.00 247.00 
C 1155.87 270.41 1164.18 294.10 1173.00 318.00
C 1182.26 343.08 1190.41 370.29 1203.23 393.77 C 1216.05 417.25 1232.16 432.28 1256.31 445.69 C 1280.46 459.11 1307.68 465.72 1336.78 470.22 C 1365.88 474.72 1404.59 476.32 1436.00 474.00 C 1467.41 471.68 1503.65 469.64 1535.00 467.00 C 1566.36 464.35 1606.10 464.19 1636.33 466.67 C 1666.56 469.16 1692.37 478.46 1717.77 490.23 C 1743.17 501.99 1757.47 516.94 1775.23 537.77 C 1792.99 558.60 1797.52 585.12 1810.00 608.00
C 1827.65 640.36 1835.88 678.06 1862.75 706.25 C 1889.62 734.43 1923.63 753.45 1960.00 761.00
L 1960.00 754.00
C 1923.80 745.01 1889.72 726.68 1864.75 697.25 C 1839.78 667.83 1827.38 630.38 1814.00 595.00
C 1802.90 565.66 1789.72 540.61 1767.25 516.75 C 1744.78 492.89 1720.85 480.43 1688.93 470.07 C 1657.00 459.71 1613.82 455.20 1577.00 457.00 C 1540.18 458.80 1496.00 461.95 1459.00 464.00 C 1422.00 466.05 1375.90 469.84 1340.33 463.67 C 1304.76 457.50 1276.32 451.11 1247.00 431.00
C 1231.03 420.05 1214.56 402.52 1207.00 385.00
C 1197.75 363.58 1185.59 339.67 1181.00 317.00
C 1171.70 290.84 1160.03 264.39 1151.00 238.00
C 1145.70 222.51 1139.68 207.39 1134.00 192.00
C 1128.19 176.27 1120.84 160.81 1115.00 145.00
C 1095.98 93.47 1073.59 42.53 1037.00 0.00
L 1026.00 0.00
C 1089.95 70.34 1110.62 163.08 1146.00 247.00 Z"/>
</g>
<g fill="None" fill-opacity="0.0" stroke="#FFF1DE" stroke-opacity="1.00" stroke-width="0.3"><path d="
M 1115.00 145.00 
C 1118.72 148.28 1126.67 138.26 1131.23 136.23 C 1135.79 134.20 1142.38 127.91 1147.25 124.25 C 1152.11 120.58 1158.48 116.70 1164.23 113.23 C 1169.98 109.76 1175.94 106.42 1182.70 103.69 C 1189.45 100.97 1197.79 99.18 1206.00 100.00 C 1214.21 100.82 1222.54 102.23 1231.00 103.00 C 1239.46 103.77 1248.08 105.29 1257.00 105.00 C 1265.92 104.71 1274.32 104.26 1283.00 103.00 C 1291.68 101.75 1300.97 101.97 1310.00 102.00
C 1299.01 66.41 1276.27 35.93 1263.00 1.00
C 1348.00 1.00 1433.00 1.00 1518.00 1.00
C 1518.00 0.50 1518.00 0.00 1518.00 0.00
L 1037.00 0.00
C 1073.59 42.53 1095.98 93.47 1115.00 145.00 Z"/>
</g>
<g fill="None" fill-opacity="0.0" stroke="#FEFEFD" stroke-opacity="1.00" stroke-width="0.3"><path d="
M 1518.00 1.00 
C 1518.00 27.01 1512.10 62.44 1519.99 87.01 C 1527.89 111.57 1531.71 130.40 1550.75 149.25 C 1569.79 168.10 1601.11 165.79 1627.00 164.00 C 1652.89 162.21 1684.38 167.21 1706.70 177.30 C 1729.02 187.40 1741.87 200.82 1755.92 220.08 C 1769.97 239.34 1782.98 252.90 1804.70 264.31 C 1826.41 275.71 1856.52 280.60 1883.00 279.00 C 1909.48 277.40 1935.48 271.79 1960.00 263.00
L 1960.00 238.00
C 1924.59 250.99 1878.63 256.59 1841.99 249.01 C 1805.35 241.42 1784.22 220.11 1761.75 191.25 C 1739.28 162.38 1704.36 147.41 1668.00 148.00 C 1631.63 148.60 1581.33 155.86 1562.23 117.77 C 1543.13 79.68 1541.11 42.53 1546.00 0.00
L 1518.00 0.00
C 1518.00 0.00 1518.00 0.50 1518.00 1.00 Z"/>
</g>
<g fill="None" fill-opacity="0.0" stroke="#F6E0CA" stroke-opacity="1.00" stroke-width="0.3"><path d="
M 1960.00 238.00 
L 1960.00 61.00
C 1930.65 74.40 1894.80 78.96 1872.25 105.25 C 1849.70 131.54 1836.74 159.45 1825.00 191.00
C 1811.58 189.23 1823.88 174.36 1826.78 165.78 C 1829.67 157.19 1835.87 146.58 1839.92 137.92 C 1843.98 129.27 1850.00 120.77 1855.75 112.75 C 1861.50 104.74 1868.24 98.47 1875.75 91.75 C 1883.27 85.03 1891.10 79.74 1900.08 75.08 C 1909.06 70.43 1920.30 67.41 1930.22 64.22 C 1940.14 61.04 1951.10 57.95 1960.00 52.00
L 1960.00 23.00
C 1952.78 28.17 1948.88 35.57 1941.25 40.25 C 1933.63 44.94 1924.57 48.91 1915.98 51.98 C 1907.38 55.04 1896.40 57.42 1887.98 60.98 C 1879.56 64.53 1871.20 68.46 1863.92 73.92 C 1856.65 79.39 1851.87 85.80 1845.25 92.25 C 1838.62 98.70 1835.40 106.17 1830.08 114.08 C 1824.75 121.98 1820.92 128.03 1816.70 137.69 C 1812.47 147.36 1808.29 150.91 1805.07 163.07 C 1801.85 175.24 1791.43 171.96 1797.77 160.77 C 1804.11 149.58 1804.02 144.54 1808.93 134.93 C 1813.84 125.32 1816.92 119.27 1821.92 110.92 C 1826.92 102.58 1831.65 96.82 1837.75 89.75 C 1843.86 82.68 1848.96 76.98 1856.08 71.08 C 1863.21 65.19 1870.12 60.30 1878.70 56.69 C 1887.27 53.09 1896.98 49.63 1906.00 47.00
C 1908.02 46.16 1909.64 45.67 1912.00 45.00
C 1930.54 37.46 1949.47 27.78 1960.00 9.00
L 1960.00 0.00
L 1939.00 0.00
C 1916.78 37.35 1870.38 33.62 1838.75 57.75 C 1807.13 81.89 1791.92 120.18 1777.00 155.00
C 1774.56 154.74 1772.48 153.24 1770.00 153.00
C 1782.77 116.67 1800.17 83.75 1829.08 56.08 C 1857.99 28.41 1904.55 32.67 1930.00 0.00
L 1900.00 0.00
C 1871.89 21.81 1831.28 19.94 1805.25 46.25 C 1779.21 72.56 1765.66 102.91 1753.00 136.00
C 1750.28 136.63 1748.59 133.93 1746.00 134.00
C 1757.30 101.06 1771.44 73.12 1794.75 45.75 C 1818.07 18.38 1856.01 14.38 1886.00 0.00
L 1546.00 0.00
C 1541.11 42.53 1543.13 79.68 1562.23 117.77 C 1581.33 155.86 1631.63 148.60 1668.00 148.00 C 1704.36 147.41 1739.28 162.38 1761.75 191.25 C 1784.22 220.11 1805.35 241.42 1841.99 249.01 C 1878.63 256.59 1924.59 250.99 1960.00 238.00 Z"/>
</g>
<g fill="None" fill-opacity="0.0" stroke="#8FA2B3" stroke-opacity="1.00" stroke-width="0.3"><path d="
M 1900.00 0.00 
L 1886.00 0.00
C 1856.01 14.38 1818.07 18.38 1794.75 45.75 C 1771.44 73.12 1757.30 101.06 1746.00 134.00
C 1748.59 133.93 1750.28 136.63 1753.00 136.00
C 1765.66 102.91 1779.21 72.56 1805.25 46.25 C 1831.28 19.94 1871.89 21.81 1900.00 0.00 Z"/>
</g>
<g fill="None" fill-opacity="0.0" stroke="#8FA2B3" stroke-opacity="1.00" stroke-width="0.3"><path d="
M 1939.00 0.00 
L 1930.00 0.00
C 1904.55 32.67 1857.99 28.41 1829.08 56.08 C 1800.17 83.75 1782.77 116.67 1770.00 153.00
C 1772.48 153.24 1774.56 154.74 1777.00 155.00
C 1791.92 120.18 1807.13 81.89 1838.75 57.75 C 1870.38 33.62 1916.78 37.35 1939.00 0.00 Z"/>
</g>
<g fill="None" fill-opacity="0.0" stroke="#A4BCD2" stroke-opacity="1.00" stroke-width="0.3"><path d="
M 26.00 319.00 
C 45.36 291.34 65.12 263.31 66.00 228.00 C 66.88 192.69 64.16 145.52 86.23 118.23 C 108.30 90.94 134.86 80.44 160.77 61.77 C 186.68 43.10 213.02 29.38 232.00 3.00
C 229.67 -1.03 218.96 1.53 212.00 1.00 C 205.04 0.47 196.46 1.23 189.00 1.00 C 181.54 0.77 172.66 1.11 165.00 1.00 C 157.34 0.89 149.77 1.05 142.00 1.00 C 134.23 0.95 125.81 1.02 118.00 1.00 C 110.19 0.98 102.83 1.01 95.00 1.00 C 87.17 0.99 78.83 1.00 71.00 1.00 C 63.17 1.00 55.83 1.00 48.00 1.00 C 40.17 1.00 31.81 1.00 24.00 1.00 C 16.19 1.00 8.78 1.00 1.00 1.00
C 1.00 115.00 1.00 229.00 1.00 343.00
C 8.53 334.68 18.84 327.71 26.00 319.00 Z"/>
</g>
<g fill="None" fill-opacity="0.0" stroke="#A3BBD1" stroke-opacity="1.00" stroke-width="0.3"><path d="
M 230.00 41.00 
C 212.48 54.16 195.94 67.88 177.23 79.23 C 158.52 90.58 140.56 101.28 123.25 115.25 C 105.93 129.22 92.08 147.02 87.00 169.00 C 81.92 190.98 83.30 228.43 77.33 250.33 C 71.36 272.22 64.54 295.78 48.30 311.30 C 32.07 326.83 22.78 346.62 2.00 355.00
C 3.58 368.59 -0.34 383.69 1.00 398.00 C 2.34 412.31 0.44 427.51 1.00 442.00 C 1.56 456.49 0.84 471.44 1.00 486.00 C 1.16 500.56 1.13 515.44 1.00 530.00 C 0.87 544.56 1.93 560.28 0.00 574.00
L 0.00 575.00
C 31.19 574.81 60.23 564.21 90.00 559.00
C 93.28 557.79 95.25 556.97 99.00 556.00
C 140.13 538.76 182.38 520.51 202.77 476.77 C 223.16 433.04 231.78 378.28 240.78 330.78 C 249.77 283.28 277.19 244.21 324.00 230.00
C 351.99 221.51 382.69 213.00 411.93 207.93 C 441.16 202.85 472.41 194.29 500.31 187.31 C 528.20 180.33 556.75 170.21 581.78 159.78 C 606.81 149.35 631.06 137.11 652.25 121.25 C 673.44 105.39 693.25 89.83 709.25 69.25 C 725.24 48.66 744.08 26.25 750.00 1.00
C 734.50 2.40 718.56 0.37 703.00 1.00 C 687.44 1.63 671.54 0.71 656.00 1.00 C 640.46 1.29 625.55 0.88 610.00 1.00 C 594.45 1.12 578.58 0.96 563.00 1.00 C 547.42 1.04 531.55 1.02 516.00 1.00 C 500.45 0.98 485.54 1.10 470.00 1.00 C 454.46 0.90 438.56 1.24 423.00 1.00 C 407.44 0.76 391.52 1.53 376.00 1.00 C 360.48 0.47 345.48 2.20 330.00 1.00 C 314.52 -0.20 298.42 3.61 283.00 1.00 C 267.58 -1.61 262.12 9.11 253.75 18.75 C 245.38 28.40 239.57 33.81 230.00 41.00 Z"/>
</g>
<g fill="None" fill-opacity="0.0" stroke="#F4DBC3" stroke-opacity="1.00" stroke-width="0.3"><path d="
M 1115.00 145.00 
C 1120.84 160.81 1128.19 176.27 1134.00 192.00
C 1135.56 185.58 1148.59 184.11 1153.08 179.08 C 1157.57 174.06 1166.16 170.26 1172.08 166.08 C 1177.99 161.89 1184.86 157.35 1191.70 153.70 C 1198.53 150.04 1205.59 145.33 1213.23 142.23 C 1220.87 139.13 1228.72 136.62 1237.08 134.08 C 1245.43 131.53 1258.94 133.47 1268.00 133.00 C 1277.06 132.53 1285.00 129.50 1292.74 125.74 C 1300.49 121.99 1307.48 118.94 1315.00 115.00
C 1315.00 116.00 1315.00 117.00 1315.00 118.00
C 1342.33 108.89 1373.84 115.17 1392.75 138.25 C 1411.67 161.33 1431.22 170.82 1454.70 185.31 C 1478.17 199.79 1497.72 210.30 1518.25 230.75 C 1538.77 251.21 1552.04 279.78 1546.00 310.00
C 1575.23 315.75 1584.36 344.26 1600.30 365.70 C 1616.25 387.13 1632.88 404.82 1656.23 419.77 C 1679.57 434.72 1712.71 448.64 1743.00 444.00 C 1773.29 439.36 1805.10 432.40 1835.00 426.00 C 1864.90 419.61 1893.39 410.23 1923.00 403.00
C 1912.72 415.82 1900.00 425.79 1892.00 439.00
C 1913.72 416.85 1932.85 390.45 1960.00 374.00
L 1960.00 263.00
C 1935.48 271.79 1909.48 277.40 1883.00 279.00 C 1856.52 280.60 1826.41 275.71 1804.70 264.31 C 1782.98 252.90 1769.97 239.34 1755.92 220.08 C 1741.87 200.82 1729.02 187.40 1706.70 177.30 C 1684.38 167.21 1652.89 162.21 1627.00 164.00 C 1601.11 165.79 1569.79 168.10 1550.75 149.25 C 1531.71 130.40 1527.89 111.57 1519.99 87.01 C 1512.10 62.44 1518.00 27.01 1518.00 1.00
C 1433.00 1.00 1348.00 1.00 1263.00 1.00
C 1276.27 35.93 1299.01 66.41 1310.00 102.00
C 1300.97 101.97 1291.68 101.75 1283.00 103.00 C 1274.32 104.26 1265.92 104.71 1257.00 105.00 C 1248.08 105.29 1239.46 103.77 1231.00 103.00 C 1222.54 102.23 1214.21 100.82 1206.00 100.00 C 1197.79 99.18 1189.45 100.97 1182.70 103.69 C 1175.94 106.42 1169.98 109.76 1164.23 113.23 C 1158.48 116.70 1152.11 120.58 1147.25 124.25 C 1142.38 127.91 1135.79 134.20 1131.23 136.23 C 1126.67 138.26 1118.72 148.28 1115.00 145.00 Z"/>
</g>
<g fill="None" fill-opacity="0.0" stroke="#90A2B3" stroke-opacity="1.00" stroke-width="0.3"><path d="
M 1912.00 45.00 
C 1910.14 45.76 1908.17 46.37 1906.00 47.00
C 1896.98 49.63 1887.27 53.09 1878.70 56.69 C 1870.12 60.30 1863.21 65.19 1856.08 71.08 C 1848.96 76.98 1843.86 82.68 1837.75 89.75 C 1831.65 96.82 1826.92 102.58 1821.92 110.92 C 1816.92 119.27 1813.84 125.32 1808.93 134.93 C 1804.02 144.54 1804.11 149.58 1797.77 160.77 C 1791.43 171.96 1801.85 175.24 1805.07 163.07 C 1808.29 150.91 1812.47 147.36 1816.70 137.69 C 1820.92 128.03 1824.75 121.98 1830.08 114.08 C 1835.40 106.17 1838.62 98.70 1845.25 92.25 C 1851.87 85.80 1856.65 79.39 1863.92 73.92 C 1871.20 68.46 1879.56 64.53 1887.98 60.98 C 1896.40 57.42 1907.38 55.04 1915.98 51.98 C 1924.57 48.91 1933.63 44.94 1941.25 40.25 C 1948.88 35.57 1952.78 28.17 1960.00 23.00
L 1960.00 9.00
C 1949.47 27.78 1930.54 37.46 1912.00 45.00 Z"/>
</g>
<g fill="None" fill-opacity="0.0" stroke="#C1C4BD" stroke-opacity="1.00" stroke-width="0.3"><path d="
M 1906.00 47.00 
C 1908.17 46.37 1910.14 45.76 1912.00 45.00
C 1909.64 45.67 1908.02 46.16 1906.00 47.00 Z"/>
</g>
<g fill="None" fill-opacity="0.0" stroke="#8FA2B3" stroke-opacity="1.00" stroke-width="0.3"><path d="
M 1960.00 61.00 
L 1960.00 52.00
C 1951.10 57.95 1940.14 61.04 1930.22 64.22 C 1920.30 67.41 1909.06 70.43 1900.08 75.08 C 1891.10 79.74 1883.27 85.03 1875.75 91.75 C 1868.24 98.47 1861.50 104.74 1855.75 112.75 C 1850.00 120.77 1843.98 129.27 1839.92 137.92 C 1835.87 146.58 1829.67 157.19 1826.78 165.78 C 1823.88 174.36 1811.58 189.23 1825.00 191.00
C 1836.74 159.45 1849.70 131.54 1872.25 105.25 C 1894.80 78.96 1930.65 74.40 1960.00 61.00 Z"/>
</g>
<g fill="None" fill-opacity="0.0" stroke="#FFC1AD" stroke-opacity="1.00" stroke-width="0.3"><path d="
M 1315.00 118.00 
C 1287.08 127.31 1265.23 154.02 1256.00 181.00
C 1250.35 197.52 1248.81 215.54 1252.00 233.00
C 1255.45 251.87 1260.51 268.33 1270.00 285.00
C 1281.62 305.42 1303.39 324.71 1322.00 340.00
C 1346.55 357.18 1368.81 368.90 1398.07 375.93 C 1427.34 382.95 1465.65 380.97 1492.08 368.08 C 1518.50 355.18 1540.18 339.08 1546.00 310.00
C 1552.04 279.78 1538.77 251.21 1518.25 230.75 C 1497.72 210.30 1478.17 199.79 1454.70 185.31 C 1431.22 170.82 1411.67 161.33 1392.75 138.25 C 1373.84 115.17 1342.33 108.89 1315.00 118.00 Z"/>
</g>
<g fill="None" fill-opacity="0.0" stroke="#FEF0DD" stroke-opacity="1.00" stroke-width="0.3"><path d="
M 1134.00 192.00 
C 1139.68 207.39 1145.70 222.51 1151.00 238.00
C 1151.58 239.12 1153.45 240.24 1153.00 242.00
C 1172.74 237.32 1194.48 230.63 1210.08 217.08 C 1225.68 203.53 1239.99 193.32 1256.00 181.00
C 1265.23 154.02 1287.08 127.31 1315.00 118.00
C 1315.00 117.00 1315.00 116.00 1315.00 115.00
C 1307.48 118.94 1300.49 121.99 1292.74 125.74 C 1285.00 129.50 1277.06 132.53 1268.00 133.00 C 1258.94 133.47 1245.43 131.53 1237.08 134.08 C 1228.72 136.62 1220.87 139.13 1213.23 142.23 C 1205.59 145.33 1198.53 150.04 1191.70 153.70 C 1184.86 157.35 1177.99 161.89 1172.08 166.08 C 1166.16 170.26 1157.57 174.06 1153.08 179.08 C 1148.59 184.11 1135.56 185.58 1134.00 192.00 Z"/>
</g>
<g fill="None" fill-opacity="0.0" stroke="#F4DCC4" stroke-opacity="1.00" stroke-width="0.3"><path d="
M 1151.00 238.00 
C 1160.03 264.39 1171.70 290.84 1181.00 317.00
C 1179.17 307.97 1190.72 302.65 1196.75 295.75 C 1202.79 288.86 1209.88 282.80 1215.75 275.75 C 1221.63 268.70 1227.61 261.55 1233.30 254.30 C 1238.99 247.05 1245.11 238.36 1252.00 233.00
C 1248.81 215.54 1250.35 197.52 1256.00 181.00
C 1239.99 193.32 1225.68 203.53 1210.08 217.08 C 1194.48 230.63 1172.74 237.32 1153.00 242.00
C 1153.45 240.24 1151.58 239.12 1151.00 238.00 Z"/>
</g>
<g fill="None" fill-opacity="0.0" stroke="#F4DCC4" stroke-opacity="1.00" stroke-width="0.3"><path d="
M 99.00 556.00 
C 97.89 556.47 96.41 557.52 95.00 558.00
C 101.79 558.63 107.75 566.09 115.32 567.68 C 122.89 569.26 130.54 572.76 138.78 574.22 C 147.02 575.69 157.04 576.54 166.00 577.00 C 174.96 577.46 185.55 575.99 194.00 575.00 C 202.45 574.01 210.46 571.86 217.99 568.99 C 225.52 566.12 232.20 563.85 239.30 560.31 C 246.41 556.76 251.92 553.75 258.77 549.77 C 265.62 545.79 269.37 541.83 276.25 537.25 C 283.13 532.66 288.59 529.02 287.00 520.00
C 279.78 478.90 270.11 423.19 293.77 386.77 C 317.43 350.35 353.85 336.97 393.00 329.00
C 395.94 324.26 389.45 313.55 389.99 308.01 C 390.54 302.47 384.50 296.05 383.26 290.74 C 382.01 285.44 377.02 280.63 373.92 276.08 C 370.82 271.52 367.79 266.27 363.75 262.25 C 359.70 258.24 355.38 254.39 351.25 250.75 C 347.12 247.12 342.64 242.29 337.75 240.25 C 332.85 238.22 327.81 231.26 324.00 230.00
C 277.19 244.21 249.77 283.28 240.78 330.78 C 231.78 378.28 223.16 433.04 202.77 476.77 C 182.38 520.51 140.13 538.76 99.00 556.00 Z"/>
</g>
<g fill="None" fill-opacity="0.0" stroke="#FEF0DD" stroke-opacity="1.00" stroke-width="0.3"><path d="
M 1181.00 317.00 
C 1185.59 339.67 1197.75 363.58 1207.00 385.00
C 1208.05 386.93 1210.46 389.37 1212.00 391.00
C 1228.63 354.38 1242.90 316.06 1270.00 285.00
C 1260.51 268.33 1255.45 251.87 1252.00 233.00
C 1245.11 238.36 1238.99 247.05 1233.30 254.30 C 1227.61 261.55 1221.63 268.70 1215.75 275.75 C 1209.88 282.80 1202.79 288.86 1196.75 295.75 C 1190.72 302.65 1179.17 307.97 1181.00 317.00 Z"/>
</g>
<g fill="None" fill-opacity="0.0" stroke="#F4DCC4" stroke-opacity="1.00" stroke-width="0.3"><path d="
M 1173.00 318.00 
C 1164.18 294.10 1155.87 270.41 1146.00 247.00
C 1112.02 270.31 1081.80 299.87 1055.77 332.77 C 1029.74 365.67 1008.56 403.89 986.25 439.25 C 963.94 474.61 928.60 504.07 915.00 544.00
C 956.87 504.85 994.01 462.78 1036.25 423.25 C 1078.49 383.72 1126.96 351.20 1173.00 318.00 Z"/>
</g>
<g fill="None" fill-opacity="0.0" stroke="#F4DCC4" stroke-opacity="1.00" stroke-width="0.3"><path d="
M 1207.00 385.00 
C 1214.56 402.52 1231.03 420.05 1247.00 431.00
C 1238.77 423.82 1251.68 414.26 1256.25 406.25 C 1260.83 398.24 1268.53 388.94 1272.92 379.92 C 1277.31 370.90 1283.59 361.33 1287.77 351.77 C 1291.95 342.21 1297.29 331.27 1300.00 321.00
C 1308.11 325.75 1313.99 334.79 1322.00 340.00
C 1303.39 324.71 1281.62 305.42 1270.00 285.00
C 1242.90 316.06 1228.63 354.38 1212.00 391.00
C 1210.46 389.37 1208.05 386.93 1207.00 385.00 Z"/>
</g>
<g fill="None" fill-opacity="0.0" stroke="#FFF1DD" stroke-opacity="1.00" stroke-width="0.3"><path d="
M 1322.00 340.00 
C 1313.99 334.79 1308.11 325.75 1300.00 321.00
C 1297.29 331.27 1291.95 342.21 1287.77 351.77 C 1283.59 361.33 1277.31 370.90 1272.92 379.92 C 1268.53 388.94 1260.83 398.24 1256.25 406.25 C 1251.68 414.26 1238.77 423.82 1247.00 431.00
C 1276.32 451.11 1304.76 457.50 1340.33 463.67 C 1375.90 469.84 1422.00 466.05 1459.00 464.00 C 1496.00 461.95 1540.18 458.80 1577.00 457.00 C 1613.82 455.20 1657.00 459.71 1688.93 470.07 C 1720.85 480.43 1744.78 492.89 1767.25 516.75 C 1789.72 540.61 1802.90 565.66 1814.00 595.00
C 1814.53 583.74 1824.47 571.86 1825.98 559.98 C 1827.48 548.09 1835.59 538.66 1839.25 528.25 C 1842.90 517.84 1850.24 506.73 1854.26 496.26 C 1858.27 485.78 1867.45 477.60 1871.92 466.92 C 1876.39 456.25 1885.64 448.26 1892.00 439.00
C 1900.00 425.79 1912.72 415.82 1923.00 403.00
C 1893.39 410.23 1864.90 419.61 1835.00 426.00 C 1805.10 432.40 1773.29 439.36 1743.00 444.00 C 1712.71 448.64 1679.57 434.72 1656.23 419.77 C 1632.88 404.82 1616.25 387.13 1600.30 365.70 C 1584.36 344.26 1575.23 315.75 1546.00 310.00
C 1540.18 339.08 1518.50 355.18 1492.08 368.08 C 1465.65 380.97 1427.34 382.95 1398.07 375.93 C 1368.81 368.90 1346.55 357.18 1322.00 340.00 Z"/>
</g>
<g fill="None" fill-opacity="0.0" stroke="#FEFEFD" stroke-opacity="1.00" stroke-width="0.3"><path d="
M 393.00 329.00 
C 353.85 336.97 317.43 350.35 293.77 386.77 C 270.11 423.19 279.78 478.90 287.00 520.00
C 294.75 546.63 302.14 577.98 324.92 597.08 C 347.70 616.19 376.46 628.18 405.00 629.00
C 448.12 630.25 490.01 629.15 530.00 616.00
C 543.85 608.03 560.21 602.90 572.77 588.77 C 585.33 574.64 596.10 563.01 599.22 543.22 C 602.34 523.43 603.76 496.47 598.93 477.07 C 594.09 457.68 589.20 439.59 583.78 421.22 C 578.35 402.86 575.72 385.38 560.75 372.25 C 545.78 359.11 534.36 352.34 516.75 344.25 C 499.13 336.17 479.82 331.24 459.67 329.33 C 439.52 327.42 413.50 324.83 393.00 329.00
M 575.00 519.00 
C 575.00 526.12 575.42 532.90 573.00 539.00
C 560.40 587.62 509.40 606.07 463.00 607.00
C 428.06 614.24 382.83 608.54 353.30 589.70 C 323.77 570.86 309.54 536.25 307.00 503.00
C 304.73 473.36 295.65 429.53 312.77 403.77 C 329.89 378.01 350.22 359.35 380.00 355.00
C 413.17 345.88 455.64 346.17 488.02 356.98 C 520.41 367.78 540.86 383.87 552.92 416.08 C 564.99 448.28 575.00 482.92 575.00 519.00 Z"/>
</g>
<g fill="None" fill-opacity="0.0" stroke="#FEF0DD" stroke-opacity="1.00" stroke-width="0.3"><path d="
M 380.00 355.00 
C 384.14 354.40 387.70 352.99 392.00 353.00
C 383.03 412.03 349.74 464.39 309.00 508.00
C 306.80 507.26 309.31 503.67 307.00 503.00
C 309.54 536.25 323.77 570.86 353.30 589.70 C 382.83 608.54 428.06 614.24 463.00 607.00
C 443.06 607.40 422.58 609.44 403.00 606.00
C 404.83 563.08 438.18 519.67 481.00 512.00
C 485.19 510.55 492.16 507.01 498.07 506.07 C 503.99 505.14 512.47 506.44 519.00 506.00 C 525.53 505.56 534.07 507.40 540.00 508.00 C 545.93 508.60 553.60 510.64 558.22 512.78 C 562.84 514.92 572.59 514.76 575.00 519.00
C 575.00 482.92 564.99 448.28 552.92 416.08 C 540.86 383.87 520.41 367.78 488.02 356.98 C 455.64 346.17 413.17 345.88 380.00 355.00 Z"/>
</g>
<g fill="None" fill-opacity="0.0" stroke="#F4DCC4" stroke-opacity="1.00" stroke-width="0.3"><path d="
M 380.00 355.00 
C 350.22 359.35 329.89 378.01 312.77 403.77 C 295.65 429.53 304.73 473.36 307.00 503.00
C 309.31 503.67 306.80 507.26 309.00 508.00
C 349.74 464.39 383.03 412.03 392.00 353.00
C 387.70 352.99 384.14 354.40 380.00 355.00 Z"/>
</g>
<g fill="None" fill-opacity="0.0" stroke="#BDD6E6" stroke-opacity="1.00" stroke-width="0.3"><path d="
M 0.00 574.00 
C 1.93 560.28 0.87 544.56 1.00 530.00 C 1.13 515.44 1.16 500.56 1.00 486.00 C 0.84 471.44 1.56 456.49 1.00 442.00 C 0.44 427.51 2.34 412.31 1.00 398.00 C -0.34 383.69 3.58 368.59 2.00 355.00
C 1.57 355.17 0.50 355.00 0.00 355.00
L 0.00 574.00 Z"/>
</g>
<g fill="None" fill-opacity="0.0" stroke="#FED991" stroke-opacity="1.00" stroke-width="0.3"><path d="
M 1892.00 439.00 
C 1885.64 448.26 1876.39 456.25 1871.92 466.92 C 1867.45 477.60 1858.27 485.78 1854.26 496.26 C 1850.24 506.73 1842.90 517.84 1839.25 528.25 C 1835.59 538.66 1827.48 548.09 1825.98 559.98 C 1824.47 571.86 1814.53 583.74 1814.00 595.00
C 1827.38 630.38 1839.78 667.83 1864.75 697.25 C 1889.72 726.68 1923.80 745.01 1960.00 754.00
L 1960.00 374.00
C 1932.85 390.45 1913.72 416.85 1892.00 439.00 Z"/>
</g>
<g fill="None" fill-opacity="0.0" stroke="#FEEAC0" stroke-opacity="1.00" stroke-width="0.3"><path d="
M 481.00 512.00 
C 490.80 511.25 497.91 507.60 508.00 507.00 C 518.09 506.40 528.58 508.22 538.67 509.33 C 548.76 510.44 554.33 514.29 564.74 516.26 C 575.16 518.22 575.59 529.00 573.00 539.00
C 575.42 532.90 575.00 526.12 575.00 519.00
C 572.59 514.76 562.84 514.92 558.22 512.78 C 553.60 510.64 545.93 508.60 540.00 508.00 C 534.07 507.40 525.53 505.56 519.00 506.00 C 512.47 506.44 503.99 505.14 498.07 506.07 C 492.16 507.01 485.19 510.55 481.00 512.00 Z"/>
</g>
<g fill="None" fill-opacity="0.0" stroke="#FED992" stroke-opacity="1.00" stroke-width="0.3"><path d="
M 481.00 512.00 
C 438.18 519.67 404.83 563.08 403.00 606.00
C 422.58 609.44 443.06 607.40 463.00 607.00
C 509.40 606.07 560.40 587.62 573.00 539.00
C 575.59 529.00 575.16 518.22 564.74 516.26 C 554.33 514.29 548.76 510.44 538.67 509.33 C 528.58 508.22 518.09 506.40 508.00 507.00 C 497.91 507.60 490.80 511.25 481.00 512.00 Z"/>
</g>
<g fill="None" fill-opacity="0.0" stroke="#FED991" stroke-opacity="1.00" stroke-width="0.3"><path d="
M 530.00 616.00 
C 490.01 629.15 448.12 630.25 405.00 629.00
C 395.58 631.09 404.43 650.14 405.22 657.78 C 406.01 665.42 412.15 677.70 414.22 685.78 C 416.29 693.86 422.19 701.94 426.08 709.92 C 429.98 717.90 435.32 725.07 441.23 731.77 C 447.14 738.47 451.09 745.21 457.25 751.75 C 463.40 758.29 469.57 763.65 476.30 769.70 C 483.03 775.75 489.54 779.79 497.77 784.23 C 506.00 788.67 514.61 792.01 523.99 795.01 C 533.38 798.01 546.69 798.61 557.00 799.00 C 567.31 799.39 576.57 794.38 585.33 791.33 C 594.08 788.28 602.16 784.12 608.75 777.75 C 615.35 771.38 622.56 768.70 627.75 760.75 C 632.94 752.80 637.63 746.83 642.75 738.75 C 647.86 730.66 651.74 724.05 655.00 715.00 C 658.26 705.95 660.07 695.16 662.00 685.00 C 663.93 674.85 663.54 661.93 664.00 651.00 C 664.46 640.08 661.23 628.61 659.33 618.67 C 657.43 608.73 654.40 599.57 649.92 591.08 C 645.45 582.58 643.51 574.03 636.75 568.25 C 629.99 562.46 626.07 553.19 619.25 548.75 C 612.43 544.31 603.30 531.51 601.00 541.00 C 598.70 550.49 596.54 560.79 591.77 568.77 C 587.00 576.75 582.17 582.10 575.75 588.75 C 569.33 595.41 562.84 600.58 555.08 605.08 C 547.32 609.59 538.54 613.19 530.00 616.00 Z"/>
</g>
<g fill="None" fill-opacity="0.0" stroke="#CBCBCB" stroke-opacity="1.00" stroke-width="0.3"><path d="
M 90.00 559.00 
C 91.92 558.66 93.20 558.61 95.00 558.00
C 96.41 557.52 97.89 556.47 99.00 556.00
C 95.25 556.97 93.28 557.79 90.00 559.00 Z"/>
</g>
<g fill="None" fill-opacity="0.0" stroke="#FED991" stroke-opacity="1.00" stroke-width="0.3"><path d="
M 1635.00 932.00 
C 1613.44 941.97 1587.71 950.16 1564.00 956.00 C 1540.29 961.84 1515.93 972.37 1495.11 983.11 C 1474.29 993.85 1460.96 1010.78 1443.25 1027.25 C 1425.54 1043.71 1419.04 1067.13 1407.00 1087.00
C 1402.39 1094.61 1401.42 1105.94 1397.32 1114.32 C 1393.23 1122.70 1392.05 1133.96 1389.77 1142.77 C 1387.49 1151.58 1381.90 1160.24 1377.25 1167.25 C 1372.60 1174.25 1370.77 1182.19 1364.92 1188.92 C 1359.06 1195.64 1354.52 1201.83 1348.23 1208.23 C 1341.94 1214.63 1333.50 1218.63 1327.75 1224.75 C 1322.01 1230.87 1312.09 1234.27 1306.00 1239.00 C 1299.92 1243.73 1285.42 1243.25 1282.00 1251.00
C 1281.58 1253.41 1281.28 1255.49 1281.00 1258.00
C 1280.09 1266.17 1277.95 1272.84 1275.00 1280.00
C 1272.38 1288.88 1267.77 1297.27 1265.00 1306.00
L 1646.00 1306.00
C 1673.15 1274.11 1708.95 1257.59 1745.75 1241.75 C 1782.54 1225.90 1820.58 1211.12 1848.25 1179.25 C 1875.93 1147.38 1894.10 1115.24 1907.92 1074.92 C 1921.75 1034.60 1930.81 983.31 1935.98 937.98 C 1941.14 892.64 1944.86 839.92 1960.00 797.00
L 1960.00 761.00
C 1923.63 753.45 1889.62 734.43 1862.75 706.25 C 1835.88 678.06 1827.65 640.36 1810.00 608.00
C 1809.72 624.55 1797.38 641.60 1798.00 659.00 C 1798.62 676.40 1790.82 693.71 1786.78 709.78 C 1782.73 725.85 1775.59 741.20 1770.33 756.33 C 1765.07 771.46 1759.68 787.32 1753.97 801.97 C 1748.26 816.62 1740.24 829.05 1731.30 841.30 C 1722.37 853.55 1714.72 866.98 1705.10 878.10 C 1695.48 889.22 1683.95 897.94 1673.77 908.77 C 1663.59 919.60 1648.21 925.89 1635.00 932.00
M 1600.00 989.00 
C 1611.76 992.19 1608.49 1010.09 1599.25 1013.25 C 1590.00 1016.40 1571.48 1013.49 1571.01 1001.99 C 1570.54 990.50 1591.66 986.74 1600.00 989.00
M 1665.00 1027.00 
C 1673.41 1027.81 1690.42 1038.52 1682.67 1048.67 C 1674.92 1058.83 1660.43 1053.20 1652.11 1045.89 C 1643.78 1038.59 1651.30 1025.67 1665.00 1027.00
M 1523.00 1039.00 
C 1529.07 1039.99 1538.44 1042.74 1541.30 1049.70 C 1544.16 1056.65 1527.68 1058.86 1522.00 1056.00 C 1516.31 1053.15 1505.03 1054.61 1502.70 1046.30 C 1500.36 1037.99 1517.44 1038.10 1523.00 1039.00
M 1746.00 1070.00 
C 1751.09 1070.91 1759.31 1077.50 1761.92 1082.08 C 1764.52 1086.66 1772.25 1097.79 1766.69 1102.69 C 1761.14 1107.60 1750.41 1102.22 1745.25 1097.75 C 1740.10 1093.28 1734.96 1091.01 1732.08 1082.92 C 1729.20 1074.84 1736.40 1068.28 1746.00 1070.00
M 1615.00 1078.00 
C 1621.01 1078.86 1628.01 1084.24 1633.70 1086.30 C 1639.38 1088.36 1647.56 1099.42 1638.97 1100.97 C 1630.39 1102.53 1623.92 1099.92 1616.78 1096.22 C 1609.64 1092.53 1605.44 1093.28 1599.25 1085.75 C 1593.06 1078.22 1608.00 1077.00 1615.00 1078.00
M 1474.00 1080.00 
C 1480.39 1080.91 1489.99 1083.05 1493.30 1090.70 C 1496.61 1098.34 1481.03 1103.64 1474.33 1100.67 C 1467.63 1097.70 1457.74 1099.92 1454.70 1090.30 C 1451.65 1080.69 1466.87 1078.98 1474.00 1080.00
M 1570.00 1116.00 
C 1581.13 1118.15 1583.08 1121.23 1594.23 1126.77 C 1605.39 1132.31 1600.73 1143.18 1587.93 1139.07 C 1575.13 1134.97 1573.97 1136.40 1562.75 1129.25 C 1551.54 1122.10 1555.49 1113.20 1570.00 1116.00
M 1714.00 1133.00 
C 1724.71 1134.29 1730.17 1141.03 1739.75 1146.25 C 1749.32 1151.47 1754.59 1167.57 1741.33 1164.67 C 1728.07 1161.77 1726.19 1156.01 1715.92 1151.08 C 1705.65 1146.15 1697.37 1130.99 1714.00 1133.00
M 1683.00 1173.00 
C 1696.60 1175.82 1709.52 1186.09 1720.75 1194.25 C 1731.98 1202.41 1726.05 1206.43 1716.99 1204.01 C 1707.93 1201.59 1703.95 1199.75 1695.97 1196.03 C 1688.00 1192.30 1685.19 1190.20 1677.30 1184.70 C 1669.41 1179.19 1670.00 1170.31 1683.00 1173.00 Z"/>
</g>
<g fill="None" fill-opacity="0.0" stroke="#FEBFAA" stroke-opacity="1.00" stroke-width="0.3"><path d="
M 643.00 1134.00 
C 641.88 1122.38 638.41 1106.92 630.23 1097.77 C 622.05 1088.62 610.70 1084.90 600.00 1079.00
C 581.66 1068.89 572.56 1050.16 569.93 1030.07 C 567.29 1009.98 578.92 980.41 568.92 961.08 C 558.92 941.75 543.12 935.73 524.08 927.92 C 505.04 920.11 483.25 915.36 462.02 911.98 C 440.80 908.59 414.51 906.23 393.07 902.93 C 371.64 899.63 347.91 894.82 327.67 889.33 C 307.44 883.83 287.75 877.57 269.23 869.77 C 250.71 861.97 236.87 852.07 226.31 834.70 C 215.74 817.32 208.24 791.97 212.01 771.01 C 215.78 750.04 219.87 727.00 227.07 708.07 C 234.27 689.14 241.93 658.26 217.07 654.93 C 192.22 651.59 174.74 660.72 154.23 668.23 C 133.72 675.73 120.94 683.83 105.25 697.25 C 89.55 710.66 81.19 723.84 71.77 741.77 C 62.35 759.70 56.42 781.63 54.93 802.93 C 53.43 824.22 55.80 851.51 64.23 870.77 C 72.66 890.03 80.98 904.20 91.75 921.25 C 102.52 938.30 111.64 952.66 119.23 971.77 C 126.82 990.88 131.87 1015.23 132.00 1037.00 C 132.13 1058.77 133.47 1087.17 140.22 1106.78 C 146.98 1126.38 155.24 1142.41 167.25 1158.75 C 179.26 1175.10 192.75 1187.35 211.93 1192.07 C 231.10 1196.79 252.86 1186.09 268.77 1174.77 C 284.68 1163.45 310.98 1156.29 329.78 1164.22 C 348.57 1172.15 364.01 1179.54 379.25 1192.75 C 394.49 1205.96 405.09 1218.12 421.75 1229.25 C 438.42 1240.37 453.78 1249.27 473.78 1255.22 C 493.78 1261.18 521.57 1264.83 543.78 1262.78 C 565.99 1260.73 585.39 1255.08 604.31 1245.31 C 623.22 1235.53 635.49 1226.32 642.02 1205.02 C 648.56 1183.73 645.16 1156.27 643.00 1134.00 Z"/>
</g>
<g fill="None" fill-opacity="0.0" stroke="#F4DCC4" stroke-opacity="1.00" stroke-width="0.3"><path d="
M 1407.00 1087.00 
C 1419.04 1067.13 1425.54 1043.71 1443.25 1027.25 C 1460.96 1010.78 1474.29 993.85 1495.11 983.11 C 1515.93 972.37 1540.29 961.84 1564.00 956.00 C 1587.71 950.16 1613.44 941.97 1635.00 932.00
C 1637.68 924.52 1630.41 912.67 1629.93 905.07 C 1629.44 897.48 1623.31 889.52 1620.32 882.68 C 1617.34 875.84 1612.42 869.19 1607.75 863.25 C 1603.08 857.30 1599.02 851.12 1593.25 845.75 C 1587.48 840.39 1582.97 834.88 1576.75 830.25 C 1570.53 825.62 1565.10 820.54 1558.23 816.77 C 1551.36 813.00 1545.42 808.17 1538.07 804.93 C 1530.73 801.68 1523.71 797.80 1515.68 795.32 C 1507.64 792.85 1499.56 791.16 1491.01 788.99 C 1482.46 786.83 1471.19 786.57 1462.00 786.00 C 1452.82 785.43 1441.66 787.71 1433.00 789.00 C 1424.35 790.30 1415.76 792.99 1408.03 796.03 C 1400.29 799.06 1393.25 802.01 1386.70 806.70 C 1380.15 811.39 1375.05 815.74 1369.25 821.25 C 1363.44 826.75 1359.46 832.49 1354.92 838.92 C 1350.38 845.35 1347.06 852.15 1343.32 859.32 C 1339.59 866.50 1337.37 874.99 1334.93 882.93 C 1332.49 890.87 1330.85 901.29 1331.00 910.00 C 1331.16 918.71 1333.69 928.86 1336.22 936.78 C 1338.75 944.70 1342.47 951.84 1346.03 958.97 C 1349.59 966.10 1353.97 972.05 1358.23 978.77 C 1362.49 985.49 1366.92 991.19 1371.23 997.77 C 1375.54 1004.35 1380.26 1010.00 1384.23 1016.77 C 1388.20 1023.55 1392.54 1029.76 1396.07 1036.93 C 1399.61 1044.09 1402.55 1052.87 1404.22 1060.78 C 1405.90 1068.69 1410.10 1078.81 1407.00 1087.00 Z"/>
</g>
<g fill="None" fill-opacity="0.0" stroke="#F4DCC4" stroke-opacity="1.00" stroke-width="0.3"><path d="
M 600.00 1079.00 
C 610.70 1084.90 622.05 1088.62 630.23 1097.77 C 638.41 1106.92 641.88 1122.38 643.00 1134.00
C 656.82 1105.58 676.33 1077.42 681.22 1045.22 C 686.11 1013.03 699.33 981.66 717.08 955.08 C 734.82 928.50 756.36 914.17 778.08 890.08 C 799.80 865.99 808.78 827.54 808.00 796.00
C 806.78 803.70 802.06 810.79 798.32 817.32 C 794.58 823.85 791.02 830.35 786.25 836.25 C 781.47 842.15 776.49 846.62 771.25 852.25 C 766.01 857.87 760.36 861.07 754.25 865.25 C 748.14 869.43 741.95 874.00 735.23 877.23 C 728.51 880.46 722.39 885.46 715.70 888.70 C 709.00 891.93 703.23 896.07 697.23 900.23 C 691.23 904.39 685.89 909.52 680.08 914.08 C 674.27 918.65 669.71 924.26 664.75 929.75 C 659.80 935.24 655.51 940.25 651.25 946.25 C 646.99 952.24 642.64 958.17 638.30 964.30 C 633.97 970.44 630.17 977.14 626.92 983.92 C 623.68 990.71 620.20 997.21 617.32 1004.32 C 614.44 1011.44 611.34 1019.90 609.31 1027.31 C 607.27 1034.71 603.83 1045.17 603.78 1052.78 C 603.73 1060.38 596.43 1071.79 600.00 1079.00 Z"/>
</g>
<g fill="None" fill-opacity="0.0" stroke="#FEF1DD" stroke-opacity="1.00" stroke-width="0.3"><path d="
M 1646.00 1306.00 
L 1693.00 1306.00
C 1703.58 1294.33 1717.43 1286.61 1731.70 1278.70 C 1745.97 1270.78 1762.26 1265.19 1777.68 1258.68 C 1793.10 1252.17 1807.73 1244.10 1822.22 1237.22 C 1836.72 1230.35 1849.96 1222.75 1861.75 1210.75 C 1873.54 1198.75 1882.74 1188.90 1892.30 1175.30 C 1901.86 1161.71 1909.34 1148.68 1916.77 1133.77 C 1924.20 1118.86 1930.31 1103.21 1935.78 1086.78 C 1941.24 1070.34 1945.57 1051.73 1948.98 1033.98 C 1952.38 1016.22 1956.17 995.17 1960.00 978.00
L 1960.00 797.00
C 1944.86 839.92 1941.14 892.64 1935.98 937.98 C 1930.81 983.31 1921.75 1034.60 1907.92 1074.92 C 1894.10 1115.24 1875.93 1147.38 1848.25 1179.25 C 1820.58 1211.12 1782.54 1225.90 1745.75 1241.75 C 1708.95 1257.59 1673.15 1274.11 1646.00 1306.00 Z"/>
</g>
<g fill="None" fill-opacity="0.0" stroke="#F4DCC3" stroke-opacity="1.00" stroke-width="0.3"><path d="
M 586.00 1306.00 
L 596.00 1306.00
C 610.39 1285.66 627.13 1268.32 650.77 1261.77 C 674.42 1255.23 692.28 1237.60 713.25 1226.25 C 734.23 1214.91 751.52 1194.42 775.78 1190.78 C 800.04 1187.14 827.05 1178.65 845.75 1162.75 C 864.46 1146.86 881.55 1133.82 898.25 1116.25 C 914.94 1098.68 930.80 1083.81 945.70 1065.70 C 960.60 1047.59 975.60 1030.47 990.75 1012.75 C 1005.90 995.02 1020.90 978.19 1038.75 962.75 C 1056.61 947.32 1074.53 928.83 1080.00 906.00
C 1060.44 919.87 1041.17 933.25 1022.08 948.08 C 1002.99 962.91 983.10 975.33 962.23 987.23 C 941.36 999.14 919.82 1011.55 898.23 1022.23 C 876.64 1032.90 853.85 1045.88 832.68 1056.68 C 811.51 1067.48 788.80 1078.40 770.75 1093.75 C 752.71 1109.10 733.85 1122.91 720.30 1142.30 C 706.76 1161.70 692.48 1180.79 676.25 1198.25 C 660.01 1215.71 638.26 1227.72 628.31 1249.31 C 618.35 1270.89 600.28 1286.76 586.00 1306.00 Z"/>
</g>
<g fill="None" fill-opacity="0.0" stroke="#FED992" stroke-opacity="1.00" stroke-width="0.3"><path d="
M 1693.00 1306.00 
L 1960.00 1306.00
L 1960.00 978.00
C 1956.17 995.17 1952.38 1016.22 1948.98 1033.98 C 1945.57 1051.73 1941.24 1070.34 1935.78 1086.78 C 1930.31 1103.21 1924.20 1118.86 1916.77 1133.77 C 1909.34 1148.68 1901.86 1161.71 1892.30 1175.30 C 1882.74 1188.90 1873.54 1198.75 1861.75 1210.75 C 1849.96 1222.75 1836.72 1230.35 1822.22 1237.22 C 1807.73 1244.10 1793.10 1252.17 1777.68 1258.68 C 1762.26 1265.19 1745.97 1270.78 1731.70 1278.70 C 1717.43 1286.61 1703.58 1294.33 1693.00 1306.00 Z"/>
</g>
<g fill="None" fill-opacity="0.0" stroke="#FEFDF9" stroke-opacity="1.00" stroke-width="0.3"><path d="
M 1600.00 989.00 
C 1591.66 986.74 1570.54 990.50 1571.01 1001.99 C 1571.48 1013.49 1590.00 1016.40 1599.25 1013.25 C 1608.49 1010.09 1611.76 992.19 1600.00 989.00 Z"/>
</g>
<g fill="None" fill-opacity="0.0" stroke="#FDFEFC" stroke-opacity="1.00" stroke-width="0.3"><path d="
M 1665.00 1027.00 
C 1651.30 1025.67 1643.78 1038.59 1652.11 1045.89 C 1660.43 1053.20 1674.92 1058.83 1682.67 1048.67 C 1690.42 1038.52 1673.41 1027.81 1665.00 1027.00 Z"/>
</g>
<g fill="None" fill-opacity="0.0" stroke="#FDFEFA" stroke-opacity="1.00" stroke-width="0.3"><path d="
M 1523.00 1039.00 
C 1517.44 1038.10 1500.36 1037.99 1502.70 1046.30 C 1505.03 1054.61 1516.31 1053.15 1522.00 1056.00 C 1527.68 1058.86 1544.16 1056.65 1541.30 1049.70 C 1538.44 1042.74 1529.07 1039.99 1523.00 1039.00 Z"/>
</g>
<g fill="None" fill-opacity="0.0" stroke="#FEFEFB" stroke-opacity="1.00" stroke-width="0.3"><path d="
M 1746.00 1070.00 
C 1736.40 1068.28 1729.20 1074.84 1732.08 1082.92 C 1734.96 1091.01 1740.10 1093.28 1745.25 1097.75 C 1750.41 1102.22 1761.14 1107.60 1766.69 1102.69 C 1772.25 1097.79 1764.52 1086.66 1761.92 1082.08 C 1759.31 1077.50 1751.09 1070.91 1746.00 1070.00 Z"/>
</g>
<g fill="None" fill-opacity="0.0" stroke="#FDFDF8" stroke-opacity="1.00" stroke-width="0.3"><path d="
M 1615.00 1078.00 
C 1608.00 1077.00 1593.06 1078.22 1599.25 1085.75 C 1605.44 1093.28 1609.64 1092.53 1616.78 1096.22 C 1623.92 1099.92 1630.39 1102.53 1638.97 1100.97 C 1647.56 1099.42 1639.38 1088.36 1633.70 1086.30 C 1628.01 1084.24 1621.01 1078.86 1615.00 1078.00 Z"/>
</g>
<g fill="None" fill-opacity="0.0" stroke="#FDFCF5" stroke-opacity="1.00" stroke-width="0.3"><path d="
M 1474.00 1080.00 
C 1466.87 1078.98 1451.65 1080.69 1454.70 1090.30 C 1457.74 1099.92 1467.63 1097.70 1474.33 1100.67 C 1481.03 1103.64 1496.61 1098.34 1493.30 1090.70 C 1489.99 1083.05 1480.39 1080.91 1474.00 1080.00 Z"/>
</g>
<g fill="None" fill-opacity="0.0" stroke="#A3BBD1" stroke-opacity="1.00" stroke-width="0.3"><path d="
M 922.00 1254.00 
C 922.00 1272.33 927.83 1289.37 933.00 1306.00
L 1265.00 1306.00
C 1267.77 1297.27 1272.38 1288.88 1275.00 1280.00
C 1277.12 1272.84 1279.56 1264.98 1281.00 1258.00
C 1281.28 1255.49 1281.58 1253.41 1282.00 1251.00
C 1289.99 1204.64 1269.23 1162.23 1231.25 1135.75 C 1193.26 1109.27 1148.88 1098.60 1101.00 1098.00 C 1053.12 1097.40 1011.12 1109.37 973.25 1138.25 C 935.37 1167.13 922.00 1207.57 922.00 1254.00 Z"/>
</g>
<g fill="None" fill-opacity="0.0" stroke="#FEFDFA" stroke-opacity="1.00" stroke-width="0.3"><path d="
M 1570.00 1116.00 
C 1555.49 1113.20 1551.54 1122.10 1562.75 1129.25 C 1573.97 1136.40 1575.13 1134.97 1587.93 1139.07 C 1600.73 1143.18 1605.39 1132.31 1594.23 1126.77 C 1583.08 1121.23 1581.13 1118.15 1570.00 1116.00 Z"/>
</g>
<g fill="None" fill-opacity="0.0" stroke="#FDFBF5" stroke-opacity="1.00" stroke-width="0.3"><path d="
M 1714.00 1133.00 
C 1697.37 1130.99 1705.65 1146.15 1715.92 1151.08 C 1726.19 1156.01 1728.07 1161.77 1741.33 1164.67 C 1754.59 1167.57 1749.32 1151.47 1739.75 1146.25 C 1730.17 1141.03 1724.71 1134.29 1714.00 1133.00 Z"/>
</g>
<g fill="None" fill-opacity="0.0" stroke="#FDFDF7" stroke-opacity="1.00" stroke-width="0.3"><path d="
M 1683.00 1173.00 
C 1670.00 1170.31 1669.41 1179.19 1677.30 1184.70 C 1685.19 1190.20 1688.00 1192.30 1695.97 1196.03 C 1703.95 1199.75 1707.93 1201.59 1716.99 1204.01 C 1726.05 1206.43 1731.98 1202.41 1720.75 1194.25 C 1709.52 1186.09 1696.60 1175.82 1683.00 1173.00 Z"/>
</g>
<g fill="None" fill-opacity="0.0" stroke="#FED991" stroke-opacity="1.00" stroke-width="0.3"><path d="
M 813.00 1306.00 
L 933.00 1306.00
C 927.83 1289.37 922.00 1272.33 922.00 1254.00
C 918.94 1243.39 922.79 1231.27 922.00 1220.00
C 873.30 1223.88 824.35 1256.43 813.00 1306.00 Z"/>
</g>
<g fill="None" fill-opacity="0.0" stroke="#CFCAB2" stroke-opacity="1.00" stroke-width="0.3"><path d="
M 1275.00 1280.00 
C 1277.95 1272.84 1280.09 1266.17 1281.00 1258.00
C 1279.56 1264.98 1277.12 1272.84 1275.00 1280.00 Z"/>
</g>
<g fill="#C6DBEA" fill-opacity="1.00" stroke="None">
<path d="
M 0.00 344.00 
C 8.40 336.73 19.35 328.50 26.00 319.00
C 18.84 327.71 8.53 334.68 1.00 343.00
C 1.00 229.00 1.00 115.00 1.00 1.00
C 8.78 1.00 16.19 1.00 24.00 1.00 C 31.81 1.00 40.17 1.00 48.00 1.00 C 55.83 1.00 63.17 1.00 71.00 1.00 C 78.83 1.00 87.17 0.99 95.00 1.00 C 102.83 1.01 110.19 0.98 118.00 1.00 C 125.81 1.02 134.23 0.95 142.00 1.00 C 149.77 1.05 157.34 0.89 165.00 1.00 C 172.66 1.11 181.54 0.77 189.00 1.00 C 196.46 1.23 205.04 0.47 212.00 1.00 C 218.96 1.53 229.67 -1.03 232.00 3.00
C 232.65 2.09 234.73 1.79 234.00 0.00
L 0.00 0.00
L 0.00 344.00 Z"/>
</g>
<g fill="#FBFDFD" fill-opacity="1.00" stroke="None">
<path d="
M 232.00 3.00 
C 213.02 29.38 186.68 43.10 160.77 61.77 C 134.86 80.44 108.30 90.94 86.23 118.23 C 64.16 145.52 66.88 192.69 66.00 228.00 C 65.12 263.31 45.36 291.34 26.00 319.00
C 19.35 328.50 8.40 336.73 0.00 344.00
L 0.00 355.00
C 0.50 355.00 1.57 355.17 2.00 355.00
C 22.78 346.62 32.07 326.83 48.30 311.30 C 64.54 295.78 71.36 272.22 77.33 250.33 C 83.30 228.43 81.92 190.98 87.00 169.00 C 92.08 147.02 105.93 129.22 123.25 115.25 C 140.56 101.28 158.52 90.58 177.23 79.23 C 195.94 67.88 212.48 54.16 230.00 41.00
C 241.40 28.76 258.13 15.80 267.00 0.00
L 234.00 0.00
C 234.73 1.79 232.65 2.09 232.00 3.00 Z"/>
</g>
<g fill="#D1E1EF" fill-opacity="1.00" stroke="None">
<path d="
M 230.00 41.00 
C 239.57 33.81 245.38 28.40 253.75 18.75 C 262.12 9.11 267.58 -1.61 283.00 1.00 C 298.42 3.61 314.52 -0.20 330.00 1.00 C 345.48 2.20 360.48 0.47 376.00 1.00 C 391.52 1.53 407.44 0.76 423.00 1.00 C 438.56 1.24 454.46 0.90 470.00 1.00 C 485.54 1.10 500.45 0.98 516.00 1.00 C 531.55 1.02 547.42 1.04 563.00 1.00 C 578.58 0.96 594.45 1.12 610.00 1.00 C 625.55 0.88 640.46 1.29 656.00 1.00 C 671.54 0.71 687.44 1.63 703.00 1.00 C 718.56 0.37 734.50 2.40 750.00 1.00
C 750.11 0.53 750.00 0.00 750.00 0.00
L 267.00 0.00
C 258.13 15.80 241.40 28.76 230.00 41.00 Z"/>
</g>
<g fill="#FBECD8" fill-opacity="1.00" stroke="None">
<path d="
M 750.00 1.00 
C 744.08 26.25 725.24 48.66 709.25 69.25 C 693.25 89.83 673.44 105.39 652.25 121.25 C 631.06 137.11 606.81 149.35 581.78 159.78 C 556.75 170.21 528.20 180.33 500.31 187.31 C 472.41 194.29 441.16 202.85 411.93 207.93 C 382.69 213.00 351.99 221.51 324.00 230.00
C 327.81 231.26 332.85 238.22 337.75 240.25 C 342.64 242.29 347.12 247.12 351.25 250.75 C 355.38 254.39 359.70 258.24 363.75 262.25 C 367.79 266.27 370.82 271.52 373.92 276.08 C 377.02 280.63 382.01 285.44 383.26 290.74 C 384.50 296.05 390.54 302.47 389.99 308.01 C 389.45 313.55 395.94 324.26 393.00 329.00
C 413.50 324.83 439.52 327.42 459.67 329.33 C 479.82 331.24 499.13 336.17 516.75 344.25 C 534.36 352.34 545.78 359.11 560.75 372.25 C 575.72 385.38 578.35 402.86 583.78 421.22 C 589.20 439.59 594.09 457.68 598.93 477.07 C 603.76 496.47 602.34 523.43 599.22 543.22 C 596.10 563.01 585.33 574.64 572.77 588.77 C 560.21 602.90 543.85 608.03 530.00 616.00
C 538.54 613.19 547.32 609.59 555.08 605.08 C 562.84 600.58 569.33 595.41 575.75 588.75 C 582.17 582.10 587.00 576.75 591.77 568.77 C 596.54 560.79 598.70 550.49 601.00 541.00 C 603.30 531.51 612.43 544.31 619.25 548.75 C 626.07 553.19 629.99 562.46 636.75 568.25 C 643.51 574.03 645.45 582.58 649.92 591.08 C 654.40 599.57 657.43 608.73 659.33 618.67 C 661.23 628.61 664.46 640.08 664.00 651.00 C 663.54 661.93 663.93 674.85 662.00 685.00 C 660.07 695.16 658.26 705.95 655.00 715.00 C 651.74 724.05 647.86 730.66 642.75 738.75 C 637.63 746.83 632.94 752.80 627.75 760.75 C 622.56 768.70 615.35 771.38 608.75 777.75 C 602.16 784.12 594.08 788.28 585.33 791.33 C 576.57 794.38 567.31 799.39 557.00 799.00 C 546.69 798.61 533.38 798.01 523.99 795.01 C 514.61 792.01 506.00 788.67 497.77 784.23 C 489.54 779.79 483.03 775.75 476.30 769.70 C 469.57 763.65 463.40 758.29 457.25 751.75 C 451.09 745.21 447.14 738.47 441.23 731.77 C 435.32 725.07 429.98 717.90 426.08 709.92 C 422.19 701.94 416.29 693.86 414.22 685.78 C 412.15 677.70 406.01 665.42 405.22 657.78 C 404.43 650.14 395.58 631.09 405.00 629.00
C 376.46 628.18 347.70 616.19 324.92 597.08 C 302.14 577.98 294.75 546.63 287.00 520.00
C 288.59 529.02 283.13 532.66 276.25 537.25 C 269.37 541.83 265.62 545.79 258.77 549.77 C 251.92 553.75 246.41 556.76 239.30 560.31 C 232.20 563.85 225.52 566.12 217.99 568.99 C 210.46 571.86 202.45 574.01 194.00 575.00 C 185.55 575.99 174.96 577.46 166.00 577.00 C 157.04 576.54 147.02 575.69 138.78 574.22 C 130.54 572.76 122.89 569.26 115.32 567.68 C 107.75 566.09 101.79 558.63 95.00 558.00
C 93.20 558.61 91.92 558.66 90.00 559.00
C 60.23 564.21 31.19 574.81 0.00 575.00
L 0.00 1306.00
L 586.00 1306.00
C 600.28 1286.76 618.35 1270.89 628.31 1249.31 C 638.26 1227.72 660.01 1215.71 676.25 1198.25 C 692.48 1180.79 706.76 1161.70 720.30 1142.30 C 733.85 1122.91 752.71 1109.10 770.75 1093.75 C 788.80 1078.40 811.51 1067.48 832.68 1056.68 C 853.85 1045.88 876.64 1032.90 898.23 1022.23 C 919.82 1011.55 941.36 999.14 962.23 987.23 C 983.10 975.33 1002.99 962.91 1022.08 948.08 C 1041.17 933.25 1060.44 919.87 1080.00 906.00
C 1074.53 928.83 1056.61 947.32 1038.75 962.75 C 1020.90 978.19 1005.90 995.02 990.75 1012.75 C 975.60 1030.47 960.60 1047.59 945.70 1065.70 C 930.80 1083.81 914.94 1098.68 898.25 1116.25 C 881.55 1133.82 864.46 1146.86 845.75 1162.75 C 827.05 1178.65 800.04 1187.14 775.78 1190.78 C 751.52 1194.42 734.23 1214.91 713.25 1226.25 C 692.28 1237.60 674.42 1255.23 650.77 1261.77 C 627.13 1268.32 610.39 1285.66 596.00 1306.00
L 813.00 1306.00
C 824.35 1256.43 873.30 1223.88 922.00 1220.00
C 922.79 1231.27 918.94 1243.39 922.00 1254.00
C 922.00 1207.57 935.37 1167.13 973.25 1138.25 C 1011.12 1109.37 1053.12 1097.40 1101.00 1098.00 C 1148.88 1098.60 1193.26 1109.27 1231.25 1135.75 C 1269.23 1162.23 1289.99 1204.64 1282.00 1251.00
C 1285.42 1243.25 1299.92 1243.73 1306.00 1239.00 C 1312.09 1234.27 1322.01 1230.87 1327.75 1224.75 C 1333.50 1218.63 1341.94 1214.63 1348.23 1208.23 C 1354.52 1201.83 1359.06 1195.64 1364.92 1188.92 C 1370.77 1182.19 1372.60 1174.25 1377.25 1167.25 C 1381.90 1160.24 1387.49 1151.58 1389.77 1142.77 C 1392.05 1133.96 1393.23 1122.70 1397.32 1114.32 C 1401.42 1105.94 1402.39 1094.61 1407.00 1087.00
C 1410.10 1078.81 1405.90 1068.69 1404.22 1060.78 C 1402.55 1052.87 1399.61 1044.09 1396.07 1036.93 C 1392.54 1029.76 1388.20 1023.55 1384.23 1016.77 C 1380.26 1010.00 1375.54 1004.35 1371.23 997.77 C 1366.92 991.19 1362.49 985.49 1358.23 978.77 C 1353.97 972.05 1349.59 966.10 1346.03 958.97 C 1342.47 951.84 1338.75 944.70 1336.22 936.78 C 1333.69 928.86 1331.16 918.71 1331.00 910.00 C 1330.85 901.29 1332.49 890.87 1334.93 882.93 C 1337.37 874.99 1339.59 866.50 1343.32 859.32 C 1347.06 852.15 1350.38 845.35 1354.92 838.92 C 1359.46 832.49 1363.44 826.75 1369.25 821.25 C 1375.05 815.74 1380.15 811.39 1386.70 806.70 C 1393.25 802.01 1400.29 799.06 1408.03 796.03 C 1415.76 792.99 1424.35 790.30 1433.00 789.00 C 1441.66 787.71 1452.82 785.43 1462.00 786.00 C 1471.19 786.57 1482.46 786.83 1491.01 788.99 C 1499.56 791.16 1507.64 792.85 1515.68 795.32 C 1523.71 797.80 1530.73 801.68 1538.07 804.93 C 1545.42 808.17 1551.36 813.00 1558.23 816.77 C 1565.10 820.54 1570.53 825.62 1576.75 830.25 C 1582.97 834.88 1587.48 840.39 1593.25 845.75 C 1599.02 851.12 1603.08 857.30 1607.75 863.25 C 1612.42 869.19 1617.34 875.84 1620.32 882.68 C 1623.31 889.52 1629.44 897.48 1629.93 905.07 C 1630.41 912.67 1637.68 924.52 1635.00 932.00
C 1648.21 925.89 1663.59 919.60 1673.77 908.77 C 1683.95 897.94 1695.48 889.22 1705.10 878.10 C 1714.72 866.98 1722.37 853.55 1731.30 841.30 C 1740.24 829.05 1748.26 816.62 1753.97 801.97 C 1759.68 787.32 1765.07 771.46 1770.33 756.33 C 1775.59 741.20 1782.73 725.85 1786.78 709.78 C 1790.82 693.71 1798.62 676.40 1798.00 659.00 C 1797.38 641.60 1809.72 624.55 1810.00 608.00
C 1797.52 585.12 1792.99 558.60 1775.23 537.77 C 1757.47 516.94 1743.17 501.99 1717.77 490.23 C 1692.37 478.46 1666.56 469.16 1636.33 466.67 C 1606.10 464.19 1566.36 464.35 1535.00 467.00 C 1503.65 469.64 1467.41 471.68 1436.00 474.00 C 1404.59 476.32 1365.88 474.72 1336.78 470.22 C 1307.68 465.72 1280.46 459.11 1256.31 445.69 C 1232.16 432.28 1216.05 417.25 1203.23 393.77 C 1190.41 370.29 1182.26 343.08 1173.00 318.00
C 1126.96 351.20 1078.49 383.72 1036.25 423.25 C 994.01 462.78 956.87 504.85 915.00 544.00
C 928.60 504.07 963.94 474.61 986.25 439.25 C 1008.56 403.89 1029.74 365.67 1055.77 332.77 C 1081.80 299.87 1112.02 270.31 1146.00 247.00
C 1110.62 163.08 1089.95 70.34 1026.00 0.00
L 750.00 0.00
C 750.00 0.00 750.11 0.53 750.00 1.00
M 600.00 1079.00 
C 596.43 1071.79 603.73 1060.38 603.78 1052.78 C 603.83 1045.17 607.27 1034.71 609.31 1027.31 C 611.34 1019.90 614.44 1011.44 617.32 1004.32 C 620.20 997.21 623.68 990.71 626.92 983.92 C 630.17 977.14 633.97 970.44 638.30 964.30 C 642.64 958.17 646.99 952.24 651.25 946.25 C 655.51 940.25 659.80 935.24 664.75 929.75 C 669.71 924.26 674.27 918.65 680.08 914.08 C 685.89 909.52 691.23 904.39 697.23 900.23 C 703.23 896.07 709.00 891.93 715.70 888.70 C 722.39 885.46 728.51 880.46 735.23 877.23 C 741.95 874.00 748.14 869.43 754.25 865.25 C 760.36 861.07 766.01 857.87 771.25 852.25 C 776.49 846.62 781.47 842.15 786.25 836.25 C 791.02 830.35 794.58 823.85 798.32 817.32 C 802.06 810.79 806.78 803.70 808.00 796.00
C 808.78 827.54 799.80 865.99 778.08 890.08 C 756.36 914.17 734.82 928.50 717.08 955.08 C 699.33 981.66 686.11 1013.03 681.22 1045.22 C 676.33 1077.42 656.82 1105.58 643.00 1134.00
C 645.16 1156.27 648.56 1183.73 642.02 1205.02 C 635.49 1226.32 623.22 1235.53 604.31 1245.31 C 585.39 1255.08 565.99 1260.73 543.78 1262.78 C 521.57 1264.83 493.78 1261.18 473.78 1255.22 C 453.78 1249.27 438.42 1240.37 421.75 1229.25 C 405.09 1218.12 394.49 1205.96 379.25 1192.75 C 364.01 1179.54 348.57 1172.15 329.78 1164.22 C 310.98 1156.29 284.68 1163.45 268.77 1174.77 C 252.86 1186.09 231.10 1196.79 211.93 1192.07 C 192.75 1187.35 179.26 1175.10 167.25 1158.75 C 155.24 1142.41 146.98 1126.38 140.22 1106.78 C 133.47 1087.17 132.13 1058.77 132.00 1037.00 C 131.87 1015.23 126.82 990.88 119.23 971.77 C 111.64 952.66 102.52 938.30 91.75 921.25 C 80.98 904.20 72.66 890.03 64.23 870.77 C 55.80 851.51 53.43 824.22 54.93 802.93 C 56.42 781.63 62.35 759.70 71.77 741.77 C 81.19 723.84 89.55 710.66 105.25 697.25 C 120.94 683.83 133.72 675.73 154.23 668.23 C 174.74 660.72 192.22 651.59 217.07 654.93 C 241.93 658.26 234.27 689.14 227.07 708.07 C 219.87 727.00 215.78 750.04 212.01 771.01 C 208.24 791.97 215.74 817.32 226.31 834.70 C 236.87 852.07 250.71 861.97 269.23 869.77 C 287.75 877.57 307.44 883.83 327.67 889.33 C 347.91 894.82 371.64 899.63 393.07 902.93 C 414.51 906.23 440.80 908.59 462.02 911.98 C 483.25 915.36 505.04 920.11 524.08 927.92 C 543.12 935.73 558.92 941.75 568.92 961.08 C 578.92 980.41 567.29 1009.98 569.93 1030.07 C 572.56 1050.16 581.66 1068.89 600.00 1079.00 Z"/>
</g>
<g fill="#DEC7AA" fill-opacity="1.00" stroke="None">
<path d="
M 1146.00 247.00 
C 1155.87 270.41 1164.18 294.10 1173.00 318.00
C 1182.26 343.08 1190.41 370.29 1203.23 393.77 C 1216.05 417.25 1232.16 432.28 1256.31 445.69 C 1280.46 459.11 1307.68 465.72 1336.78 470.22 C 1365.88 474.72 1404.59 476.32 1436.00 474.00 C 1467.41 471.68 1503.65 469.64 1535.00 467.00 C 1566.36 464.35 1606.10 464.19 1636.33 466.67 C 1666.56 469.16 1692.37 478.46 1717.77 490.23 C 1743.17 501.99 1757.47 516.94 1775.23 537.77 C 1792.99 558.60 1797.52 585.12 1810.00 608.00
C 1827.65 640.36 1835.88 678.06 1862.75 706.25 C 1889.62 734.43 1923.63 753.45 1960.00 761.00
L 1960.00 754.00
C 1923.80 745.01 1889.72 726.68 1864.75 697.25 C 1839.78 667.83 1827.38 630.38 1814.00 595.00
C 1802.90 565.66 1789.72 540.61 1767.25 516.75 C 1744.78 492.89 1720.85 480.43 1688.93 470.07 C 1657.00 459.71 1613.82 455.20 1577.00 457.00 C 1540.18 458.80 1496.00 461.95 1459.00 464.00 C 1422.00 466.05 1375.90 469.84 1340.33 463.67 C 1304.76 457.50 1276.32 451.11 1247.00 431.00
C 1231.03 420.05 1214.56 402.52 1207.00 385.00
C 1197.75 363.58 1185.59 339.67 1181.00 317.00
C 1171.70 290.84 1160.03 264.39 1151.00 238.00
C 1145.70 222.51 1139.68 207.39 1134.00 192.00
C 1128.19 176.27 1120.84 160.81 1115.00 145.00
C 1095.98 93.47 1073.59 42.53 1037.00 0.00
L 1026.00 0.00
C 1089.95 70.34 1110.62 163.08 1146.00 247.00 Z"/>
</g>
<g fill="#FFF1DE" fill-opacity="1.00" stroke="None">
<path d="
M 1115.00 145.00 
C 1118.72 148.28 1126.67 138.26 1131.23 136.23 C 1135.79 134.20 1142.38 127.91 1147.25 124.25 C 1152.11 120.58 1158.48 116.70 1164.23 113.23 C 1169.98 109.76 1175.94 106.42 1182.70 103.69 C 1189.45 100.97 1197.79 99.18 1206.00 100.00 C 1214.21 100.82 1222.54 102.23 1231.00 103.00 C 1239.46 103.77 1248.08 105.29 1257.00 105.00 C 1265.92 104.71 1274.32 104.26 1283.00 103.00 C 1291.68 101.75 1300.97 101.97 1310.00 102.00
C 1299.01 66.41 1276.27 35.93 1263.00 1.00
C 1348.00 1.00 1433.00 1.00 1518.00 1.00
C 1518.00 0.50 1518.00 0.00 1518.00 0.00
L 1037.00 0.00
C 1073.59 42.53 1095.98 93.47 1115.00 145.00 Z"/>
</g>
<g fill="#FEFEFD" fill-opacity="1.00" stroke="None">
<path d="
M 1518.00 1.00 
C 1518.00 27.01 1512.10 62.44 1519.99 87.01 C 1527.89 111.57 1531.71 130.40 1550.75 149.25 C 1569.79 168.10 1601.11 165.79 1627.00 164.00 C 1652.89 162.21 1684.38 167.21 1706.70 177.30 C 1729.02 187.40 1741.87 200.82 1755.92 220.08 C 1769.97 239.34 1782.98 252.90 1804.70 264.31 C 1826.41 275.71 1856.52 280.60 1883.00 279.00 C 1909.48 277.40 1935.48 271.79 1960.00 263.00
L 1960.00 238.00
C 1924.59 250.99 1878.63 256.59 1841.99 249.01 C 1805.35 241.42 1784.22 220.11 1761.75 191.25 C 1739.28 162.38 1704.36 147.41 1668.00 148.00 C 1631.63 148.60 1581.33 155.86 1562.23 117.77 C 1543.13 79.68 1541.11 42.53 1546.00 0.00
L 1518.00 0.00
C 1518.00 0.00 1518.00 0.50 1518.00 1.00 Z"/>
</g>
<g fill="#F6E0CA" fill-opacity="1.00" stroke="None">
<path d="
M 1960.00 238.00 
L 1960.00 61.00
C 1930.65 74.40 1894.80 78.96 1872.25 105.25 C 1849.70 131.54 1836.74 159.45 1825.00 191.00
C 1811.58 189.23 1823.88 174.36 1826.78 165.78 C 1829.67 157.19 1835.87 146.58 1839.92 137.92 C 1843.98 129.27 1850.00 120.77 1855.75 112.75 C 1861.50 104.74 1868.24 98.47 1875.75 91.75 C 1883.27 85.03 1891.10 79.74 1900.08 75.08 C 1909.06 70.43 1920.30 67.41 1930.22 64.22 C 1940.14 61.04 1951.10 57.95 1960.00 52.00
L 1960.00 23.00
C 1952.78 28.17 1948.88 35.57 1941.25 40.25 C 1933.63 44.94 1924.57 48.91 1915.98 51.98 C 1907.38 55.04 1896.40 57.42 1887.98 60.98 C 1879.56 64.53 1871.20 68.46 1863.92 73.92 C 1856.65 79.39 1851.87 85.80 1845.25 92.25 C 1838.62 98.70 1835.40 106.17 1830.08 114.08 C 1824.75 121.98 1820.92 128.03 1816.70 137.69 C 1812.47 147.36 1808.29 150.91 1805.07 163.07 C 1801.85 175.24 1791.43 171.96 1797.77 160.77 C 1804.11 149.58 1804.02 144.54 1808.93 134.93 C 1813.84 125.32 1816.92 119.27 1821.92 110.92 C 1826.92 102.58 1831.65 96.82 1837.75 89.75 C 1843.86 82.68 1848.96 76.98 1856.08 71.08 C 1863.21 65.19 1870.12 60.30 1878.70 56.69 C 1887.27 53.09 1896.98 49.63 1906.00 47.00
C 1908.02 46.16 1909.64 45.67 1912.00 45.00
C 1930.54 37.46 1949.47 27.78 1960.00 9.00
L 1960.00 0.00
L 1939.00 0.00
C 1916.78 37.35 1870.38 33.62 1838.75 57.75 C 1807.13 81.89 1791.92 120.18 1777.00 155.00
C 1774.56 154.74 1772.48 153.24 1770.00 153.00
C 1782.77 116.67 1800.17 83.75 1829.08 56.08 C 1857.99 28.41 1904.55 32.67 1930.00 0.00
L 1900.00 0.00
C 1871.89 21.81 1831.28 19.94 1805.25 46.25 C 1779.21 72.56 1765.66 102.91 1753.00 136.00
C 1750.28 136.63 1748.59 133.93 1746.00 134.00
C 1757.30 101.06 1771.44 73.12 1794.75 45.75 C 1818.07 18.38 1856.01 14.38 1886.00 0.00
L 1546.00 0.00
C 1541.11 42.53 1543.13 79.68 1562.23 117.77 C 1581.33 155.86 1631.63 148.60 1668.00 148.00 C 1704.36 147.41 1739.28 162.38 1761.75 191.25 C 1784.22 220.11 1805.35 241.42 1841.99 249.01 C 1878.63 256.59 1924.59 250.99 1960.00 238.00 Z"/>
</g>
<g fill="#8FA2B3" fill-opacity="1.00" stroke="None">
<path d="
M 1900.00 0.00 
L 1886.00 0.00
C 1856.01 14.38 1818.07 18.38 1794.75 45.75 C 1771.44 73.12 1757.30 101.06 1746.00 134.00
C 1748.59 133.93 1750.28 136.63 1753.00 136.00
C 1765.66 102.91 1779.21 72.56 1805.25 46.25 C 1831.28 19.94 1871.89 21.81 1900.00 0.00 Z"/>
</g>
<g fill="#8FA2B3" fill-opacity="1.00" stroke="None">
<path d="
M 1939.00 0.00 
L 1930.00 0.00
C 1904.55 32.67 1857.99 28.41 1829.08 56.08 C 1800.17 83.75 1782.77 116.67 1770.00 153.00
C 1772.48 153.24 1774.56 154.74 1777.00 155.00
C 1791.92 120.18 1807.13 81.89 1838.75 57.75 C 1870.38 33.62 1916.78 37.35 1939.00 0.00 Z"/>
</g>
<g fill="#A4BCD2" fill-opacity="1.00" stroke="None">
<path d="
M 26.00 319.00 
C 45.36 291.34 65.12 263.31 66.00 228.00 C 66.88 192.69 64.16 145.52 86.23 118.23 C 108.30 90.94 134.86 80.44 160.77 61.77 C 186.68 43.10 213.02 29.38 232.00 3.00
C 229.67 -1.03 218.96 1.53 212.00 1.00 C 205.04 0.47 196.46 1.23 189.00 1.00 C 181.54 0.77 172.66 1.11 165.00 1.00 C 157.34 0.89 149.77 1.05 142.00 1.00 C 134.23 0.95 125.81 1.02 118.00 1.00 C 110.19 0.98 102.83 1.01 95.00 1.00 C 87.17 0.99 78.83 1.00 71.00 1.00 C 63.17 1.00 55.83 1.00 48.00 1.00 C 40.17 1.00 31.81 1.00 24.00 1.00 C 16.19 1.00 8.78 1.00 1.00 1.00
C 1.00 115.00 1.00 229.00 1.00 343.00
C 8.53 334.68 18.84 327.71 26.00 319.00 Z"/>
</g>
<g fill="#A3BBD1" fill-opacity="1.00" stroke="None">
<path d="
M 230.00 41.00 
C 212.48 54.16 195.94 67.88 177.23 79.23 C 158.52 90.58 140.56 101.28 123.25 115.25 C 105.93 129.22 92.08 147.02 87.00 169.00 C 81.92 190.98 83.30 228.43 77.33 250.33 C 71.36 272.22 64.54 295.78 48.30 311.30 C 32.07 326.83 22.78 346.62 2.00 355.00
C 3.58 368.59 -0.34 383.69 1.00 398.00 C 2.34 412.31 0.44 427.51 1.00 442.00 C 1.56 456.49 0.84 471.44 1.00 486.00 C 1.16 500.56 1.13 515.44 1.00 530.00 C 0.87 544.56 1.93 560.28 0.00 574.00
L 0.00 575.00
C 31.19 574.81 60.23 564.21 90.00 559.00
C 93.28 557.79 95.25 556.97 99.00 556.00
C 140.13 538.76 182.38 520.51 202.77 476.77 C 223.16 433.04 231.78 378.28 240.78 330.78 C 249.77 283.28 277.19 244.21 324.00 230.00
C 351.99 221.51 382.69 213.00 411.93 207.93 C 441.16 202.85 472.41 194.29 500.31 187.31 C 528.20 180.33 556.75 170.21 581.78 159.78 C 606.81 149.35 631.06 137.11 652.25 121.25 C 673.44 105.39 693.25 89.83 709.25 69.25 C 725.24 48.66 744.08 26.25 750.00 1.00
C 734.50 2.40 718.56 0.37 703.00 1.00 C 687.44 1.63 671.54 0.71 656.00 1.00 C 640.46 1.29 625.55 0.88 610.00 1.00 C 594.45 1.12 578.58 0.96 563.00 1.00 C 547.42 1.04 531.55 1.02 516.00 1.00 C 500.45 0.98 485.54 1.10 470.00 1.00 C 454.46 0.90 438.56 1.24 423.00 1.00 C 407.44 0.76 391.52 1.53 376.00 1.00 C 360.48 0.47 345.48 2.20 330.00 1.00 C 314.52 -0.20 298.42 3.61 283.00 1.00 C 267.58 -1.61 262.12 9.11 253.75 18.75 C 245.38 28.40 239.57 33.81 230.00 41.00 Z"/>
</g>
<g fill="#F4DBC3" fill-opacity="1.00" stroke="None">
<path d="
M 1115.00 145.00 
C 1120.84 160.81 1128.19 176.27 1134.00 192.00
C 1135.56 185.58 1148.59 184.11 1153.08 179.08 C 1157.57 174.06 1166.16 170.26 1172.08 166.08 C 1177.99 161.89 1184.86 157.35 1191.70 153.70 C 1198.53 150.04 1205.59 145.33 1213.23 142.23 C 1220.87 139.13 1228.72 136.62 1237.08 134.08 C 1245.43 131.53 1258.94 133.47 1268.00 133.00 C 1277.06 132.53 1285.00 129.50 1292.74 125.74 C 1300.49 121.99 1307.48 118.94 1315.00 115.00
C 1315.00 116.00 1315.00 117.00 1315.00 118.00
C 1342.33 108.89 1373.84 115.17 1392.75 138.25 C 1411.67 161.33 1431.22 170.82 1454.70 185.31 C 1478.17 199.79 1497.72 210.30 1518.25 230.75 C 1538.77 251.21 1552.04 279.78 1546.00 310.00
C 1575.23 315.75 1584.36 344.26 1600.30 365.70 C 1616.25 387.13 1632.88 404.82 1656.23 419.77 C 1679.57 434.72 1712.71 448.64 1743.00 444.00 C 1773.29 439.36 1805.10 432.40 1835.00 426.00 C 1864.90 419.61 1893.39 410.23 1923.00 403.00
C 1912.72 415.82 1900.00 425.79 1892.00 439.00
C 1913.72 416.85 1932.85 390.45 1960.00 374.00
L 1960.00 263.00
C 1935.48 271.79 1909.48 277.40 1883.00 279.00 C 1856.52 280.60 1826.41 275.71 1804.70 264.31 C 1782.98 252.90 1769.97 239.34 1755.92 220.08 C 1741.87 200.82 1729.02 187.40 1706.70 177.30 C 1684.38 167.21 1652.89 162.21 1627.00 164.00 C 1601.11 165.79 1569.79 168.10 1550.75 149.25 C 1531.71 130.40 1527.89 111.57 1519.99 87.01 C 1512.10 62.44 1518.00 27.01 1518.00 1.00
C 1433.00 1.00 1348.00 1.00 1263.00 1.00
C 1276.27 35.93 1299.01 66.41 1310.00 102.00
C 1300.97 101.97 1291.68 101.75 1283.00 103.00 C 1274.32 104.26 1265.92 104.71 1257.00 105.00 C 1248.08 105.29 1239.46 103.77 1231.00 103.00 C 1222.54 102.23 1214.21 100.82 1206.00 100.00 C 1197.79 99.18 1189.45 100.97 1182.70 103.69 C 1175.94 106.42 1169.98 109.76 1164.23 113.23 C 1158.48 116.70 1152.11 120.58 1147.25 124.25 C 1142.38 127.91 1135.79 134.20 1131.23 136.23 C 1126.67 138.26 1118.72 148.28 1115.00 145.00 Z"/>
</g>
<g fill="#90A2B3" fill-opacity="1.00" stroke="None">
<path d="
M 1912.00 45.00 
C 1910.14 45.76 1908.17 46.37 1906.00 47.00
C 1896.98 49.63 1887.27 53.09 1878.70 56.69 C 1870.12 60.30 1863.21 65.19 1856.08 71.08 C 1848.96 76.98 1843.86 82.68 1837.75 89.75 C 1831.65 96.82 1826.92 102.58 1821.92 110.92 C 1816.92 119.27 1813.84 125.32 1808.93 134.93 C 1804.02 144.54 1804.11 149.58 1797.77 160.77 C 1791.43 171.96 1801.85 175.24 1805.07 163.07 C 1808.29 150.91 1812.47 147.36 1816.70 137.69 C 1820.92 128.03 1824.75 121.98 1830.08 114.08 C 1835.40 106.17 1838.62 98.70 1845.25 92.25 C 1851.87 85.80 1856.65 79.39 1863.92 73.92 C 1871.20 68.46 1879.56 64.53 1887.98 60.98 C 1896.40 57.42 1907.38 55.04 1915.98 51.98 C 1924.57 48.91 1933.63 44.94 1941.25 40.25 C 1948.88 35.57 1952.78 28.17 1960.00 23.00
L 1960.00 9.00
C 1949.47 27.78 1930.54 37.46 1912.00 45.00 Z"/>
</g>
<g fill="#C1C4BD" fill-opacity="1.00" stroke="None">
<path d="
M 1906.00 47.00 
C 1908.17 46.37 1910.14 45.76 1912.00 45.00
C 1909.64 45.67 1908.02 46.16 1906.00 47.00 Z"/>
</g>
<g fill="#8FA2B3" fill-opacity="1.00" stroke="None">
<path d="
M 1960.00 61.00 
L 1960.00 52.00
C 1951.10 57.95 1940.14 61.04 1930.22 64.22 C 1920.30 67.41 1909.06 70.43 1900.08 75.08 C 1891.10 79.74 1883.27 85.03 1875.75 91.75 C 1868.24 98.47 1861.50 104.74 1855.75 112.75 C 1850.00 120.77 1843.98 129.27 1839.92 137.92 C 1835.87 146.58 1829.67 157.19 1826.78 165.78 C 1823.88 174.36 1811.58 189.23 1825.00 191.00
C 1836.74 159.45 1849.70 131.54 1872.25 105.25 C 1894.80 78.96 1930.65 74.40 1960.00 61.00 Z"/>
</g>
<g fill="#FFC1AD" fill-opacity="1.00" stroke="None">
<path d="
M 1315.00 118.00 
C 1287.08 127.31 1265.23 154.02 1256.00 181.00
C 1250.35 197.52 1248.81 215.54 1252.00 233.00
C 1255.45 251.87 1260.51 268.33 1270.00 285.00
C 1281.62 305.42 1303.39 324.71 1322.00 340.00
C 1346.55 357.18 1368.81 368.90 1398.07 375.93 C 1427.34 382.95 1465.65 380.97 1492.08 368.08 C 1518.50 355.18 1540.18 339.08 1546.00 310.00
C 1552.04 279.78 1538.77 251.21 1518.25 230.75 C 1497.72 210.30 1478.17 199.79 1454.70 185.31 C 1431.22 170.82 1411.67 161.33 1392.75 138.25 C 1373.84 115.17 1342.33 108.89 1315.00 118.00 Z"/>
</g>
<g fill="#FEF0DD" fill-opacity="1.00" stroke="None">
<path d="
M 1134.00 192.00 
C 1139.68 207.39 1145.70 222.51 1151.00 238.00
C 1151.58 239.12 1153.45 240.24 1153.00 242.00
C 1172.74 237.32 1194.48 230.63 1210.08 217.08 C 1225.68 203.53 1239.99 193.32 1256.00 181.00
C 1265.23 154.02 1287.08 127.31 1315.00 118.00
C 1315.00 117.00 1315.00 116.00 1315.00 115.00
C 1307.48 118.94 1300.49 121.99 1292.74 125.74 C 1285.00 129.50 1277.06 132.53 1268.00 133.00 C 1258.94 133.47 1245.43 131.53 1237.08 134.08 C 1228.72 136.62 1220.87 139.13 1213.23 142.23 C 1205.59 145.33 1198.53 150.04 1191.70 153.70 C 1184.86 157.35 1177.99 161.89 1172.08 166.08 C 1166.16 170.26 1157.57 174.06 1153.08 179.08 C 1148.59 184.11 1135.56 185.58 1134.00 192.00 Z"/>
</g>
<g fill="#F4DCC4" fill-opacity="1.00" stroke="None">
<path d="
M 1151.00 238.00 
C 1160.03 264.39 1171.70 290.84 1181.00 317.00
C 1179.17 307.97 1190.72 302.65 1196.75 295.75 C 1202.79 288.86 1209.88 282.80 1215.75 275.75 C 1221.63 268.70 1227.61 261.55 1233.30 254.30 C 1238.99 247.05 1245.11 238.36 1252.00 233.00
C 1248.81 215.54 1250.35 197.52 1256.00 181.00
C 1239.99 193.32 1225.68 203.53 1210.08 217.08 C 1194.48 230.63 1172.74 237.32 1153.00 242.00
C 1153.45 240.24 1151.58 239.12 1151.00 238.00 Z"/>
</g>
<g fill="#F4DCC4" fill-opacity="1.00" stroke="None">
<path d="
M 99.00 556.00 
C 97.89 556.47 96.41 557.52 95.00 558.00
C 101.79 558.63 107.75 566.09 115.32 567.68 C 122.89 569.26 130.54 572.76 138.78 574.22 C 147.02 575.69 157.04 576.54 166.00 577.00 C 174.96 577.46 185.55 575.99 194.00 575.00 C 202.45 574.01 210.46 571.86 217.99 568.99 C 225.52 566.12 232.20 563.85 239.30 560.31 C 246.41 556.76 251.92 553.75 258.77 549.77 C 265.62 545.79 269.37 541.83 276.25 537.25 C 283.13 532.66 288.59 529.02 287.00 520.00
C 279.78 478.90 270.11 423.19 293.77 386.77 C 317.43 350.35 353.85 336.97 393.00 329.00
C 395.94 324.26 389.45 313.55 389.99 308.01 C 390.54 302.47 384.50 296.05 383.26 290.74 C 382.01 285.44 377.02 280.63 373.92 276.08 C 370.82 271.52 367.79 266.27 363.75 262.25 C 359.70 258.24 355.38 254.39 351.25 250.75 C 347.12 247.12 342.64 242.29 337.75 240.25 C 332.85 238.22 327.81 231.26 324.00 230.00
C 277.19 244.21 249.77 283.28 240.78 330.78 C 231.78 378.28 223.16 433.04 202.77 476.77 C 182.38 520.51 140.13 538.76 99.00 556.00 Z"/>
</g>
<g fill="#FEF0DD" fill-opacity="1.00" stroke="None">
<path d="
M 1181.00 317.00 
C 1185.59 339.67 1197.75 363.58 1207.00 385.00
C 1208.05 386.93 1210.46 389.37 1212.00 391.00
C 1228.63 354.38 1242.90 316.06 1270.00 285.00
C 1260.51 268.33 1255.45 251.87 1252.00 233.00
C 1245.11 238.36 1238.99 247.05 1233.30 254.30 C 1227.61 261.55 1221.63 268.70 1215.75 275.75 C 1209.88 282.80 1202.79 288.86 1196.75 295.75 C 1190.72 302.65 1179.17 307.97 1181.00 317.00 Z"/>
</g>
<g fill="#F4DCC4" fill-opacity="1.00" stroke="None">
<path d="
M 1173.00 318.00 
C 1164.18 294.10 1155.87 270.41 1146.00 247.00
C 1112.02 270.31 1081.80 299.87 1055.77 332.77 C 1029.74 365.67 1008.56 403.89 986.25 439.25 C 963.94 474.61 928.60 504.07 915.00 544.00
C 956.87 504.85 994.01 462.78 1036.25 423.25 C 1078.49 383.72 1126.96 351.20 1173.00 318.00 Z"/>
</g>
<g fill="#F4DCC4" fill-opacity="1.00" stroke="None">
<path d="
M 1207.00 385.00 
C 1214.56 402.52 1231.03 420.05 1247.00 431.00
C 1238.77 423.82 1251.68 414.26 1256.25 406.25 C 1260.83 398.24 1268.53 388.94 1272.92 379.92 C 1277.31 370.90 1283.59 361.33 1287.77 351.77 C 1291.95 342.21 1297.29 331.27 1300.00 321.00
C 1308.11 325.75 1313.99 334.79 1322.00 340.00
C 1303.39 324.71 1281.62 305.42 1270.00 285.00
C 1242.90 316.06 1228.63 354.38 1212.00 391.00
C 1210.46 389.37 1208.05 386.93 1207.00 385.00 Z"/>
</g>
<g fill="#FFF1DD" fill-opacity="1.00" stroke="None">
<path d="
M 1322.00 340.00 
C 1313.99 334.79 1308.11 325.75 1300.00 321.00
C 1297.29 331.27 1291.95 342.21 1287.77 351.77 C 1283.59 361.33 1277.31 370.90 1272.92 379.92 C 1268.53 388.94 1260.83 398.24 1256.25 406.25 C 1251.68 414.26 1238.77 423.82 1247.00 431.00
C 1276.32 451.11 1304.76 457.50 1340.33 463.67 C 1375.90 469.84 1422.00 466.05 1459.00 464.00 C 1496.00 461.95 1540.18 458.80 1577.00 457.00 C 1613.82 455.20 1657.00 459.71 1688.93 470.07 C 1720.85 480.43 1744.78 492.89 1767.25 516.75 C 1789.72 540.61 1802.90 565.66 1814.00 595.00
C 1814.53 583.74 1824.47 571.86 1825.98 559.98 C 1827.48 548.09 1835.59 538.66 1839.25 528.25 C 1842.90 517.84 1850.24 506.73 1854.26 496.26 C 1858.27 485.78 1867.45 477.60 1871.92 466.92 C 1876.39 456.25 1885.64 448.26 1892.00 439.00
C 1900.00 425.79 1912.72 415.82 1923.00 403.00
C 1893.39 410.23 1864.90 419.61 1835.00 426.00 C 1805.10 432.40 1773.29 439.36 1743.00 444.00 C 1712.71 448.64 1679.57 434.72 1656.23 419.77 C 1632.88 404.82 1616.25 387.13 1600.30 365.70 C 1584.36 344.26 1575.23 315.75 1546.00 310.00
C 1540.18 339.08 1518.50 355.18 1492.08 368.08 C 1465.65 380.97 1427.34 382.95 1398.07 375.93 C 1368.81 368.90 1346.55 357.18 1322.00 340.00 Z"/>
</g>
<g fill="#FEFEFD" fill-opacity="1.00" stroke="None">
<path d="
M 393.00 329.00 
C 353.85 336.97 317.43 350.35 293.77 386.77 C 270.11 423.19 279.78 478.90 287.00 520.00
C 294.75 546.63 302.14 577.98 324.92 597.08 C 347.70 616.19 376.46 628.18 405.00 629.00
C 448.12 630.25 490.01 629.15 530.00 616.00
C 543.85 608.03 560.21 602.90 572.77 588.77 C 585.33 574.64 596.10 563.01 599.22 543.22 C 602.34 523.43 603.76 496.47 598.93 477.07 C 594.09 457.68 589.20 439.59 583.78 421.22 C 578.35 402.86 575.72 385.38 560.75 372.25 C 545.78 359.11 534.36 352.34 516.75 344.25 C 499.13 336.17 479.82 331.24 459.67 329.33 C 439.52 327.42 413.50 324.83 393.00 329.00
M 575.00 519.00 
C 575.00 526.12 575.42 532.90 573.00 539.00
C 560.40 587.62 509.40 606.07 463.00 607.00
C 428.06 614.24 382.83 608.54 353.30 589.70 C 323.77 570.86 309.54 536.25 307.00 503.00
C 304.73 473.36 295.65 429.53 312.77 403.77 C 329.89 378.01 350.22 359.35 380.00 355.00
C 413.17 345.88 455.64 346.17 488.02 356.98 C 520.41 367.78 540.86 383.87 552.92 416.08 C 564.99 448.28 575.00 482.92 575.00 519.00 Z"/>
</g>
<g fill="#FEF0DD" fill-opacity="1.00" stroke="None">
<path d="
M 380.00 355.00 
C 384.14 354.40 387.70 352.99 392.00 353.00
C 383.03 412.03 349.74 464.39 309.00 508.00
C 306.80 507.26 309.31 503.67 307.00 503.00
C 309.54 536.25 323.77 570.86 353.30 589.70 C 382.83 608.54 428.06 614.24 463.00 607.00
C 443.06 607.40 422.58 609.44 403.00 606.00
C 404.83 563.08 438.18 519.67 481.00 512.00
C 485.19 510.55 492.16 507.01 498.07 506.07 C 503.99 505.14 512.47 506.44 519.00 506.00 C 525.53 505.56 534.07 507.40 540.00 508.00 C 545.93 508.60 553.60 510.64 558.22 512.78 C 562.84 514.92 572.59 514.76 575.00 519.00
C 575.00 482.92 564.99 448.28 552.92 416.08 C 540.86 383.87 520.41 367.78 488.02 356.98 C 455.64 346.17 413.17 345.88 380.00 355.00 Z"/>
</g>
<g fill="#F4DCC4" fill-opacity="1.00" stroke="None">
<path d="
M 380.00 355.00 
C 350.22 359.35 329.89 378.01 312.77 403.77 C 295.65 429.53 304.73 473.36 307.00 503.00
C 309.31 503.67 306.80 507.26 309.00 508.00
C 349.74 464.39 383.03 412.03 392.00 353.00
C 387.70 352.99 384.14 354.40 380.00 355.00 Z"/>
</g>
<g fill="#BDD6E6" fill-opacity="1.00" stroke="None">
<path d="
M 0.00 574.00 
C 1.93 560.28 0.87 544.56 1.00 530.00 C 1.13 515.44 1.16 500.56 1.00 486.00 C 0.84 471.44 1.56 456.49 1.00 442.00 C 0.44 427.51 2.34 412.31 1.00 398.00 C -0.34 383.69 3.58 368.59 2.00 355.00
C 1.57 355.17 0.50 355.00 0.00 355.00
L 0.00 574.00 Z"/>
</g>
<g fill="#FED991" fill-opacity="1.00" stroke="None">
<path d="
M 1892.00 439.00 
C 1885.64 448.26 1876.39 456.25 1871.92 466.92 C 1867.45 477.60 1858.27 485.78 1854.26 496.26 C 1850.24 506.73 1842.90 517.84 1839.25 528.25 C 1835.59 538.66 1827.48 548.09 1825.98 559.98 C 1824.47 571.86 1814.53 583.74 1814.00 595.00
C 1827.38 630.38 1839.78 667.83 1864.75 697.25 C 1889.72 726.68 1923.80 745.01 1960.00 754.00
L 1960.00 374.00
C 1932.85 390.45 1913.72 416.85 1892.00 439.00 Z"/>
</g>
<g fill="#FEEAC0" fill-opacity="1.00" stroke="None">
<path d="
M 481.00 512.00 
C 490.80 511.25 497.91 507.60 508.00 507.00 C 518.09 506.40 528.58 508.22 538.67 509.33 C 548.76 510.44 554.33 514.29 564.74 516.26 C 575.16 518.22 575.59 529.00 573.00 539.00
C 575.42 532.90 575.00 526.12 575.00 519.00
C 572.59 514.76 562.84 514.92 558.22 512.78 C 553.60 510.64 545.93 508.60 540.00 508.00 C 534.07 507.40 525.53 505.56 519.00 506.00 C 512.47 506.44 503.99 505.14 498.07 506.07 C 492.16 507.01 485.19 510.55 481.00 512.00 Z"/>
</g>
<g fill="#FED992" fill-opacity="1.00" stroke="None">
<path d="
M 481.00 512.00 
C 438.18 519.67 404.83 563.08 403.00 606.00
C 422.58 609.44 443.06 607.40 463.00 607.00
C 509.40 606.07 560.40 587.62 573.00 539.00
C 575.59 529.00 575.16 518.22 564.74 516.26 C 554.33 514.29 548.76 510.44 538.67 509.33 C 528.58 508.22 518.09 506.40 508.00 507.00 C 497.91 507.60 490.80 511.25 481.00 512.00 Z"/>
</g>
<g fill="#FED991" fill-opacity="1.00" stroke="None">
<path d="
M 530.00 616.00 
C 490.01 629.15 448.12 630.25 405.00 629.00
C 395.58 631.09 404.43 650.14 405.22 657.78 C 406.01 665.42 412.15 677.70 414.22 685.78 C 416.29 693.86 422.19 701.94 426.08 709.92 C 429.98 717.90 435.32 725.07 441.23 731.77 C 447.14 738.47 451.09 745.21 457.25 751.75 C 463.40 758.29 469.57 763.65 476.30 769.70 C 483.03 775.75 489.54 779.79 497.77 784.23 C 506.00 788.67 514.61 792.01 523.99 795.01 C 533.38 798.01 546.69 798.61 557.00 799.00 C 567.31 799.39 576.57 794.38 585.33 791.33 C 594.08 788.28 602.16 784.12 608.75 777.75 C 615.35 771.38 622.56 768.70 627.75 760.75 C 632.94 752.80 637.63 746.83 642.75 738.75 C 647.86 730.66 651.74 724.05 655.00 715.00 C 658.26 705.95 660.07 695.16 662.00 685.00 C 663.93 674.85 663.54 661.93 664.00 651.00 C 664.46 640.08 661.23 628.61 659.33 618.67 C 657.43 608.73 654.40 599.57 649.92 591.08 C 645.45 582.58 643.51 574.03 636.75 568.25 C 629.99 562.46 626.07 553.19 619.25 548.75 C 612.43 544.31 603.30 531.51 601.00 541.00 C 598.70 550.49 596.54 560.79 591.77 568.77 C 587.00 576.75 582.17 582.10 575.75 588.75 C 569.33 595.41 562.84 600.58 555.08 605.08 C 547.32 609.59 538.54 613.19 530.00 616.00 Z"/>
</g>
<g fill="#CBCBCB" fill-opacity="1.00" stroke="None">
<path d="
M 90.00 559.00 
C 91.92 558.66 93.20 558.61 95.00 558.00
C 96.41 557.52 97.89 556.47 99.00 556.00
C 95.25 556.97 93.28 557.79 90.00 559.00 Z"/>
</g>
<g fill="#FED991" fill-opacity="1.00" stroke="None">
<path d="
M 1635.00 932.00 
C 1613.44 941.97 1587.71 950.16 1564.00 956.00 C 1540.29 961.84 1515.93 972.37 1495.11 983.11 C 1474.29 993.85 1460.96 1010.78 1443.25 1027.25 C 1425.54 1043.71 1419.04 1067.13 1407.00 1087.00
C 1402.39 1094.61 1401.42 1105.94 1397.32 1114.32 C 1393.23 1122.70 1392.05 1133.96 1389.77 1142.77 C 1387.49 1151.58 1381.90 1160.24 1377.25 1167.25 C 1372.60 1174.25 1370.77 1182.19 1364.92 1188.92 C 1359.06 1195.64 1354.52 1201.83 1348.23 1208.23 C 1341.94 1214.63 1333.50 1218.63 1327.75 1224.75 C 1322.01 1230.87 1312.09 1234.27 1306.00 1239.00 C 1299.92 1243.73 1285.42 1243.25 1282.00 1251.00
C 1281.58 1253.41 1281.28 1255.49 1281.00 1258.00
C 1280.09 1266.17 1277.95 1272.84 1275.00 1280.00
C 1272.38 1288.88 1267.77 1297.27 1265.00 1306.00
L 1646.00 1306.00
C 1673.15 1274.11 1708.95 1257.59 1745.75 1241.75 C 1782.54 1225.90 1820.58 1211.12 1848.25 1179.25 C 1875.93 1147.38 1894.10 1115.24 1907.92 1074.92 C 1921.75 1034.60 1930.81 983.31 1935.98 937.98 C 1941.14 892.64 1944.86 839.92 1960.00 797.00
L 1960.00 761.00
C 1923.63 753.45 1889.62 734.43 1862.75 706.25 C 1835.88 678.06 1827.65 640.36 1810.00 608.00
C 1809.72 624.55 1797.38 641.60 1798.00 659.00 C 1798.62 676.40 1790.82 693.71 1786.78 709.78 C 1782.73 725.85 1775.59 741.20 1770.33 756.33 C 1765.07 771.46 1759.68 787.32 1753.97 801.97 C 1748.26 816.62 1740.24 829.05 1731.30 841.30 C 1722.37 853.55 1714.72 866.98 1705.10 878.10 C 1695.48 889.22 1683.95 897.94 1673.77 908.77 C 1663.59 919.60 1648.21 925.89 1635.00 932.00
M 1600.00 989.00 
C 1611.76 992.19 1608.49 1010.09 1599.25 1013.25 C 1590.00 1016.40 1571.48 1013.49 1571.01 1001.99 C 1570.54 990.50 1591.66 986.74 1600.00 989.00
M 1665.00 1027.00 
C 1673.41 1027.81 1690.42 1038.52 1682.67 1048.67 C 1674.92 1058.83 1660.43 1053.20 1652.11 1045.89 C 1643.78 1038.59 1651.30 1025.67 1665.00 1027.00
M 1523.00 1039.00 
C 1529.07 1039.99 1538.44 1042.74 1541.30 1049.70 C 1544.16 1056.65 1527.68 1058.86 1522.00 1056.00 C 1516.31 1053.15 1505.03 1054.61 1502.70 1046.30 C 1500.36 1037.99 1517.44 1038.10 1523.00 1039.00
M 1746.00 1070.00 
C 1751.09 1070.91 1759.31 1077.50 1761.92 1082.08 C 1764.52 1086.66 1772.25 1097.79 1766.69 1102.69 C 1761.14 1107.60 1750.41 1102.22 1745.25 1097.75 C 1740.10 1093.28 1734.96 1091.01 1732.08 1082.92 C 1729.20 1074.84 1736.40 1068.28 1746.00 1070.00
M 1615.00 1078.00 
C 1621.01 1078.86 1628.01 1084.24 1633.70 1086.30 C 1639.38 1088.36 1647.56 1099.42 1638.97 1100.97 C 1630.39 1102.53 1623.92 1099.92 1616.78 1096.22 C 1609.64 1092.53 1605.44 1093.28 1599.25 1085.75 C 1593.06 1078.22 1608.00 1077.00 1615.00 1078.00
M 1474.00 1080.00 
C 1480.39 1080.91 1489.99 1083.05 1493.30 1090.70 C 1496.61 1098.34 1481.03 1103.64 1474.33 1100.67 C 1467.63 1097.70 1457.74 1099.92 1454.70 1090.30 C 1451.65 1080.69 1466.87 1078.98 1474.00 1080.00
M 1570.00 1116.00 
C 1581.13 1118.15 1583.08 1121.23 1594.23 1126.77 C 1605.39 1132.31 1600.73 1143.18 1587.93 1139.07 C 1575.13 1134.97 1573.97 1136.40 1562.75 1129.25 C 1551.54 1122.10 1555.49 1113.20 1570.00 1116.00
M 1714.00 1133.00 
C 1724.71 1134.29 1730.17 1141.03 1739.75 1146.25 C 1749.32 1151.47 1754.59 1167.57 1741.33 1164.67 C 1728.07 1161.77 1726.19 1156.01 1715.92 1151.08 C 1705.65 1146.15 1697.37 1130.99 1714.00 1133.00
M 1683.00 1173.00 
C 1696.60 1175.82 1709.52 1186.09 1720.75 1194.25 C 1731.98 1202.41 1726.05 1206.43 1716.99 1204.01 C 1707.93 1201.59 1703.95 1199.75 1695.97 1196.03 C 1688.00 1192.30 1685.19 1190.20 1677.30 1184.70 C 1669.41 1179.19 1670.00 1170.31 1683.00 1173.00 Z"/>
</g>
<g fill="#FEBFAA" fill-opacity="1.00" stroke="None">
<path d="
M 643.00 1134.00 
C 641.88 1122.38 638.41 1106.92 630.23 1097.77 C 622.05 1088.62 610.70 1084.90 600.00 1079.00
C 581.66 1068.89 572.56 1050.16 569.93 1030.07 C 567.29 1009.98 578.92 980.41 568.92 961.08 C 558.92 941.75 543.12 935.73 524.08 927.92 C 505.04 920.11 483.25 915.36 462.02 911.98 C 440.80 908.59 414.51 906.23 393.07 902.93 C 371.64 899.63 347.91 894.82 327.67 889.33 C 307.44 883.83 287.75 877.57 269.23 869.77 C 250.71 861.97 236.87 852.07 226.31 834.70 C 215.74 817.32 208.24 791.97 212.01 771.01 C 215.78 750.04 219.87 727.00 227.07 708.07 C 234.27 689.14 241.93 658.26 217.07 654.93 C 192.22 651.59 174.74 660.72 154.23 668.23 C 133.72 675.73 120.94 683.83 105.25 697.25 C 89.55 710.66 81.19 723.84 71.77 741.77 C 62.35 759.70 56.42 781.63 54.93 802.93 C 53.43 824.22 55.80 851.51 64.23 870.77 C 72.66 890.03 80.98 904.20 91.75 921.25 C 102.52 938.30 111.64 952.66 119.23 971.77 C 126.82 990.88 131.87 1015.23 132.00 1037.00 C 132.13 1058.77 133.47 1087.17 140.22 1106.78 C 146.98 1126.38 155.24 1142.41 167.25 1158.75 C 179.26 1175.10 192.75 1187.35 211.93 1192.07 C 231.10 1196.79 252.86 1186.09 268.77 1174.77 C 284.68 1163.45 310.98 1156.29 329.78 1164.22 C 348.57 1172.15 364.01 1179.54 379.25 1192.75 C 394.49 1205.96 405.09 1218.12 421.75 1229.25 C 438.42 1240.37 453.78 1249.27 473.78 1255.22 C 493.78 1261.18 521.57 1264.83 543.78 1262.78 C 565.99 1260.73 585.39 1255.08 604.31 1245.31 C 623.22 1235.53 635.49 1226.32 642.02 1205.02 C 648.56 1183.73 645.16 1156.27 643.00 1134.00 Z"/>
</g>
<g fill="#F4DCC4" fill-opacity="1.00" stroke="None">
<path d="
M 1407.00 1087.00 
C 1419.04 1067.13 1425.54 1043.71 1443.25 1027.25 C 1460.96 1010.78 1474.29 993.85 1495.11 983.11 C 1515.93 972.37 1540.29 961.84 1564.00 956.00 C 1587.71 950.16 1613.44 941.97 1635.00 932.00
C 1637.68 924.52 1630.41 912.67 1629.93 905.07 C 1629.44 897.48 1623.31 889.52 1620.32 882.68 C 1617.34 875.84 1612.42 869.19 1607.75 863.25 C 1603.08 857.30 1599.02 851.12 1593.25 845.75 C 1587.48 840.39 1582.97 834.88 1576.75 830.25 C 1570.53 825.62 1565.10 820.54 1558.23 816.77 C 1551.36 813.00 1545.42 808.17 1538.07 804.93 C 1530.73 801.68 1523.71 797.80 1515.68 795.32 C 1507.64 792.85 1499.56 791.16 1491.01 788.99 C 1482.46 786.83 1471.19 786.57 1462.00 786.00 C 1452.82 785.43 1441.66 787.71 1433.00 789.00 C 1424.35 790.30 1415.76 792.99 1408.03 796.03 C 1400.29 799.06 1393.25 802.01 1386.70 806.70 C 1380.15 811.39 1375.05 815.74 1369.25 821.25 C 1363.44 826.75 1359.46 832.49 1354.92 838.92 C 1350.38 845.35 1347.06 852.15 1343.32 859.32 C 1339.59 866.50 1337.37 874.99 1334.93 882.93 C 1332.49 890.87 1330.85 901.29 1331.00 910.00 C 1331.16 918.71 1333.69 928.86 1336.22 936.78 C 1338.75 944.70 1342.47 951.84 1346.03 958.97 C 1349.59 966.10 1353.97 972.05 1358.23 978.77 C 1362.49 985.49 1366.92 991.19 1371.23 997.77 C 1375.54 1004.35 1380.26 1010.00 1384.23 1016.77 C 1388.20 1023.55 1392.54 1029.76 1396.07 1036.93 C 1399.61 1044.09 1402.55 1052.87 1404.22 1060.78 C 1405.90 1068.69 1410.10 1078.81 1407.00 1087.00 Z"/>
</g>
<g fill="#F4DCC4" fill-opacity="1.00" stroke="None">
<path d="
M 600.00 1079.00 
C 610.70 1084.90 622.05 1088.62 630.23 1097.77 C 638.41 1106.92 641.88 1122.38 643.00 1134.00
C 656.82 1105.58 676.33 1077.42 681.22 1045.22 C 686.11 1013.03 699.33 981.66 717.08 955.08 C 734.82 928.50 756.36 914.17 778.08 890.08 C 799.80 865.99 808.78 827.54 808.00 796.00
C 806.78 803.70 802.06 810.79 798.32 817.32 C 794.58 823.85 791.02 830.35 786.25 836.25 C 781.47 842.15 776.49 846.62 771.25 852.25 C 766.01 857.87 760.36 861.07 754.25 865.25 C 748.14 869.43 741.95 874.00 735.23 877.23 C 728.51 880.46 722.39 885.46 715.70 888.70 C 709.00 891.93 703.23 896.07 697.23 900.23 C 691.23 904.39 685.89 909.52 680.08 914.08 C 674.27 918.65 669.71 924.26 664.75 929.75 C 659.80 935.24 655.51 940.25 651.25 946.25 C 646.99 952.24 642.64 958.17 638.30 964.30 C 633.97 970.44 630.17 977.14 626.92 983.92 C 623.68 990.71 620.20 997.21 617.32 1004.32 C 614.44 1011.44 611.34 1019.90 609.31 1027.31 C 607.27 1034.71 603.83 1045.17 603.78 1052.78 C 603.73 1060.38 596.43 1071.79 600.00 1079.00 Z"/>
</g>
<g fill="#FEF1DD" fill-opacity="1.00" stroke="None">
<path d="
M 1646.00 1306.00 
L 1693.00 1306.00
C 1703.58 1294.33 1717.43 1286.61 1731.70 1278.70 C 1745.97 1270.78 1762.26 1265.19 1777.68 1258.68 C 1793.10 1252.17 1807.73 1244.10 1822.22 1237.22 C 1836.72 1230.35 1849.96 1222.75 1861.75 1210.75 C 1873.54 1198.75 1882.74 1188.90 1892.30 1175.30 C 1901.86 1161.71 1909.34 1148.68 1916.77 1133.77 C 1924.20 1118.86 1930.31 1103.21 1935.78 1086.78 C 1941.24 1070.34 1945.57 1051.73 1948.98 1033.98 C 1952.38 1016.22 1956.17 995.17 1960.00 978.00
L 1960.00 797.00
C 1944.86 839.92 1941.14 892.64 1935.98 937.98 C 1930.81 983.31 1921.75 1034.60 1907.92 1074.92 C 1894.10 1115.24 1875.93 1147.38 1848.25 1179.25 C 1820.58 1211.12 1782.54 1225.90 1745.75 1241.75 C 1708.95 1257.59 1673.15 1274.11 1646.00 1306.00 Z"/>
</g>
<g fill="#F4DCC3" fill-opacity="1.00" stroke="None">
<path d="
M 586.00 1306.00 
L 596.00 1306.00
C 610.39 1285.66 627.13 1268.32 650.77 1261.77 C 674.42 1255.23 692.28 1237.60 713.25 1226.25 C 734.23 1214.91 751.52 1194.42 775.78 1190.78 C 800.04 1187.14 827.05 1178.65 845.75 1162.75 C 864.46 1146.86 881.55 1133.82 898.25 1116.25 C 914.94 1098.68 930.80 1083.81 945.70 1065.70 C 960.60 1047.59 975.60 1030.47 990.75 1012.75 C 1005.90 995.02 1020.90 978.19 1038.75 962.75 C 1056.61 947.32 1074.53 928.83 1080.00 906.00
C 1060.44 919.87 1041.17 933.25 1022.08 948.08 C 1002.99 962.91 983.10 975.33 962.23 987.23 C 941.36 999.14 919.82 1011.55 898.23 1022.23 C 876.64 1032.90 853.85 1045.88 832.68 1056.68 C 811.51 1067.48 788.80 1078.40 770.75 1093.75 C 752.71 1109.10 733.85 1122.91 720.30 1142.30 C 706.76 1161.70 692.48 1180.79 676.25 1198.25 C 660.01 1215.71 638.26 1227.72 628.31 1249.31 C 618.35 1270.89 600.28 1286.76 586.00 1306.00 Z"/>
</g>
<g fill="#FED992" fill-opacity="1.00" stroke="None">
<path d="
M 1693.00 1306.00 
L 1960.00 1306.00
L 1960.00 978.00
C 1956.17 995.17 1952.38 1016.22 1948.98 1033.98 C 1945.57 1051.73 1941.24 1070.34 1935.78 1086.78 C 1930.31 1103.21 1924.20 1118.86 1916.77 1133.77 C 1909.34 1148.68 1901.86 1161.71 1892.30 1175.30 C 1882.74 1188.90 1873.54 1198.75 1861.75 1210.75 C 1849.96 1222.75 1836.72 1230.35 1822.22 1237.22 C 1807.73 1244.10 1793.10 1252.17 1777.68 1258.68 C 1762.26 1265.19 1745.97 1270.78 1731.70 1278.70 C 1717.43 1286.61 1703.58 1294.33 1693.00 1306.00 Z"/>
</g>
<g fill="#FEFDF9" fill-opacity="1.00" stroke="None">
<path d="
M 1600.00 989.00 
C 1591.66 986.74 1570.54 990.50 1571.01 1001.99 C 1571.48 1013.49 1590.00 1016.40 1599.25 1013.25 C 1608.49 1010.09 1611.76 992.19 1600.00 989.00 Z"/>
</g>
<g fill="#FDFEFC" fill-opacity="1.00" stroke="None">
<path d="
M 1665.00 1027.00 
C 1651.30 1025.67 1643.78 1038.59 1652.11 1045.89 C 1660.43 1053.20 1674.92 1058.83 1682.67 1048.67 C 1690.42 1038.52 1673.41 1027.81 1665.00 1027.00 Z"/>
</g>
<g fill="#FDFEFA" fill-opacity="1.00" stroke="None">
<path d="
M 1523.00 1039.00 
C 1517.44 1038.10 1500.36 1037.99 1502.70 1046.30 C 1505.03 1054.61 1516.31 1053.15 1522.00 1056.00 C 1527.68 1058.86 1544.16 1056.65 1541.30 1049.70 C 1538.44 1042.74 1529.07 1039.99 1523.00 1039.00 Z"/>
</g>
<g fill="#FEFEFB" fill-opacity="1.00" stroke="None">
<path d="
M 1746.00 1070.00 
C 1736.40 1068.28 1729.20 1074.84 1732.08 1082.92 C 1734.96 1091.01 1740.10 1093.28 1745.25 1097.75 C 1750.41 1102.22 1761.14 1107.60 1766.69 1102.69 C 1772.25 1097.79 1764.52 1086.66 1761.92 1082.08 C 1759.31 1077.50 1751.09 1070.91 1746.00 1070.00 Z"/>
</g>
<g fill="#FDFDF8" fill-opacity="1.00" stroke="None">
<path d="
M 1615.00 1078.00 
C 1608.00 1077.00 1593.06 1078.22 1599.25 1085.75 C 1605.44 1093.28 1609.64 1092.53 1616.78 1096.22 C 1623.92 1099.92 1630.39 1102.53 1638.97 1100.97 C 1647.56 1099.42 1639.38 1088.36 1633.70 1086.30 C 1628.01 1084.24 1621.01 1078.86 1615.00 1078.00 Z"/>
</g>
<g fill="#FDFCF5" fill-opacity="1.00" stroke="None">
<path d="
M 1474.00 1080.00 
C 1466.87 1078.98 1451.65 1080.69 1454.70 1090.30 C 1457.74 1099.92 1467.63 1097.70 1474.33 1100.67 C 1481.03 1103.64 1496.61 1098.34 1493.30 1090.70 C 1489.99 1083.05 1480.39 1080.91 1474.00 1080.00 Z"/>
</g>
<g fill="#A3BBD1" fill-opacity="1.00" stroke="None">
<path d="
M 922.00 1254.00 
C 922.00 1272.33 927.83 1289.37 933.00 1306.00
L 1265.00 1306.00
C 1267.77 1297.27 1272.38 1288.88 1275.00 1280.00
C 1277.12 1272.84 1279.56 1264.98 1281.00 1258.00
C 1281.28 1255.49 1281.58 1253.41 1282.00 1251.00
C 1289.99 1204.64 1269.23 1162.23 1231.25 1135.75 C 1193.26 1109.27 1148.88 1098.60 1101.00 1098.00 C 1053.12 1097.40 1011.12 1109.37 973.25 1138.25 C 935.37 1167.13 922.00 1207.57 922.00 1254.00 Z"/>
</g>
<g fill="#FEFDFA" fill-opacity="1.00" stroke="None">
<path d="
M 1570.00 1116.00 
C 1555.49 1113.20 1551.54 1122.10 1562.75 1129.25 C 1573.97 1136.40 1575.13 1134.97 1587.93 1139.07 C 1600.73 1143.18 1605.39 1132.31 1594.23 1126.77 C 1583.08 1121.23 1581.13 1118.15 1570.00 1116.00 Z"/>
</g>
<g fill="#FDFBF5" fill-opacity="1.00" stroke="None">
<path d="
M 1714.00 1133.00 
C 1697.37 1130.99 1705.65 1146.15 1715.92 1151.08 C 1726.19 1156.01 1728.07 1161.77 1741.33 1164.67 C 1754.59 1167.57 1749.32 1151.47 1739.75 1146.25 C 1730.17 1141.03 1724.71 1134.29 1714.00 1133.00 Z"/>
</g>
<g fill="#FDFDF7" fill-opacity="1.00" stroke="None">
<path d="
M 1683.00 1173.00 
C 1670.00 1170.31 1669.41 1179.19 1677.30 1184.70 C 1685.19 1190.20 1688.00 1192.30 1695.97 1196.03 C 1703.95 1199.75 1707.93 1201.59 1716.99 1204.01 C 1726.05 1206.43 1731.98 1202.41 1720.75 1194.25 C 1709.52 1186.09 1696.60 1175.82 1683.00 1173.00 Z"/>
</g>
<g fill="#FED991" fill-opacity="1.00" stroke="None">
<path d="
M 813.00 1306.00 
L 933.00 1306.00
C 927.83 1289.37 922.00 1272.33 922.00 1254.00
C 918.94 1243.39 922.79 1231.27 922.00 1220.00
C 873.30 1223.88 824.35 1256.43 813.00 1306.00 Z"/>
</g>
<g fill="#CFCAB2" fill-opacity="1.00" stroke="None">
<path d="
M 1275.00 1280.00 
C 1277.95 1272.84 1280.09 1266.17 1281.00 1258.00
C 1279.56 1264.98 1277.12 1272.84 1275.00 1280.00 Z"/>
</g>
</svg>