<?xml version="1.0" encoding="utf-8"?>
<svg xmlns="http://www.w3.org/2000/svg" viewBox="0 0 200 200" width="200" height="200">
  <g fill="None" fill-opacity="0.0" stroke="#FEFEFE" stroke-opacity="1.00" stroke-width="0.3"/>
  <g fill="None" fill-opacity="0.0" stroke="#DDE7D4" stroke-opacity="1.00" stroke-width="0.3"/>
  <g fill="None" fill-opacity="0.0" stroke="#ADC599" stroke-opacity="1.00" stroke-width="0.3">
    <path d="M 156 146 C 134.11 169.68 93.4 178.3 69 154 C 106.52 176.5 152.85 145 160 106 C 161.53 116.75 162.24 130.29 159 141 C 163.63 135.36 166.612 128.467 169.372 121.957 C 169.942 119.817 170.72 118.3 171 116 C 175.55 79.07 158.34 43.87 122.68 31.32 C 87.02 18.77 50.16 36.04 33.31 68.31 C 16.45 100.57 29.17 142.99 59.77 162.23 C 90.38 181.47 133.44 174.57 156 146 M 82 100 C 85.67 111.37 79.32 121.73 66 117 C 65.56 116.84 65 117 65 117 C 61.36 115.22 59.59 111.32 58 108 C 49.14 114.81 42.28 110.85 42.01 100.99 C 41.73 91.14 43.04 82.19 46.31 74.31 C 49.57 66.42 51.95 60.61 58.25 55.25 C 64.55 49.89 68.75 45.12 76.23 42.23 C 83.7 39.33 93.43 37.54 101.22 37.78 C 109.01 38.02 119.34 37.21 125 44 C 115.12 45.07 116.72 53.7 113.23 60.23 C 109.74 66.76 103.86 73.29 106 82 C 102.23 87.33 95 82.39 90.78 84.78 C 86.55 87.17 83.75 92.55 80 95 C 80.58 96.54 83.77 98.81 82 100 M 157 101 C 155.21 138.18 119.56 166.64 83 158 C 73.02 155.64 62.2 149.05 57 140 C 64.34 142.35 67.55 131.52 75.07 134.93 C 82.59 138.34 89.14 138.02 97.01 139.99 C 104.88 141.97 111.47 136.69 114.78 130.78 C 118.09 124.86 125.13 122.35 130 119 C 119.69 121.16 112.14 110.91 116.31 102.31 C 120.47 93.7 133.02 94.62 137 102 C 135.85 92.28 151.46 86.11 148 74 C 155.92 78.04 155.39 92.14 157 101 M 94 129 C 98.68 129.27 101.58 132.32 107.08 129.08 C 112.57 125.83 113.25 136.17 107.77 136.77 C 102.29 137.37 98.44 138.99 93.31 136.69 C 88.17 134.4 87.32 128.61 94 129 Z" data-index="2"/>
  </g>
  <g fill="None" fill-opacity="0.0" stroke="#98B97E" stroke-opacity="1.00" stroke-width="0.3">
    <path d=" M 65.00 117.00 C 61.58 112.11 59.61 110.79 61.00 105.00 C 63.19 95.89 76.05 90.48 82.00 100.00 C 83.77 98.81 80.58 96.54 80.00 95.00 C 83.75 92.55 86.55 87.17 90.78 84.78 C 95.00 82.39 102.23 87.33 106.00 82.00 C 103.86 73.29 109.74 66.76 113.23 60.23 C 116.72 53.70 115.12 45.07 125.00 44.00 C 119.34 37.21 109.01 38.02 101.22 37.78 C 93.43 37.54 83.70 39.33 76.23 42.23 C 68.75 45.12 64.55 49.89 58.25 55.25 C 51.95 60.61 49.57 66.42 46.31 74.31 C 43.04 82.19 41.73 91.14 42.01 100.99 C 42.28 110.85 49.14 114.81 58.00 108.00 C 59.59 111.32 61.36 115.22 65.00 117.00 M 75.00 50.00 C 79.77 53.18 66.46 69.55 61.33 65.67 C 56.20 61.79 69.14 46.09 75.00 50.00 M 59.00 70.00 C 63.87 72.23 59.97 80.69 55.00 78.00 C 50.03 75.31 53.84 67.63 59.00 70.00 Z" data-index="3"/>
  </g>
  <g fill="None" fill-opacity="0.0" stroke="#D3DCCB" stroke-opacity="1.00" stroke-width="0.3">
    <path d=" M 75.00 50.00 C 69.14 46.09 56.20 61.79 61.33 65.67 C 66.46 69.55 79.77 53.18 75.00 50.00 Z" data-index="4"/>
  </g>
  <g fill="None" fill-opacity="0.0" stroke="#C5D4BA" stroke-opacity="1.00" stroke-width="0.3">
    <path d=" M 59.00 70.00 C 53.84 67.63 50.03 75.31 55.00 78.00 C 59.97 80.69 63.87 72.23 59.00 70.00 Z" data-index="5"/>
  </g>
  <g fill="None" fill-opacity="0.0" stroke="#C5D3BA" stroke-opacity="1.00" stroke-width="0.3">
    <path d=" M 137.00 102.00 C 138.00 110.46 137.86 114.43 130.00 119.00 C 125.13 122.35 118.09 124.86 114.78 130.78 C 111.47 136.69 104.88 141.97 97.01 139.99 C 89.14 138.02 82.59 138.34 75.07 134.93 C 67.55 131.52 64.34 142.35 57.00 140.00 C 62.20 149.05 73.02 155.64 83.00 158.00 C 76.49 155.77 68.67 151.51 64.00 146.00 C 76.18 138.50 91.05 150.52 102.01 145.99 C 112.97 141.46 119.03 131.60 129.08 125.08 C 139.13 118.56 143.30 105.51 147.00 95.00 C 150.89 95.95 150.78 95.51 153.00 94.00 C 152.86 96.76 154.87 99.53 157.00 101.00 C 155.39 92.14 155.92 78.04 148.00 74.00 C 151.46 86.11 135.85 92.28 137.00 102.00 Z" data-index="6"/>
  </g>
  <g fill="None" fill-opacity="0.0" stroke="#D4DCCC" stroke-opacity="1.00" stroke-width="0.3">
    <path d=" M 83.00 158.00 C 119.56 166.64 155.21 138.18 157.00 101.00 C 154.87 99.53 152.86 96.76 153.00 94.00 C 150.78 95.51 150.89 95.95 147.00 95.00 C 143.30 105.51 139.13 118.56 129.08 125.08 C 119.03 131.60 112.97 141.46 102.01 145.99 C 91.05 150.52 76.18 138.50 64.00 146.00 C 68.67 151.51 76.49 155.77 83.00 158.00 Z" data-index="7"/>
  </g>
  <g fill="None" fill-opacity="0.0" stroke="#1C5302" stroke-opacity="1.00" stroke-width="0.3">
    <path d=" M 61.00 105.00 C 60.59 110.14 63.22 113.15 66.00 117.00 C 79.32 121.73 85.67 111.37 82.00 100.00 C 76.05 90.48 63.19 95.89 61.00 105.00 Z" data-index="8"/>
  </g>
  <g fill="None" fill-opacity="0.0" stroke="#1C5303" stroke-opacity="1.00" stroke-width="0.3">
    <path d=" M 130.00 119.00 C 137.86 114.43 138.00 110.46 137.00 102.00 C 133.02 94.62 120.47 93.70 116.31 102.31 C 112.14 110.91 119.69 121.16 130.00 119.00 Z" data-index="9"/>
  </g>
  <g fill="None" fill-opacity="0.0" stroke="#567F35" stroke-opacity="1.00" stroke-width="0.3">
    <path d=" M 65.00 117.00 C 65.00 117.00 65.56 116.84 66.00 117.00 C 63.22 113.15 60.59 110.14 61.00 105.00 C 59.61 110.79 61.58 112.11 65.00 117.00 Z" data-index="10"/>
  </g>
  <g fill="None" fill-opacity="0.0" stroke="#97B87D" stroke-opacity="1.00" stroke-width="0.3">
    <path d=" M 156.00 146.00 C 157.30 144.35 158.21 142.84 159.00 141.00 C 162.24 130.29 161.53 116.75 160.00 106.00 C 152.85 145.00 106.52 176.50 69.00 154.00 C 93.40 178.30 134.11 169.68 156.00 146.00 Z" data-index="11"/>
  </g>
  <g fill="None" fill-opacity="0.0" stroke="#2C5E10" stroke-opacity="1.00" stroke-width="0.3">
    <path d=" M 94.00 129.00 C 87.32 128.61 88.17 134.40 93.31 136.69 C 98.44 138.99 102.29 137.37 107.77 136.77 C 113.25 136.17 112.57 125.83 107.08 129.08 C 101.58 132.32 98.68 129.27 94.00 129.00 Z" data-index="12"/>
  </g>
  <g fill="#FEFEFE" fill-opacity="1.00" stroke="None"/>
  <g fill="#DDE7D4" fill-opacity="1.00" stroke="None"/>
  <g fill="#ADC599" fill-opacity="1.00" stroke="None">
    <path d="M 156 146 C 134.11 169.68 93.4 178.3 69 154 C 106.52 176.5 152.85 145 160 106 C 161.53 116.75 162.24 130.29 159 141 C 163.63 135.36 166.755 129.135 169.515 122.625 C 170.085 120.485 170.64 118.367 170.92 116.067 C 175.47 79.137 158.34 43.87 122.68 31.32 C 87.02 18.77 50.16 36.04 33.31 68.31 C 16.45 100.57 29.17 142.99 59.77 162.23 C 90.38 181.47 133.44 174.57 156 146 M 82 100 C 85.67 111.37 79.32 121.73 66 117 C 65.56 116.84 65 117 65 117 C 61.36 115.22 59.59 111.32 58 108 C 49.14 114.81 42.28 110.85 42.01 100.99 C 41.73 91.14 43.04 82.19 46.31 74.31 C 49.57 66.42 51.95 60.61 58.25 55.25 C 64.55 49.89 68.75 45.12 76.23 42.23 C 83.7 39.33 93.43 37.54 101.22 37.78 C 109.01 38.02 119.34 37.21 125 44 C 115.12 45.07 116.72 53.7 113.23 60.23 C 109.74 66.76 103.86 73.29 106 82 C 102.23 87.33 95 82.39 90.78 84.78 C 86.55 87.17 83.75 92.55 80 95 C 80.58 96.54 83.77 98.81 82 100 M 157 101 C 155.21 138.18 119.56 166.64 83 158 C 73.02 155.64 62.2 149.05 57 140 C 64.34 142.35 67.55 131.52 75.07 134.93 C 82.59 138.34 89.14 138.02 97.01 139.99 C 104.88 141.97 111.47 136.69 114.78 130.78 C 118.09 124.86 125.13 122.35 130 119 C 119.69 121.16 112.14 110.91 116.31 102.31 C 120.47 93.7 133.02 94.62 137 102 C 135.85 92.28 151.46 86.11 148 74 C 155.92 78.04 155.39 92.14 157 101 M 94 129 C 98.68 129.27 101.58 132.32 107.08 129.08 C 112.57 125.83 113.25 136.17 107.77 136.77 C 102.29 137.37 98.44 138.99 93.31 136.69 C 88.17 134.4 87.32 128.61 94 129 Z" data-index="15" style="opacity: 1; visibility: visible;"/>
  </g>
  <g fill="#98B97E" fill-opacity="1.00" stroke="None">
    <path d=" M 65.00 117.00 C 61.58 112.11 59.61 110.79 61.00 105.00 C 63.19 95.89 76.05 90.48 82.00 100.00 C 83.77 98.81 80.58 96.54 80.00 95.00 C 83.75 92.55 86.55 87.17 90.78 84.78 C 95.00 82.39 102.23 87.33 106.00 82.00 C 103.86 73.29 109.74 66.76 113.23 60.23 C 116.72 53.70 115.12 45.07 125.00 44.00 C 119.34 37.21 109.01 38.02 101.22 37.78 C 93.43 37.54 83.70 39.33 76.23 42.23 C 68.75 45.12 64.55 49.89 58.25 55.25 C 51.95 60.61 49.57 66.42 46.31 74.31 C 43.04 82.19 41.73 91.14 42.01 100.99 C 42.28 110.85 49.14 114.81 58.00 108.00 C 59.59 111.32 61.36 115.22 65.00 117.00 M 75.00 50.00 C 79.77 53.18 66.46 69.55 61.33 65.67 C 56.20 61.79 69.14 46.09 75.00 50.00 M 59.00 70.00 C 63.87 72.23 59.97 80.69 55.00 78.00 C 50.03 75.31 53.84 67.63 59.00 70.00 Z" data-index="16"/>
  </g>
  <g fill="#D3DCCB" fill-opacity="1.00" stroke="None">
    <path d=" M 75.00 50.00 C 69.14 46.09 56.20 61.79 61.33 65.67 C 66.46 69.55 79.77 53.18 75.00 50.00 Z" data-index="17"/>
  </g>
  <g fill="#C5D4BA" fill-opacity="1.00" stroke="None">
    <path d=" M 59.00 70.00 C 53.84 67.63 50.03 75.31 55.00 78.00 C 59.97 80.69 63.87 72.23 59.00 70.00 Z" data-index="18"/>
  </g>
  <g fill="#C5D3BA" fill-opacity="1.00" stroke="None">
    <path d=" M 137.00 102.00 C 138.00 110.46 137.86 114.43 130.00 119.00 C 125.13 122.35 118.09 124.86 114.78 130.78 C 111.47 136.69 104.88 141.97 97.01 139.99 C 89.14 138.02 82.59 138.34 75.07 134.93 C 67.55 131.52 64.34 142.35 57.00 140.00 C 62.20 149.05 73.02 155.64 83.00 158.00 C 76.49 155.77 68.67 151.51 64.00 146.00 C 76.18 138.50 91.05 150.52 102.01 145.99 C 112.97 141.46 119.03 131.60 129.08 125.08 C 139.13 118.56 143.30 105.51 147.00 95.00 C 150.89 95.95 150.78 95.51 153.00 94.00 C 152.86 96.76 154.87 99.53 157.00 101.00 C 155.39 92.14 155.92 78.04 148.00 74.00 C 151.46 86.11 135.85 92.28 137.00 102.00 Z" data-index="19" style="opacity: 1; visibility: visible;"/>
  </g>
  <g fill="#D4DCCC" fill-opacity="1.00" stroke="None">
    <path d=" M 83.00 158.00 C 119.56 166.64 155.21 138.18 157.00 101.00 C 154.87 99.53 152.86 96.76 153.00 94.00 C 150.78 95.51 150.89 95.95 147.00 95.00 C 143.30 105.51 139.13 118.56 129.08 125.08 C 119.03 131.60 112.97 141.46 102.01 145.99 C 91.05 150.52 76.18 138.50 64.00 146.00 C 68.67 151.51 76.49 155.77 83.00 158.00 Z" data-index="20" style="opacity: 1;"/>
  </g>
  <g fill="#1C5302" fill-opacity="1.00" stroke="None" style="" transform="matrix(1.074896, 0, 0, 1, -5.982087, -0.03346)">
    <path d=" M 61.00 105.00 C 60.59 110.14 63.22 113.15 66.00 117.00 C 79.32 121.73 85.67 111.37 82.00 100.00 C 76.05 90.48 63.19 95.89 61.00 105.00 Z" data-index="21"/>
  </g>
  <g fill="#1C5303" fill-opacity="1.00" stroke="None">
    <path d=" M 130.00 119.00 C 137.86 114.43 138.00 110.46 137.00 102.00 C 133.02 94.62 120.47 93.70 116.31 102.31 C 112.14 110.91 119.69 121.16 130.00 119.00 Z" data-index="22"/>
  </g>
  <g fill="#97B87D" fill-opacity="1.00" stroke="None">
    <path d=" M 156.00 146.00 C 157.30 144.35 158.21 142.84 159.00 141.00 C 162.24 130.29 161.53 116.75 160.00 106.00 C 152.85 145.00 106.52 176.50 69.00 154.00 C 93.40 178.30 134.11 169.68 156.00 146.00 Z" data-index="24" style="opacity: 1;"/>
  </g>
  <g fill="#2C5E10" fill-opacity="1.00" stroke="None">
    <path d=" M 94.00 129.00 C 87.32 128.61 88.17 134.40 93.31 136.69 C 98.44 138.99 102.29 137.37 107.77 136.77 C 113.25 136.17 112.57 125.83 107.08 129.08 C 101.58 132.32 98.68 129.27 94.00 129.00 Z" data-index="25" style="opacity: 1; visibility: visible;"/>
  </g>
</svg>