<svg xmlns="http://www.w3.org/2000/svg" xmlns:v="https://svgstorm.com" viewBox="0 0 200 200">
<g fill="None" fill-opacity="0.0" stroke="#FEFEFE" stroke-opacity="1.00" stroke-width="0.3">
</g>
<g fill="None" fill-opacity="0.0" stroke="#F4A4A1" stroke-opacity="1.00" stroke-width="0.3"><path d="
M 146.00 161.00
C 146.82 160.30 147.31 158.75 148.00 158.00
C 126.82 173.75 91.04 176.26 72.00 156.00
C 78.31 156.90 83.41 161.79 90.00 162.00
C 81.33 159.79 71.48 154.34 64.00 149.00
C 58.62 145.15 53.01 139.42 52.00 133.00
C 54.52 134.14 57.08 135.24 60.00 135.00
C 61.45 129.13 68.85 126.71 75.00 126.00
C 74.64 127.80 75.20 129.42 77.00 128.00
C 72.03 110.70 98.07 114.88 110.00 116.00
C 113.37 114.75 114.23 107.96 118.25 107.25 C 122.27 106.53 123.20 98.27 126.00 97.00
C 119.65 97.80 119.49 102.90 117.00 107.00
C 115.43 109.59 111.70 111.80 110.00 108.00
C 104.47 95.65 124.37 88.02 133.00 90.00
C 128.56 85.19 133.36 81.07 131.60 76.25 C 129.84 71.44 131.74 66.03 126.00 67.00
C 126.03 64.70 132.51 65.29 129.00 61.00
C 135.80 57.08 144.13 53.82 148.77 61.23 C 153.41 68.64 158.72 71.98 157.02 81.02 C 155.33 90.07 164.04 99.26 159.00 108.00
C 156.74 116.72 154.67 125.13 150.00 133.00
C 156.09 125.21 159.76 115.44 162.00 106.00
C 163.73 120.58 164.57 138.77 155.00 151.00
C 162.07 143.93 167.57 134.97 171.00 126.00
C 179.61 91.23 167.24 52.99 134.23 36.77 C 101.22 20.55 62.71 29.93 41.30 59.30 C 19.89 88.67 24.09 130.13 50.25 155.75 C 76.41 181.37 116.69 180.10 146.00 161.00
M 81.00 89.00
C 86.59 90.28 92.88 94.72 91.99 103.01 C 91.11 111.30 83.67 103.84 81.75 98.25 C 79.83 92.66 65.52 95.87 64.75 101.75 C 63.98 107.63 51.35 112.63 56.00 101.00
C 54.73 94.51 46.62 89.05 49.33 81.33 C 52.04 73.60 53.58 67.76 58.75 61.75 C 63.93 55.75 67.81 51.19 74.70 47.70 C 81.58 44.20 90.12 42.01 98.00 42.00 C 105.88 41.99 113.26 48.41 114.00 56.00
C 106.13 58.32 106.17 68.93 98.00 73.00
C 99.33 75.31 98.17 77.30 99.00 80.00
C 94.58 73.84 88.68 81.09 87.00 86.00
C 84.54 86.12 80.02 84.92 81.00 89.00 Z" data-index="1"></path>
</g>
<g fill="None" fill-opacity="0.0" stroke="#F3908B" stroke-opacity="1.00" stroke-width="0.3"><path d="
M 56.00 101.00
C 59.53 92.17 71.68 86.87 81.00 89.00
C 80.02 84.92 84.54 86.12 87.00 86.00
C 88.68 81.09 94.58 73.84 99.00 80.00
C 98.17 77.30 99.33 75.31 98.00 73.00
C 106.17 68.93 106.13 58.32 114.00 56.00
C 113.26 48.41 105.88 41.99 98.00 42.00 C 90.12 42.01 81.58 44.20 74.70 47.70 C 67.81 51.19 63.93 55.75 58.75 61.75 C 53.58 67.76 52.04 73.60 49.33 81.33 C 46.62 89.05 54.73 94.51 56.00 101.00
M 77.00 52.00
C 81.37 54.96 68.34 72.54 62.78 68.22 C 57.21 63.90 70.12 47.35 77.00 52.00
M 61.00 73.00
C 64.71 75.42 60.42 82.60 56.33 79.67 C 52.24 76.74 57.06 70.43 61.00 73.00 Z" data-index="2"></path>
</g>
<g fill="None" fill-opacity="0.0" stroke="#F1D6D5" stroke-opacity="1.00" stroke-width="0.3"><path d="
M 77.00 52.00
C 70.12 47.35 57.21 63.90 62.78 68.22 C 68.34 72.54 81.37 54.96 77.00 52.00 Z" data-index="3"></path>
</g>
<g fill="None" fill-opacity="0.0" stroke="#F0B8B6" stroke-opacity="1.00" stroke-width="0.3"><path d="
M 133.00 90.00
C 138.15 91.18 143.44 97.60 145.00 102.00
C 145.32 99.07 149.11 96.81 147.00 94.00
C 155.06 87.35 160.24 100.07 159.00 108.00
C 164.04 99.26 155.33 90.07 157.02 81.02 C 158.72 71.98 153.41 68.64 148.77 61.23 C 144.13 53.82 135.80 57.08 129.00 61.00
C 132.51 65.29 126.03 64.70 126.00 67.00
C 131.74 66.03 129.84 71.44 131.60 76.25 C 133.36 81.07 128.56 85.19 133.00 90.00 Z" data-index="4"></path>
</g>
<g fill="None" fill-opacity="0.0" stroke="#F1D4D2" stroke-opacity="1.00" stroke-width="0.3"><path d="
M 61.00 73.00
C 57.06 70.43 52.24 76.74 56.33 79.67 C 60.42 82.60 64.71 75.42 61.00 73.00 Z" data-index="5"></path>
</g>
<g fill="None" fill-opacity="0.0" stroke="#B04441" stroke-opacity="1.00" stroke-width="0.3"><path d="
M 56.00 101.00
C 51.35 112.63 63.98 107.63 64.75 101.75 C 65.52 95.87 79.83 92.66 81.75 98.25 C 83.67 103.84 91.11 111.30 91.99 103.01 C 92.88 94.72 86.59 90.28 81.00 89.00
C 71.68 86.87 59.53 92.17 56.00 101.00 Z" data-index="6"></path>
</g>
<g fill="None" fill-opacity="0.0" stroke="#B04542" stroke-opacity="1.00" stroke-width="0.3"><path d="
M 110.00 108.00
C 111.52 110.29 115.73 108.54 117.00 107.00
C 119.49 102.90 119.65 97.80 126.00 97.00
C 130.43 96.44 132.85 98.98 135.75 101.25 C 138.65 103.52 137.58 110.01 141.00 111.00
C 145.10 108.41 147.20 108.18 145.00 102.00
C 143.44 97.60 138.15 91.18 133.00 90.00
C 124.37 88.02 104.47 95.65 110.00 108.00 Z" data-index="7"></path>
</g>
<g fill="None" fill-opacity="0.0" stroke="#F0D3D2" stroke-opacity="1.00" stroke-width="0.3"><path d="
M 145.00 102.00
C 147.20 108.18 145.10 108.41 141.00 111.00
C 137.46 113.24 132.50 120.13 130.00 124.00
C 125.11 131.58 125.49 141.03 116.30 146.30 C 107.12 151.57 96.90 150.54 88.00 145.00
C 87.64 144.78 87.00 145.00 87.00 145.00
C 77.64 137.85 72.43 144.15 62.00 145.00
C 61.45 146.82 63.75 147.47 64.00 149.00
C 71.48 154.34 81.33 159.79 90.00 162.00
C 113.94 166.05 137.54 153.98 150.00 133.00
C 154.67 125.13 156.74 116.72 159.00 108.00
C 160.24 100.07 155.06 87.35 147.00 94.00
C 149.11 96.81 145.32 99.07 145.00 102.00 Z" data-index="8"></path>
</g>
<g fill="None" fill-opacity="0.0" stroke="#EEBBB8" stroke-opacity="1.00" stroke-width="0.3"><path d="
M 110.00 116.00
C 116.07 116.57 130.64 114.73 130.00 124.00
C 132.50 120.13 137.46 113.24 141.00 111.00
C 137.58 110.01 138.65 103.52 135.75 101.25 C 132.85 98.98 130.43 96.44 126.00 97.00
C 123.20 98.27 122.27 106.53 118.25 107.25 C 114.23 107.96 113.37 114.75 110.00 116.00 Z" data-index="9"></path>
</g>
<g fill="None" fill-opacity="0.0" stroke="#F3918C" stroke-opacity="1.00" stroke-width="0.3"><path d="
M 150.00 133.00
C 137.54 153.98 113.94 166.05 90.00 162.00
C 83.41 161.79 78.31 156.90 72.00 156.00
C 91.04 176.26 126.82 173.75 148.00 158.00
C 150.20 155.60 152.97 153.58 155.00 151.00
C 164.57 138.77 163.73 120.58 162.00 106.00
C 159.76 115.44 156.09 125.21 150.00 133.00 Z" data-index="10"></path>
</g>
<g fill="None" fill-opacity="0.0" stroke="#C86B69" stroke-opacity="1.00" stroke-width="0.3"><path d="
M 110.00 108.00
C 111.70 111.80 115.43 109.59 117.00 107.00
C 115.73 108.54 111.52 110.29 110.00 108.00 Z" data-index="11"></path>
</g>
<g fill="None" fill-opacity="0.0" stroke="#AF4441" stroke-opacity="1.00" stroke-width="0.3"><path d="
M 77.00 128.00
C 78.15 132.01 80.57 136.60 83.00 140.00
C 84.49 141.78 87.04 142.69 88.00 145.00
C 96.90 150.54 107.12 151.57 116.30 146.30 C 125.49 141.03 125.11 131.58 130.00 124.00
C 130.64 114.73 116.07 116.57 110.00 116.00
C 98.07 114.88 72.03 110.70 77.00 128.00
M 121.00 124.00
C 121.80 149.29 83.83 146.93 84.00 123.00
C 96.43 122.98 108.90 122.68 121.00 124.00 Z" data-index="12"></path>
</g>
<g fill="None" fill-opacity="0.0" stroke="#EDB3B0" stroke-opacity="1.00" stroke-width="0.3"><path d="
M 121.00 124.00
C 108.90 122.68 96.43 122.98 84.00 123.00
C 83.83 146.93 121.80 149.29 121.00 124.00 Z" data-index="13"></path>
</g>
<g fill="None" fill-opacity="0.0" stroke="#F0B7B5" stroke-opacity="1.00" stroke-width="0.3"><path d="
M 64.00 149.00
C 63.75 147.47 61.45 146.82 62.00 145.00
C 72.43 144.15 77.64 137.85 87.00 145.00
C 85.78 143.25 84.21 141.69 83.00 140.00
C 80.57 136.60 78.15 132.01 77.00 128.00
C 75.20 129.42 74.64 127.80 75.00 126.00
C 68.85 126.71 61.45 129.13 60.00 135.00
C 57.08 135.24 54.52 134.14 52.00 133.00
C 53.01 139.42 58.62 145.15 64.00 149.00 Z" data-index="14"></path>
</g>
<g fill="None" fill-opacity="0.0" stroke="#FBD3D2" stroke-opacity="1.00" stroke-width="0.3"><path d="
M 155.00 151.00
C 152.97 153.58 150.20 155.60 148.00 158.00
C 147.31 158.75 146.82 160.30 146.00 161.00
C 157.72 153.36 167.83 138.78 171.00 126.00
C 167.57 134.97 162.07 143.93 155.00 151.00 Z" data-index="15"></path>
</g>
<g fill="None" fill-opacity="0.0" stroke="#CA7977" stroke-opacity="1.00" stroke-width="0.3"><path d="
M 87.00 145.00
C 87.00 145.00 87.64 144.78 88.00 145.00
C 87.04 142.69 84.49 141.78 83.00 140.00
C 84.21 141.69 85.78 143.25 87.00 145.00 Z" data-index="16"></path>
</g>
<g fill="#FEFEFE" fill-opacity="1.00" stroke="None">

</g>
<g fill="#F4A4A1" fill-opacity="1.00" stroke="None">
<path d="
M 146.00 161.00
C 146.82 160.30 147.31 158.75 148.00 158.00
C 126.82 173.75 91.04 176.26 72.00 156.00
C 78.31 156.90 83.41 161.79 90.00 162.00
C 81.33 159.79 71.48 154.34 64.00 149.00
C 58.62 145.15 53.01 139.42 52.00 133.00
C 54.52 134.14 57.08 135.24 60.00 135.00
C 61.45 129.13 68.85 126.71 75.00 126.00
C 74.64 127.80 75.20 129.42 77.00 128.00
C 72.03 110.70 98.07 114.88 110.00 116.00
C 113.37 114.75 114.23 107.96 118.25 107.25 C 122.27 106.53 123.20 98.27 126.00 97.00
C 119.65 97.80 119.49 102.90 117.00 107.00
C 115.43 109.59 111.70 111.80 110.00 108.00
C 104.47 95.65 124.37 88.02 133.00 90.00
C 128.56 85.19 133.36 81.07 131.60 76.25 C 129.84 71.44 131.74 66.03 126.00 67.00
C 126.03 64.70 132.51 65.29 129.00 61.00
C 135.80 57.08 144.13 53.82 148.77 61.23 C 153.41 68.64 158.72 71.98 157.02 81.02 C 155.33 90.07 164.04 99.26 159.00 108.00
C 156.74 116.72 154.67 125.13 150.00 133.00
C 156.09 125.21 159.76 115.44 162.00 106.00
C 163.73 120.58 164.57 138.77 155.00 151.00
C 162.07 143.93 167.57 134.97 171.00 126.00
C 179.61 91.23 167.24 52.99 134.23 36.77 C 101.22 20.55 62.71 29.93 41.30 59.30 C 19.89 88.67 24.09 130.13 50.25 155.75 C 76.41 181.37 116.69 180.10 146.00 161.00
M 81.00 89.00
C 86.59 90.28 92.88 94.72 91.99 103.01 C 91.11 111.30 83.67 103.84 81.75 98.25 C 79.83 92.66 65.52 95.87 64.75 101.75 C 63.98 107.63 51.35 112.63 56.00 101.00
C 54.73 94.51 46.62 89.05 49.33 81.33 C 52.04 73.60 53.58 67.76 58.75 61.75 C 63.93 55.75 67.81 51.19 74.70 47.70 C 81.58 44.20 90.12 42.01 98.00 42.00 C 105.88 41.99 113.26 48.41 114.00 56.00
C 106.13 58.32 106.17 68.93 98.00 73.00
C 99.33 75.31 98.17 77.30 99.00 80.00
C 94.58 73.84 88.68 81.09 87.00 86.00
C 84.54 86.12 80.02 84.92 81.00 89.00 Z" data-index="18" style="opacity: 1;"></path>
</g>
<g fill="#F3908B" fill-opacity="1.00" stroke="None">
<path d="
M 56.00 101.00
C 59.53 92.17 71.68 86.87 81.00 89.00
C 80.02 84.92 84.54 86.12 87.00 86.00
C 88.68 81.09 94.58 73.84 99.00 80.00
C 98.17 77.30 99.33 75.31 98.00 73.00
C 106.17 68.93 106.13 58.32 114.00 56.00
C 113.26 48.41 105.88 41.99 98.00 42.00 C 90.12 42.01 81.58 44.20 74.70 47.70 C 67.81 51.19 63.93 55.75 58.75 61.75 C 53.58 67.76 52.04 73.60 49.33 81.33 C 46.62 89.05 54.73 94.51 56.00 101.00
M 77.00 52.00
C 81.37 54.96 68.34 72.54 62.78 68.22 C 57.21 63.90 70.12 47.35 77.00 52.00
M 61.00 73.00
C 64.71 75.42 60.42 82.60 56.33 79.67 C 52.24 76.74 57.06 70.43 61.00 73.00 Z" data-index="19" style="opacity: 1;"></path>
</g>
<g fill="#F1D6D5" fill-opacity="1.00" stroke="None">
<path d="
M 77.00 52.00
C 70.12 47.35 57.21 63.90 62.78 68.22 C 68.34 72.54 81.37 54.96 77.00 52.00 Z" data-index="20"></path>
</g>
<g fill="#F0B8B6" fill-opacity="1.00" stroke="None">
<path d="
M 133.00 90.00
C 138.15 91.18 143.44 97.60 145.00 102.00
C 145.32 99.07 149.11 96.81 147.00 94.00
C 155.06 87.35 160.24 100.07 159.00 108.00
C 164.04 99.26 155.33 90.07 157.02 81.02 C 158.72 71.98 153.41 68.64 148.77 61.23 C 144.13 53.82 135.80 57.08 129.00 61.00
C 132.51 65.29 126.03 64.70 126.00 67.00
C 131.74 66.03 129.84 71.44 131.60 76.25 C 133.36 81.07 128.56 85.19 133.00 90.00 Z" data-index="21"></path>
</g>
<g fill="#F1D4D2" fill-opacity="1.00" stroke="None">
<path d="
M 61.00 73.00
C 57.06 70.43 52.24 76.74 56.33 79.67 C 60.42 82.60 64.71 75.42 61.00 73.00 Z" data-index="22"></path>
</g>
<g fill="#B04441" fill-opacity="1.00" stroke="None">
<path d="
M 56.00 101.00
C 51.35 112.63 63.98 107.63 64.75 101.75 C 65.52 95.87 79.83 92.66 81.75 98.25 C 83.67 103.84 91.11 111.30 91.99 103.01 C 92.88 94.72 86.59 90.28 81.00 89.00
C 71.68 86.87 59.53 92.17 56.00 101.00 Z" data-index="23"></path>
</g>
<g fill="#B04542" fill-opacity="1.00" stroke="None">
<path d="
M 110.00 108.00
C 111.52 110.29 115.73 108.54 117.00 107.00
C 119.49 102.90 119.65 97.80 126.00 97.00
C 130.43 96.44 132.85 98.98 135.75 101.25 C 138.65 103.52 137.58 110.01 141.00 111.00
C 145.10 108.41 147.20 108.18 145.00 102.00
C 143.44 97.60 138.15 91.18 133.00 90.00
C 124.37 88.02 104.47 95.65 110.00 108.00 Z" data-index="24"></path>
</g>
<g fill="#F0D3D2" fill-opacity="1.00" stroke="None">
<path d="
M 145.00 102.00
C 147.20 108.18 145.10 108.41 141.00 111.00
C 137.46 113.24 132.50 120.13 130.00 124.00
C 125.11 131.58 125.49 141.03 116.30 146.30 C 107.12 151.57 96.90 150.54 88.00 145.00
C 87.64 144.78 87.00 145.00 87.00 145.00
C 77.64 137.85 72.43 144.15 62.00 145.00
C 61.45 146.82 63.75 147.47 64.00 149.00
C 71.48 154.34 81.33 159.79 90.00 162.00
C 113.94 166.05 137.54 153.98 150.00 133.00
C 154.67 125.13 156.74 116.72 159.00 108.00
C 160.24 100.07 155.06 87.35 147.00 94.00
C 149.11 96.81 145.32 99.07 145.00 102.00 Z" data-index="25" style="opacity: 1;"></path>
</g>
<g fill="#EEBBB8" fill-opacity="1.00" stroke="None">
<path d="
M 110.00 116.00
C 116.07 116.57 130.64 114.73 130.00 124.00
C 132.50 120.13 137.46 113.24 141.00 111.00
C 137.58 110.01 138.65 103.52 135.75 101.25 C 132.85 98.98 130.43 96.44 126.00 97.00
C 123.20 98.27 122.27 106.53 118.25 107.25 C 114.23 107.96 113.37 114.75 110.00 116.00 Z" data-index="26"></path>
</g>
<g fill="#F3918C" fill-opacity="1.00" stroke="None">
<path d="
M 150.00 133.00
C 137.54 153.98 113.94 166.05 90.00 162.00
C 83.41 161.79 78.31 156.90 72.00 156.00
C 91.04 176.26 126.82 173.75 148.00 158.00
C 150.20 155.60 152.97 153.58 155.00 151.00
C 164.57 138.77 163.73 120.58 162.00 106.00
C 159.76 115.44 156.09 125.21 150.00 133.00 Z" data-index="27" style="opacity: 1;"></path>
</g>
<g fill="#C86B69" fill-opacity="1.00" stroke="None">
<path d="
M 110.00 108.00
C 111.70 111.80 115.43 109.59 117.00 107.00
C 115.73 108.54 111.52 110.29 110.00 108.00 Z" data-index="28"></path>
</g>
<g fill="#AF4441" fill-opacity="1.00" stroke="None">
<path d="
M 77.00 128.00
C 78.15 132.01 80.57 136.60 83.00 140.00
C 84.49 141.78 87.04 142.69 88.00 145.00
C 96.90 150.54 107.12 151.57 116.30 146.30 C 125.49 141.03 125.11 131.58 130.00 124.00
C 130.64 114.73 116.07 116.57 110.00 116.00
C 98.07 114.88 72.03 110.70 77.00 128.00
M 121.00 124.00
C 121.80 149.29 83.83 146.93 84.00 123.00
C 96.43 122.98 108.90 122.68 121.00 124.00 Z" data-index="29"></path>
</g>
<g fill="#EDB3B0" fill-opacity="1.00" stroke="None">
<path d="
M 121.00 124.00
C 108.90 122.68 96.43 122.98 84.00 123.00
C 83.83 146.93 121.80 149.29 121.00 124.00 Z" data-index="30"></path>
</g>
<g fill="#F0B7B5" fill-opacity="1.00" stroke="None">
<path d="
M 64.00 149.00
C 63.75 147.47 61.45 146.82 62.00 145.00
C 72.43 144.15 77.64 137.85 87.00 145.00
C 85.78 143.25 84.21 141.69 83.00 140.00
C 80.57 136.60 78.15 132.01 77.00 128.00
C 75.20 129.42 74.64 127.80 75.00 126.00
C 68.85 126.71 61.45 129.13 60.00 135.00
C 57.08 135.24 54.52 134.14 52.00 133.00
C 53.01 139.42 58.62 145.15 64.00 149.00 Z" data-index="31"></path>
</g>
<g fill="#FBD3D2" fill-opacity="1.00" stroke="None">
<path d="
M 155.00 151.00
C 152.97 153.58 150.20 155.60 148.00 158.00
C 147.31 158.75 146.82 160.30 146.00 161.00
C 157.72 153.36 167.83 138.78 171.00 126.00
C 167.57 134.97 162.07 143.93 155.00 151.00 Z" data-index="32"></path>
</g>
<g fill="#CA7977" fill-opacity="1.00" stroke="None">
<path d="
M 87.00 145.00
C 87.00 145.00 87.64 144.78 88.00 145.00
C 87.04 142.69 84.49 141.78 83.00 140.00
C 84.21 141.69 85.78 143.25 87.00 145.00 Z" data-index="33"></path>
</g>
</svg>
