<svg xmlns="http://www.w3.org/2000/svg" xmlns:v="https://svgstorm.com" viewBox="0 0 1218 292" width="1218" height="292">
<g fill="currentColor" fill-opacity="0.0" stroke="#FEFEFE" stroke-opacity="1.00" stroke-width="0.3"><path d="
M 0.00 292.00
L 1218.00 292.00
L 1218.00 0.00
L 0.00 0.00
L 0.00 292.00
M 589.00 174.00
C 586.93 159.52 588.58 143.22 588.00 128.00
C 587.46 113.83 579.07 121.45 575.69 130.69 C 572.32 139.94 571.16 149.38 571.00 160.00 C 570.84 170.62 569.98 179.02 579.75 185.25 C 589.51 191.49 576.21 200.78 568.33 200.33 C 560.44 199.88 545.42 202.96 537.93 198.07 C 530.43 193.19 525.47 185.73 525.02 176.98 C 524.58 168.22 524.73 151.87 525.00 144.00 C 525.27 136.13 526.47 115.97 517.77 120.77 C 509.07 125.57 511.24 136.71 507.22 144.22 C 503.20 151.74 507.83 166.44 507.99 174.01 C 508.15 181.58 523.38 188.33 516.75 194.75 C 510.12 201.16 497.76 201.00 489.00 201.00
C 485.54 201.33 481.39 201.33 478.00 201.00
C 468.27 201.00 462.51 201.05 453.77 196.23 C 445.03 191.41 453.07 185.40 456.92 178.92 C 460.78 172.45 460.06 160.16 459.67 152.33 C 459.28 144.50 454.30 138.06 450.00 132.00
C 443.13 136.56 434.77 145.47 425.31 139.69 C 415.85 133.92 418.93 127.36 408.30 121.70 C 397.67 116.03 392.05 127.56 392.00 138.00 C 391.95 148.45 393.39 161.71 393.78 171.22 C 394.17 180.74 407.19 185.96 403.69 193.69 C 400.20 201.43 381.81 200.18 375.00 201.00
C 371.23 201.37 366.71 201.36 363.00 201.00
C 351.84 201.00 342.83 196.15 332.92 199.92 C 323.02 203.70 309.99 200.82 301.31 195.69 C 292.62 190.57 283.33 188.03 274.77 194.77 C 266.21 201.51 253.30 201.25 243.00 201.00 C 232.70 200.75 225.00 193.74 218.00 188.00
C 217.34 200.84 200.72 200.55 191.00 201.00
C 185.65 201.52 179.28 201.51 174.00 201.00
C 164.08 201.00 142.80 197.37 147.78 183.78 C 152.75 170.19 159.85 165.57 160.00 151.00 C 160.15 136.43 162.49 122.69 159.00 109.00
C 152.48 120.28 139.96 126.64 131.75 136.75 C 123.54 146.86 109.34 159.62 116.78 175.22 C 124.22 190.82 111.96 205.01 93.00 201.00
C 87.65 201.52 81.28 201.51 76.00 201.00
C 60.92 201.00 42.14 193.46 51.77 177.77 C 61.40 162.08 63.09 150.75 62.00 134.00 C 60.91 117.25 63.94 99.44 56.22 85.78 C 48.50 72.11 46.11 55.76 64.67 54.67 C 83.23 53.59 96.51 49.29 113.02 56.98 C 129.54 64.66 111.69 81.22 110.02 94.02 C 108.36 106.83 105.40 130.43 107.00 145.00
C 111.67 134.28 123.56 126.66 131.25 118.25 C 138.94 109.83 152.59 100.39 151.98 87.98 C 151.36 75.56 141.37 56.68 161.02 55.02 C 180.68 53.37 188.65 50.99 207.22 55.78 C 225.80 60.56 215.38 74.83 210.23 87.23 C 205.08 99.63 205.89 118.78 205.00 133.00 C 204.11 147.22 205.95 164.23 214.00 176.00
C 214.79 165.29 221.24 155.56 231.69 151.69 C 242.15 147.83 254.79 146.43 265.07 143.07 C 275.35 139.71 286.61 132.48 281.07 118.93 C 275.54 105.37 265.32 113.29 264.67 126.67 C 264.02 140.05 245.96 141.31 235.33 137.67 C 224.70 134.04 223.39 119.36 232.75 111.75 C 242.11 104.15 251.29 101.41 263.00 100.00 C 274.71 98.59 288.84 99.81 299.23 103.77 C 309.62 107.74 316.80 114.90 320.32 124.68 C 323.84 134.45 328.08 150.74 327.78 160.22 C 327.48 169.70 336.37 188.86 342.30 180.30 C 348.23 171.74 348.40 153.28 343.68 144.32 C 338.96 135.36 331.61 125.85 343.23 119.23 C 354.85 112.61 360.43 109.95 371.07 105.07 C 381.71 100.19 398.64 92.74 396.00 111.00
C 404.58 102.21 418.62 97.79 430.07 99.93 C 441.52 102.06 455.28 109.00 453.00 122.00
C 466.37 112.84 481.96 105.83 497.07 100.07 C 512.18 94.32 510.58 108.02 509.00 118.00
C 515.24 105.21 529.60 95.73 543.68 100.32 C 557.76 104.91 565.18 117.03 569.00 130.00
C 571.97 120.15 576.01 109.18 585.23 103.23 C 594.45 97.28 610.08 97.98 618.23 105.77 C 626.38 113.56 629.81 125.68 631.93 136.07 C 634.04 146.47 636.85 161.66 639.93 171.07 C 643.00 180.49 658.40 191.47 646.77 197.77 C 635.14 204.07 619.58 201.25 607.98 199.02 C 596.37 196.79 589.01 184.81 589.00 174.00
M 1049.00 120.00
C 1049.91 122.47 1051.36 128.73 1049.00 131.00
C 1040.07 131.81 1030.94 130.40 1022.00 131.00
C 1018.05 135.19 1021.91 146.05 1021.00 152.00 C 1020.09 157.95 1022.92 166.31 1023.33 172.67 C 1023.74 179.03 1028.67 181.67 1032.75 186.25 C 1036.83 190.83 1030.53 197.76 1024.77 198.77 C 1019.01 199.79 1010.38 201.00 1004.00 201.00
C 1000.23 201.37 995.71 201.36 992.00 201.00
C 982.24 201.00 972.26 199.89 964.00 195.00
C 955.85 200.34 945.81 200.94 936.00 201.00
C 932.54 201.33 928.39 201.33 925.00 201.00
C 916.42 201.00 906.35 200.64 900.00 195.00
C 879.91 207.18 837.58 204.12 839.00 173.00
C 837.59 158.42 838.58 142.27 838.00 127.00
C 837.54 115.04 830.14 113.13 823.25 121.25 C 816.35 129.37 816.14 134.86 813.01 144.01 C 809.87 153.16 813.57 166.45 814.33 174.67 C 815.08 182.89 829.12 188.21 822.75 194.75 C 816.37 201.28 803.52 201.00 795.00 201.00
C 791.23 201.37 786.71 201.36 783.00 201.00
C 773.84 201.00 767.13 200.92 758.92 196.08 C 750.72 191.23 759.98 184.89 762.92 178.92 C 765.87 172.96 766.67 160.45 765.67 153.33 C 764.67 146.21 762.52 138.25 756.00 134.00
C 770.61 174.42 729.34 207.77 691.00 200.00 C 652.65 192.24 636.14 145.09 662.75 116.75 C 689.36 88.41 737.29 95.70 754.00 130.00
C 757.52 123.93 761.38 119.47 768.23 116.23 C 775.08 112.99 779.08 109.76 786.70 106.69 C 794.31 103.63 797.73 101.27 807.07 99.07 C 816.41 96.88 816.98 109.45 816.00 116.00
C 819.40 109.13 824.91 104.34 832.08 101.08 C 839.24 97.81 850.25 99.03 857.08 102.92 C 863.90 106.82 868.20 112.62 871.92 119.08 C 875.65 125.53 878.56 134.43 880.78 141.22 C 882.99 148.01 884.74 161.30 886.98 167.02 C 889.21 172.74 891.58 187.27 898.68 185.66 C 905.78 184.06 907.28 169.61 907.00 163.00 C 906.72 156.39 908.37 143.26 901.25 137.75 C 894.13 132.25 897.87 122.56 905.70 118.70 C 913.52 114.83 917.60 111.39 926.08 108.08 C 934.55 104.76 937.76 100.66 948.07 99.07 C 958.38 97.48 958.92 109.36 956.00 118.00 C 953.08 126.65 954.53 136.60 953.00 146.00 C 951.47 155.40 954.75 166.16 955.98 175.02 C 957.20 183.89 966.30 188.70 970.75 180.75 C 975.20 172.80 975.92 162.72 976.00 155.00 C 976.08 147.28 982.30 130.29 972.00 130.00 C 961.69 129.72 962.57 111.90 975.00 115.00
C 970.15 95.12 978.26 75.80 994.25 63.25 C 1010.24 50.70 1034.84 52.18 1052.68 57.32 C 1070.52 62.47 1087.78 82.69 1073.00 99.00
C 1082.09 99.24 1096.76 98.39 1105.00 100.00 C 1113.24 101.61 1125.42 100.69 1130.25 107.75 C 1135.08 114.81 1120.73 120.14 1125.33 129.67 C 1129.93 139.20 1130.53 145.09 1133.98 155.02 C 1137.42 164.96 1143.06 168.87 1146.92 158.92 C 1150.78 148.98 1155.75 145.93 1158.75 137.75 C 1161.76 129.58 1171.23 122.44 1163.25 115.75 C 1155.27 109.06 1160.15 101.32 1170.22 100.22 C 1180.30 99.12 1189.02 97.08 1199.07 101.93 C 1209.13 106.78 1197.94 115.31 1189.93 116.93 C 1181.92 118.54 1178.58 128.53 1175.08 135.08 C 1171.57 141.62 1167.10 149.41 1163.25 156.25 C 1159.40 163.08 1156.07 171.06 1152.08 178.08 C 1148.08 185.10 1144.03 192.96 1140.08 200.08 C 1136.12 207.19 1132.76 214.61 1128.70 221.69 C 1124.63 228.78 1121.69 235.80 1116.23 242.23 C 1110.77 248.66 1104.89 253.64 1097.31 257.31 C 1089.72 260.97 1077.06 262.08 1068.33 260.67 C 1059.60 259.26 1052.33 255.90 1045.30 250.70 C 1038.28 245.50 1034.68 235.19 1037.33 227.33 C 1039.98 219.47 1046.65 214.04 1053.70 210.70 C 1060.74 207.35 1073.24 203.46 1080.08 209.92 C 1086.92 216.38 1085.04 224.26 1090.25 232.75 C 1095.47 241.23 1104.72 238.15 1109.25 230.25 C 1113.79 222.36 1116.47 212.73 1110.23 205.77 C 1103.99 198.81 1099.69 194.80 1096.23 186.77 C 1092.77 178.74 1089.41 170.31 1086.69 162.31 C 1083.97 154.30 1080.41 146.58 1076.70 139.31 C 1072.98 132.03 1066.93 126.62 1060.77 122.23 C 1054.61 117.84 1043.22 113.33 1048.75 104.75
C 1032.14 103.38 1035.33 89.57 1037.00 77.00 C 1038.67 64.43 1018.38 58.91 1014.70 72.70 C 1011.01 86.48 1011.18 94.88 1016.92 108.08 C 1022.67 121.27 1043.00 108.72 1049.00 120.00
M 929.00 55.00
C 957.09 56.80 952.99 102.12 925.00 99.00 C 897.01 95.88 901.51 53.23 929.00 55.00 Z" data-index="0" style="opacity: 1;"></path>
</g>
<g fill="currentColor" fill-opacity="0.0" stroke="#272727" stroke-opacity="1.00" stroke-width="0.3"><path d="
M 76.00 201.00
C 81.67 201.00 87.33 201.00 93.00 201.00
C 111.96 205.01 124.22 190.82 116.78 175.22 C 109.34 159.62 123.54 146.86 131.75 136.75 C 139.96 126.64 152.48 120.28 159.00 109.00
C 162.49 122.69 160.15 136.43 160.00 151.00 C 159.85 165.57 152.75 170.19 147.78 183.78 C 142.80 197.37 164.08 201.00 174.00 201.00
C 179.67 201.00 185.33 201.00 191.00 201.00
C 200.72 200.55 217.34 200.84 218.00 188.00
C 225.00 193.74 232.70 200.75 243.00 201.00 C 253.30 201.25 266.21 201.51 274.77 194.77 C 283.33 188.03 292.62 190.57 301.31 195.69 C 309.99 200.82 323.02 203.70 332.92 199.92 C 342.83 196.15 351.84 201.00 363.00 201.00
C 367.00 201.00 371.00 201.00 375.00 201.00
C 381.81 200.18 400.20 201.43 403.69 193.69 C 407.19 185.96 394.17 180.74 393.78 171.22 C 393.39 161.71 391.95 148.45 392.00 138.00 C 392.05 127.56 397.67 116.03 408.30 121.70 C 418.93 127.36 415.85 133.92 425.31 139.69 C 434.77 145.47 443.13 136.56 450.00 132.00
C 454.30 138.06 459.28 144.50 459.67 152.33 C 460.06 160.16 460.78 172.45 456.92 178.92 C 453.07 185.40 445.03 191.41 453.77 196.23 C 462.51 201.05 468.27 201.00 478.00 201.00
C 481.67 201.00 485.33 201.00 489.00 201.00
C 497.76 201.00 510.12 201.16 516.75 194.75 C 523.38 188.33 508.15 181.58 507.99 174.01 C 507.83 166.44 503.20 151.74 507.22 144.22 C 511.24 136.71 509.07 125.57 517.77 120.77 C 526.47 115.97 525.27 136.13 525.00 144.00 C 524.73 151.87 524.58 168.22 525.02 176.98 C 525.47 185.73 530.43 193.19 537.93 198.07 C 545.42 202.96 560.44 199.88 568.33 200.33 C 576.21 200.78 589.51 191.49 579.75 185.25 C 569.98 179.02 570.84 170.62 571.00 160.00 C 571.16 149.38 572.32 139.94 575.69 130.69 C 579.07 121.45 587.46 113.83 588.00 128.00
C 590.07 142.48 588.42 158.78 589.00 174.00
C 589.01 184.81 596.37 196.79 607.98 199.02 C 619.58 201.25 635.14 204.07 646.77 197.77 C 658.40 191.47 643.00 180.49 639.93 171.07 C 636.85 161.66 634.04 146.47 631.93 136.07 C 629.81 125.68 626.38 113.56 618.23 105.77 C 610.08 97.98 594.45 97.28 585.23 103.23 C 576.01 109.18 571.97 120.15 569.00 130.00
C 565.18 117.03 557.76 104.91 543.68 100.32 C 529.60 95.73 515.24 105.21 509.00 118.00
C 510.58 108.02 512.18 94.32 497.07 100.07 C 481.96 105.83 466.37 112.84 453.00 122.00
C 455.28 109.00 441.52 102.06 430.07 99.93 C 418.62 97.79 404.58 102.21 396.00 111.00
C 398.64 92.74 381.71 100.19 371.07 105.07 C 360.43 109.95 354.85 112.61 343.23 119.23 C 331.61 125.85 338.96 135.36 343.68 144.32 C 348.40 153.28 348.23 171.74 342.30 180.30 C 336.37 188.86 327.48 169.70 327.78 160.22 C 328.08 150.74 323.84 134.45 320.32 124.68 C 316.80 114.90 309.62 107.74 299.23 103.77 C 288.84 99.81 274.71 98.59 263.00 100.00 C 251.29 101.41 242.11 104.15 232.75 111.75 C 223.39 119.36 224.70 134.04 235.33 137.67 C 245.96 141.31 264.02 140.05 264.67 126.67 C 265.32 113.29 275.54 105.37 281.07 118.93 C 286.61 132.48 275.35 139.71 265.07 143.07 C 254.79 146.43 242.15 147.83 231.69 151.69 C 221.24 155.56 214.79 165.29 214.00 176.00
C 205.95 164.23 204.11 147.22 205.00 133.00 C 205.89 118.78 205.08 99.63 210.23 87.23 C 215.38 74.83 225.80 60.56 207.22 55.78 C 188.65 50.99 180.68 53.37 161.02 55.02 C 141.37 56.68 151.36 75.56 151.98 87.98 C 152.59 100.39 138.94 109.83 131.25 118.25 C 123.56 126.66 111.67 134.28 107.00 145.00
C 105.40 130.43 108.36 106.83 110.02 94.02 C 111.69 81.22 129.54 64.66 113.02 56.98 C 96.51 49.29 83.23 53.59 64.67 54.67 C 46.11 55.76 48.50 72.11 56.22 85.78 C 63.94 99.44 60.91 117.25 62.00 134.00 C 63.09 150.75 61.40 162.08 51.77 177.77 C 42.14 193.46 60.92 201.00 76.00 201.00
M 283.00 155.00
C 283.76 159.03 283.47 163.09 283.00 167.00
C 282.77 178.73 276.28 183.31 265.78 179.22 C 255.27 175.14 258.55 163.69 265.25 159.25 C 271.95 154.81 280.66 142.66 283.00 155.00 Z" data-index="1"></path>
</g>
<g fill="currentColor" fill-opacity="0.0" stroke="#282828" stroke-opacity="1.00" stroke-width="0.3"><path d="
M 783.00 201.00
C 787.00 201.00 791.00 201.00 795.00 201.00
C 803.52 201.00 816.37 201.28 822.75 194.75 C 829.12 188.21 815.08 182.89 814.33 174.67 C 813.57 166.45 809.87 153.16 813.01 144.01 C 816.14 134.86 816.35 129.37 823.25 121.25 C 830.14 113.13 837.54 115.04 838.00 127.00
C 840.05 141.36 839.00 157.87 839.00 173.00
C 837.58 204.12 879.91 207.18 900.00 195.00
C 906.35 200.64 916.42 201.00 925.00 201.00
C 928.67 201.00 932.33 201.00 936.00 201.00
C 945.81 200.94 955.85 200.34 964.00 195.00
C 972.26 199.89 982.24 201.00 992.00 201.00
C 996.00 201.00 1000.00 201.00 1004.00 201.00
C 1010.38 201.00 1019.01 199.79 1024.77 198.77 C 1030.53 197.76 1036.83 190.83 1032.75 186.25 C 1028.67 181.67 1023.74 179.03 1023.33 172.67 C 1022.92 166.31 1020.09 157.95 1021.00 152.00 C 1021.91 146.05 1018.05 135.19 1022.00 131.00
C 1024.49 128.36 1031.18 130.31 1035.00 130.00 C 1038.82 129.69 1045.02 129.64 1049.00 130.00
C 1049.00 126.92 1049.66 123.00 1049.00 120.00
C 1043.00 108.72 1022.67 121.27 1016.92 108.08 C 1011.18 94.88 1011.01 86.48 1014.70 72.70 C 1018.38 58.91 1038.67 64.43 1037.00 77.00 C 1035.33 89.57 1032.14 103.38 1049.00 104.00
C 1043.22 113.33 1054.61 117.84 1060.77 122.23 C 1066.93 126.62 1072.98 132.03 1076.70 139.31 C 1080.41 146.58 1083.97 154.30 1086.69 162.31 C 1089.41 170.31 1092.77 178.74 1096.23 186.77 C 1099.69 194.80 1103.99 198.81 1110.23 205.77 C 1116.47 212.73 1113.79 222.36 1109.25 230.25 C 1104.72 238.15 1095.47 241.23 1090.25 232.75 C 1085.04 224.26 1086.92 216.38 1080.08 209.92 C 1073.24 203.46 1060.74 207.35 1053.70 210.70 C 1046.65 214.04 1039.98 219.47 1037.33 227.33 C 1034.68 235.19 1038.28 245.50 1045.30 250.70 C 1052.33 255.90 1059.60 259.26 1068.33 260.67 C 1077.06 262.08 1089.72 260.97 1097.31 257.31 C 1104.89 253.64 1110.77 248.66 1116.23 242.23 C 1121.69 235.80 1124.63 228.78 1128.70 221.69 C 1132.76 214.61 1136.12 207.19 1140.08 200.08 C 1144.03 192.96 1148.08 185.10 1152.08 178.08 C 1156.07 171.06 1159.40 163.08 1163.25 156.25 C 1167.10 149.41 1171.57 141.62 1175.08 135.08 C 1178.58 128.53 1181.92 118.54 1189.93 116.93 C 1197.94 115.31 1209.13 106.78 1199.07 101.93 C 1189.02 97.08 1180.30 99.12 1170.22 100.22 C 1160.15 101.32 1155.27 109.06 1163.25 115.75 C 1171.23 122.44 1161.76 129.58 1158.75 137.75 C 1155.75 145.93 1150.78 148.98 1146.92 158.92 C 1143.06 168.87 1137.42 164.96 1133.98 155.02 C 1130.53 145.09 1129.93 139.20 1125.33 129.67 C 1120.73 120.14 1135.08 114.81 1130.25 107.75 C 1125.42 100.69 1113.24 101.61 1105.00 100.00 C 1096.76 98.39 1082.09 99.24 1073.00 99.00
C 1087.78 82.69 1070.52 62.47 1052.68 57.32 C 1034.84 52.18 1010.24 50.70 994.25 63.25 C 978.26 75.80 970.15 95.12 975.00 115.00
C 962.57 111.90 961.69 129.72 972.00 130.00 C 982.30 130.29 976.08 147.28 976.00 155.00 C 975.92 162.72 975.20 172.80 970.75 180.75 C 966.30 188.70 957.20 183.89 955.98 175.02 C 954.75 166.16 951.47 155.40 953.00 146.00 C 954.53 136.60 953.08 126.65 956.00 118.00 C 958.92 109.36 958.38 97.48 948.07 99.07 C 937.76 100.66 934.55 104.76 926.08 108.08 C 917.60 111.39 913.52 114.83 905.70 118.70 C 897.87 122.56 894.13 132.25 901.25 137.75 C 908.37 143.26 906.72 156.39 907.00 163.00 C 907.28 169.61 905.78 184.06 898.68 185.66 C 891.58 187.27 889.21 172.74 886.98 167.02 C 884.74 161.30 882.99 148.01 880.78 141.22 C 878.56 134.43 875.65 125.53 871.92 119.08 C 868.20 112.62 863.90 106.82 857.08 102.92 C 850.25 99.03 839.24 97.81 832.08 101.08 C 824.91 104.34 819.40 109.13 816.00 116.00
C 816.98 109.45 816.41 96.88 807.07 99.07 C 797.73 101.27 794.31 103.63 786.70 106.69 C 779.08 109.76 775.08 112.99 768.23 116.23 C 761.38 119.47 757.52 123.93 754.00 130.00
C 737.29 95.70 689.36 88.41 662.75 116.75 C 636.14 145.09 652.65 192.24 691.00 200.00 C 729.34 207.77 770.61 174.42 756.00 134.00
C 762.52 138.25 764.67 146.21 765.67 153.33 C 766.67 160.45 765.87 172.96 762.92 178.92 C 759.98 184.89 750.72 191.23 758.92 196.08 C 767.13 200.92 773.84 201.00 783.00 201.00
M 705.00 111.00
C 711.93 111.91 712.35 124.34 714.33 130.67 C 716.30 137.01 716.23 150.78 716.00 159.00 C 715.77 167.22 713.59 175.32 710.69 183.69 C 707.80 192.07 699.52 191.63 696.70 183.30 C 693.87 174.98 691.70 166.37 692.00 158.00 C 692.30 149.63 691.38 135.77 693.33 129.33 C 695.28 122.89 697.01 109.95 705.00 111.00 Z" data-index="2" style="opacity: 1;"></path>
</g>
<g fill="currentColor" fill-opacity="0.0" stroke="#282828" stroke-opacity="1.00" stroke-width="0.3"><path d="
M 929.00 55.00
C 901.51 53.23 897.01 95.88 925.00 99.00 C 952.99 102.12 957.09 56.80 929.00 55.00 Z" data-index="3"></path>
</g>
<g fill="currentColor" fill-opacity="0.0" stroke="#FBFBFB" stroke-opacity="1.00" stroke-width="0.3"><path d="
M 705.00 111.00
C 697.01 109.95 695.28 122.89 693.33 129.33 C 691.38 135.77 692.30 149.63 692.00 158.00 C 691.70 166.37 693.87 174.98 696.70 183.30 C 699.52 191.63 707.80 192.07 710.69 183.69 C 713.59 175.32 715.77 167.22 716.00 159.00 C 716.23 150.78 716.30 137.01 714.33 130.67 C 712.35 124.34 711.93 111.91 705.00 111.00 Z" data-index="4"></path>
</g>
<g fill="currentColor" fill-opacity="0.0" stroke="#C9C9C9" stroke-opacity="1.00" stroke-width="0.3"><path d="
M 1049.00 130.00
C 1049.00 130.50 1049.00 131.00 1049.00 131.00
C 1051.36 128.73 1049.91 122.47 1049.00 120.00
C 1049.66 123.00 1049.00 126.92 1049.00 130.00 Z" data-index="5" style="opacity: 1;"></path>
</g>
<g fill="currentColor" fill-opacity="0.0" stroke="#959595" stroke-opacity="1.00" stroke-width="0.3"><path d="
M 839.00 173.00
C 839.00 157.87 840.05 141.36 838.00 127.00
C 838.58 142.27 837.59 158.42 839.00 173.00 Z" data-index="6"></path>
</g>
<g fill="currentColor" fill-opacity="0.0" stroke="#8B8B8B" stroke-opacity="1.00" stroke-width="0.3"><path d="
M 589.00 174.00
C 588.42 158.78 590.07 142.48 588.00 128.00
C 588.58 143.22 586.93 159.52 589.00 174.00 Z" data-index="7"></path>
</g>
<g fill="currentColor" fill-opacity="0.0" stroke="#818181" stroke-opacity="1.00" stroke-width="0.3"><path d="
M 1022.00 131.00
C 1030.94 130.40 1040.07 131.81 1049.00 131.00
C 1049.00 131.00 1049.00 130.50 1049.00 130.00
C 1045.02 129.64 1038.82 129.69 1035.00 130.00 C 1031.18 130.31 1024.49 128.36 1022.00 131.00 Z" data-index="8" style="opacity: 1;"></path>
</g>
<g fill="currentColor" fill-opacity="0.0" stroke="#FAFBFA" stroke-opacity="1.00" stroke-width="0.3"><path d="
M 283.00 167.00
C 283.08 163.06 283.30 158.93 283.00 155.00
C 280.66 142.66 271.95 154.81 265.25 159.25 C 258.55 163.69 255.27 175.14 265.78 179.22 C 276.28 183.31 282.77 178.73 283.00 167.00 Z" data-index="9"></path>
</g>
<g fill="currentColor" fill-opacity="0.0" stroke="#969696" stroke-opacity="1.00" stroke-width="0.3"><path d="
M 283.00 167.00
C 283.47 163.09 283.76 159.03 283.00 155.00
C 283.30 158.93 283.08 163.06 283.00 167.00 Z" data-index="10"></path>
</g>
<g fill="currentColor" fill-opacity="0.0" stroke="#999999" stroke-opacity="1.00" stroke-width="0.3"><path d="
M 93.00 201.00
C 87.33 201.00 81.67 201.00 76.00 201.00
C 81.28 201.51 87.65 201.52 93.00 201.00 Z" data-index="11"></path>
</g>
<g fill="currentColor" fill-opacity="0.0" stroke="#9A9A9A" stroke-opacity="1.00" stroke-width="0.3"><path d="
M 191.00 201.00
C 185.33 201.00 179.67 201.00 174.00 201.00
C 179.28 201.51 185.65 201.52 191.00 201.00 Z" data-index="12"></path>
</g>
<g fill="currentColor" fill-opacity="0.0" stroke="#9A9A9A" stroke-opacity="1.00" stroke-width="0.3"><path d="
M 375.00 201.00
C 371.00 201.00 367.00 201.00 363.00 201.00
C 366.71 201.36 371.23 201.37 375.00 201.00 Z" data-index="13"></path>
</g>
<g fill="currentColor" fill-opacity="0.0" stroke="#999999" stroke-opacity="1.00" stroke-width="0.3"><path d="
M 489.00 201.00
C 485.33 201.00 481.67 201.00 478.00 201.00
C 481.39 201.33 485.54 201.33 489.00 201.00 Z" data-index="14"></path>
</g>
<g fill="currentColor" fill-opacity="0.0" stroke="#9A9A9A" stroke-opacity="1.00" stroke-width="0.3"><path d="
M 795.00 201.00
C 791.00 201.00 787.00 201.00 783.00 201.00
C 786.71 201.36 791.23 201.37 795.00 201.00 Z" data-index="15"></path>
</g>
<g fill="currentColor" fill-opacity="0.0" stroke="#999999" stroke-opacity="1.00" stroke-width="0.3"><path d="
M 936.00 201.00
C 932.33 201.00 928.67 201.00 925.00 201.00
C 928.39 201.33 932.54 201.33 936.00 201.00 Z" data-index="16"></path>
</g>
<g fill="currentColor" fill-opacity="0.0" stroke="#9B9B9B" stroke-opacity="1.00" stroke-width="0.3"><path d="
M 1004.00 201.00
C 1000.00 201.00 996.00 201.00 992.00 201.00
C 995.71 201.36 1000.23 201.37 1004.00 201.00 Z" data-index="17"></path>
</g>
<g fill="currentColor" fill-opacity="1.00" stroke="None">

</g>
<g fill="currentColor" fill-opacity="1.00" stroke="None">
<path d="
M 76.00 201.00
C 81.67 201.00 87.33 201.00 93.00 201.00
C 111.96 205.01 124.22 190.82 116.78 175.22 C 109.34 159.62 123.54 146.86 131.75 136.75 C 139.96 126.64 152.48 120.28 159.00 109.00
C 162.49 122.69 160.15 136.43 160.00 151.00 C 159.85 165.57 152.75 170.19 147.78 183.78 C 142.80 197.37 164.08 201.00 174.00 201.00
C 179.67 201.00 185.33 201.00 191.00 201.00
C 200.72 200.55 217.34 200.84 218.00 188.00
C 225.00 193.74 232.70 200.75 243.00 201.00 C 253.30 201.25 266.21 201.51 274.77 194.77 C 283.33 188.03 292.62 190.57 301.31 195.69 C 309.99 200.82 323.02 203.70 332.92 199.92 C 342.83 196.15 351.84 201.00 363.00 201.00
C 367.00 201.00 371.00 201.00 375.00 201.00
C 381.81 200.18 400.20 201.43 403.69 193.69 C 407.19 185.96 394.17 180.74 393.78 171.22 C 393.39 161.71 391.95 148.45 392.00 138.00 C 392.05 127.56 397.67 116.03 408.30 121.70 C 418.93 127.36 415.85 133.92 425.31 139.69 C 434.77 145.47 443.13 136.56 450.00 132.00
C 454.30 138.06 459.28 144.50 459.67 152.33 C 460.06 160.16 460.78 172.45 456.92 178.92 C 453.07 185.40 445.03 191.41 453.77 196.23 C 462.51 201.05 468.27 201.00 478.00 201.00
C 481.67 201.00 485.33 201.00 489.00 201.00
C 497.76 201.00 510.12 201.16 516.75 194.75 C 523.38 188.33 508.15 181.58 507.99 174.01 C 507.83 166.44 503.20 151.74 507.22 144.22 C 511.24 136.71 509.07 125.57 517.77 120.77 C 526.47 115.97 525.27 136.13 525.00 144.00 C 524.73 151.87 524.58 168.22 525.02 176.98 C 525.47 185.73 530.43 193.19 537.93 198.07 C 545.42 202.96 560.44 199.88 568.33 200.33 C 576.21 200.78 589.51 191.49 579.75 185.25 C 569.98 179.02 570.84 170.62 571.00 160.00 C 571.16 149.38 572.32 139.94 575.69 130.69 C 579.07 121.45 587.46 113.83 588.00 128.00
C 590.07 142.48 588.42 158.78 589.00 174.00
C 589.01 184.81 596.37 196.79 607.98 199.02 C 619.58 201.25 635.14 204.07 646.77 197.77 C 658.40 191.47 643.00 180.49 639.93 171.07 C 636.85 161.66 634.04 146.47 631.93 136.07 C 629.81 125.68 626.38 113.56 618.23 105.77 C 610.08 97.98 594.45 97.28 585.23 103.23 C 576.01 109.18 571.97 120.15 569.00 130.00
C 565.18 117.03 557.76 104.91 543.68 100.32 C 529.60 95.73 515.24 105.21 509.00 118.00
C 510.58 108.02 512.18 94.32 497.07 100.07 C 481.96 105.83 466.37 112.84 453.00 122.00
C 455.28 109.00 441.52 102.06 430.07 99.93 C 418.62 97.79 404.58 102.21 396.00 111.00
C 398.64 92.74 381.71 100.19 371.07 105.07 C 360.43 109.95 354.85 112.61 343.23 119.23 C 331.61 125.85 338.96 135.36 343.68 144.32 C 348.40 153.28 348.23 171.74 342.30 180.30 C 336.37 188.86 327.48 169.70 327.78 160.22 C 328.08 150.74 323.84 134.45 320.32 124.68 C 316.80 114.90 309.62 107.74 299.23 103.77 C 288.84 99.81 274.71 98.59 263.00 100.00 C 251.29 101.41 242.11 104.15 232.75 111.75 C 223.39 119.36 224.70 134.04 235.33 137.67 C 245.96 141.31 264.02 140.05 264.67 126.67 C 265.32 113.29 275.54 105.37 281.07 118.93 C 286.61 132.48 275.35 139.71 265.07 143.07 C 254.79 146.43 242.15 147.83 231.69 151.69 C 221.24 155.56 214.79 165.29 214.00 176.00
C 205.95 164.23 204.11 147.22 205.00 133.00 C 205.89 118.78 205.08 99.63 210.23 87.23 C 215.38 74.83 225.80 60.56 207.22 55.78 C 188.65 50.99 180.68 53.37 161.02 55.02 C 141.37 56.68 151.36 75.56 151.98 87.98 C 152.59 100.39 138.94 109.83 131.25 118.25 C 123.56 126.66 111.67 134.28 107.00 145.00
C 105.40 130.43 108.36 106.83 110.02 94.02 C 111.69 81.22 129.54 64.66 113.02 56.98 C 96.51 49.29 83.23 53.59 64.67 54.67 C 46.11 55.76 48.50 72.11 56.22 85.78 C 63.94 99.44 60.91 117.25 62.00 134.00 C 63.09 150.75 61.40 162.08 51.77 177.77 C 42.14 193.46 60.92 201.00 76.00 201.00
M 283.00 155.00
C 283.76 159.03 283.47 163.09 283.00 167.00
C 282.77 178.73 276.28 183.31 265.78 179.22 C 255.27 175.14 258.55 163.69 265.25 159.25 C 271.95 154.81 280.66 142.66 283.00 155.00 Z" data-index="19" style="opacity: 1;"></path>
</g>
<g fill="currentColor" fill-opacity="1.00" stroke="None">
<path d="
M 783.00 201.00
C 787.00 201.00 791.00 201.00 795.00 201.00
C 803.52 201.00 816.37 201.28 822.75 194.75 C 829.12 188.21 815.08 182.89 814.33 174.67 C 813.57 166.45 809.87 153.16 813.01 144.01 C 816.14 134.86 816.35 129.37 823.25 121.25 C 830.14 113.13 837.54 115.04 838.00 127.00
C 840.05 141.36 839.00 157.87 839.00 173.00
C 837.58 204.12 879.91 207.18 900.00 195.00
C 906.35 200.64 916.42 201.00 925.00 201.00
C 928.67 201.00 932.33 201.00 936.00 201.00
C 945.81 200.94 955.85 200.34 964.00 195.00
C 972.26 199.89 982.24 201.00 992.00 201.00
C 996.00 201.00 1000.00 201.00 1004.00 201.00
C 1010.38 201.00 1019.01 199.79 1024.77 198.77 C 1030.53 197.76 1036.83 190.83 1032.75 186.25 C 1028.67 181.67 1023.74 179.03 1023.33 172.67 C 1022.92 166.31 1020.09 157.95 1021.00 152.00 C 1021.91 146.05 1018.05 135.19 1022.00 131.00
C 1024.49 128.36 1031.18 130.31 1035.00 130.00 C 1038.82 129.69 1045.02 129.64 1049.00 130.00
C 1049.00 126.92 1049.66 123.00 1049.00 120.00
C 1043.00 108.72 1022.67 121.27 1016.92 108.08 C 1011.18 94.88 1011.01 86.48 1014.70 72.70 C 1018.38 58.91 1038.67 64.43 1037.00 77.00 C 1035.33 89.57 1032.14 103.38 1049.00 104.00
C 1043.22 113.33 1054.61 117.84 1060.77 122.23 C 1066.93 126.62 1072.98 132.03 1076.70 139.31 C 1080.41 146.58 1083.97 154.30 1086.69 162.31 C 1089.41 170.31 1092.77 178.74 1096.23 186.77 C 1099.69 194.80 1103.99 198.81 1110.23 205.77 C 1116.47 212.73 1113.79 222.36 1109.25 230.25 C 1104.72 238.15 1095.47 241.23 1090.25 232.75 C 1085.04 224.26 1086.92 216.38 1080.08 209.92 C 1073.24 203.46 1060.74 207.35 1053.70 210.70 C 1046.65 214.04 1039.98 219.47 1037.33 227.33 C 1034.68 235.19 1038.28 245.50 1045.30 250.70 C 1052.33 255.90 1059.60 259.26 1068.33 260.67 C 1077.06 262.08 1089.72 260.97 1097.31 257.31 C 1104.89 253.64 1110.77 248.66 1116.23 242.23 C 1121.69 235.80 1124.63 228.78 1128.70 221.69 C 1132.76 214.61 1136.12 207.19 1140.08 200.08 C 1144.03 192.96 1148.08 185.10 1152.08 178.08 C 1156.07 171.06 1159.40 163.08 1163.25 156.25 C 1167.10 149.41 1171.57 141.62 1175.08 135.08 C 1178.58 128.53 1181.92 118.54 1189.93 116.93 C 1197.94 115.31 1209.13 106.78 1199.07 101.93 C 1189.02 97.08 1180.30 99.12 1170.22 100.22 C 1160.15 101.32 1155.27 109.06 1163.25 115.75 C 1171.23 122.44 1161.76 129.58 1158.75 137.75 C 1155.75 145.93 1150.78 148.98 1146.92 158.92 C 1143.06 168.87 1137.42 164.96 1133.98 155.02 C 1130.53 145.09 1129.93 139.20 1125.33 129.67 C 1120.73 120.14 1135.08 114.81 1130.25 107.75 C 1125.42 100.69 1113.24 101.61 1105.00 100.00 C 1096.76 98.39 1082.09 99.24 1073.00 99.00
C 1087.78 82.69 1070.52 62.47 1052.68 57.32 C 1034.84 52.18 1010.24 50.70 994.25 63.25 C 978.26 75.80 970.15 95.12 975.00 115.00
C 962.57 111.90 961.69 129.72 972.00 130.00 C 982.30 130.29 976.08 147.28 976.00 155.00 C 975.92 162.72 975.20 172.80 970.75 180.75 C 966.30 188.70 957.20 183.89 955.98 175.02 C 954.75 166.16 951.47 155.40 953.00 146.00 C 954.53 136.60 953.08 126.65 956.00 118.00 C 958.92 109.36 958.38 97.48 948.07 99.07 C 937.76 100.66 934.55 104.76 926.08 108.08 C 917.60 111.39 913.52 114.83 905.70 118.70 C 897.87 122.56 894.13 132.25 901.25 137.75 C 908.37 143.26 906.72 156.39 907.00 163.00 C 907.28 169.61 905.78 184.06 898.68 185.66 C 891.58 187.27 889.21 172.74 886.98 167.02 C 884.74 161.30 882.99 148.01 880.78 141.22 C 878.56 134.43 875.65 125.53 871.92 119.08 C 868.20 112.62 863.90 106.82 857.08 102.92 C 850.25 99.03 839.24 97.81 832.08 101.08 C 824.91 104.34 819.40 109.13 816.00 116.00
C 816.98 109.45 816.41 96.88 807.07 99.07 C 797.73 101.27 794.31 103.63 786.70 106.69 C 779.08 109.76 775.08 112.99 768.23 116.23 C 761.38 119.47 757.52 123.93 754.00 130.00
C 737.29 95.70 689.36 88.41 662.75 116.75 C 636.14 145.09 652.65 192.24 691.00 200.00 C 729.34 207.77 770.61 174.42 756.00 134.00
C 762.52 138.25 764.67 146.21 765.67 153.33 C 766.67 160.45 765.87 172.96 762.92 178.92 C 759.98 184.89 750.72 191.23 758.92 196.08 C 767.13 200.92 773.84 201.00 783.00 201.00
M 705.00 111.00
C 711.93 111.91 712.35 124.34 714.33 130.67 C 716.30 137.01 716.23 150.78 716.00 159.00 C 715.77 167.22 713.59 175.32 710.69 183.69 C 707.80 192.07 699.52 191.63 696.70 183.30 C 693.87 174.98 691.70 166.37 692.00 158.00 C 692.30 149.63 691.38 135.77 693.33 129.33 C 695.28 122.89 697.01 109.95 705.00 111.00 Z" data-index="20" style="opacity: 1;"></path>
</g>
<g fill="currentColor" fill-opacity="1.00" stroke="None">
<path d="
M 929.00 55.00
C 901.51 53.23 897.01 95.88 925.00 99.00 C 952.99 102.12 957.09 56.80 929.00 55.00 Z" data-index="21" style="opacity: 1;"></path>
</g>
<g fill="currentColor" fill-opacity="1.00" stroke="None">

</g>
<g fill="currentColor" fill-opacity="1.00" stroke="None">
<path d="
M 1049.00 130.00
C 1049.00 130.50 1049.00 131.00 1049.00 131.00
C 1051.36 128.73 1049.91 122.47 1049.00 120.00
C 1049.66 123.00 1049.00 126.92 1049.00 130.00 Z" data-index="23" style="opacity: 1; visibility: visible;"></path>
</g>
<g fill="currentColor" fill-opacity="1.00" stroke="None">
<path d="
M 839.00 173.00
C 839.00 157.87 840.05 141.36 838.00 127.00
C 838.58 142.27 837.59 158.42 839.00 173.00 Z" data-index="24"></path>
</g>
<g fill="currentColor" fill-opacity="1.00" stroke="None">
<path d="
M 589.00 174.00
C 588.42 158.78 590.07 142.48 588.00 128.00
C 588.58 143.22 586.93 159.52 589.00 174.00 Z" data-index="25"></path>
</g>
<g fill="currentColor" fill-opacity="1.00" stroke="None">
<path d="
M 1022.00 131.00
C 1030.94 130.40 1040.07 131.81 1049.00 131.00
C 1049.00 131.00 1049.00 130.50 1049.00 130.00
C 1045.02 129.64 1038.82 129.69 1035.00 130.00 C 1031.18 130.31 1024.49 128.36 1022.00 131.00 Z" data-index="26" style="opacity: 1; visibility: visible;"></path>
</g>
<g fill="currentColor" fill-opacity="1.00" stroke="None">

</g>
<g fill="currentColor" fill-opacity="1.00" stroke="None">
<path d="
M 283.00 167.00
C 283.47 163.09 283.76 159.03 283.00 155.00
C 283.30 158.93 283.08 163.06 283.00 167.00 Z" data-index="28"></path>
</g>
<g fill="currentColor" fill-opacity="1.00" stroke="None">
<path d="
M 93.00 201.00
C 87.33 201.00 81.67 201.00 76.00 201.00
C 81.28 201.51 87.65 201.52 93.00 201.00 Z" data-index="29"></path>
</g>
<g fill="currentColor" fill-opacity="1.00" stroke="None">
<path d="
M 191.00 201.00
C 185.33 201.00 179.67 201.00 174.00 201.00
C 179.28 201.51 185.65 201.52 191.00 201.00 Z" data-index="30"></path>
</g>
<g fill="currentColor" fill-opacity="1.00" stroke="None">
<path d="
M 375.00 201.00
C 371.00 201.00 367.00 201.00 363.00 201.00
C 366.71 201.36 371.23 201.37 375.00 201.00 Z" data-index="31"></path>
</g>
<g fill="currentColor" fill-opacity="1.00" stroke="None">
<path d="
M 489.00 201.00
C 485.33 201.00 481.67 201.00 478.00 201.00
C 481.39 201.33 485.54 201.33 489.00 201.00 Z" data-index="32"></path>
</g>
<g fill="currentColor" fill-opacity="1.00" stroke="None">
<path d="
M 795.00 201.00
C 791.00 201.00 787.00 201.00 783.00 201.00
C 786.71 201.36 791.23 201.37 795.00 201.00 Z" data-index="33"></path>
</g>
<g fill="currentColor" fill-opacity="1.00" stroke="None">
<path d="
M 936.00 201.00
C 932.33 201.00 928.67 201.00 925.00 201.00
C 928.39 201.33 932.54 201.33 936.00 201.00 Z" data-index="34"></path>
</g>
<g fill="currentColor" fill-opacity="1.00" stroke="None">
<path d="
M 1004.00 201.00
C 1000.00 201.00 996.00 201.00 992.00 201.00
C 995.71 201.36 1000.23 201.37 1004.00 201.00 Z" data-index="35"></path>
</g>
</svg>
