<?xml version="1.0" encoding="utf-8"?>
<svg xmlns="http://www.w3.org/2000/svg" viewBox="0 0 200 200" width="200" height="200">
  <g fill="None" fill-opacity="0.0" stroke="#FEFEFE" stroke-opacity="1.00" stroke-width="0.3"/>
  <g fill="None" fill-opacity="0.0" stroke="#A9BDDC" stroke-opacity="1.00" stroke-width="0.3">
    <path d=" M 110.00 26.00 C 54.13 16.78 6.63 81.22 33.08 130.92 C 54.17 179.88 126.81 187.46 158.23 144.23 C 193.34 102.32 162.94 32.24 110.00 26.00 M 65.00 104.00 C 69.67 112.85 82.73 112.68 85.30 102.30 C 96.69 95.44 90.44 116.67 81.92 116.92 C 72.77 120.80 63.11 114.74 58.00 107.00 C 57.79 106.73 57.27 106.17 57.00 106.00 C 54.29 105.23 55.14 102.11 55.00 100.00 C 39.27 104.43 45.59 79.52 49.78 69.78 C 61.27 43.29 93.65 31.63 119.00 41.00 C 115.77 47.29 116.27 52.36 113.08 59.08 C 108.18 64.37 103.32 72.37 105.00 80.00 C 99.48 84.52 91.76 76.09 88.23 84.23 C 82.84 87.38 77.89 92.51 77.00 99.00 C 73.51 100.23 70.04 101.69 66.00 101.00 C 65.89 102.00 66.47 103.73 65.00 104.00 M 157.00 109.00 C 153.30 129.66 135.89 146.40 118.00 156.00 C 136.77 149.22 151.82 131.51 158.00 113.00 C 173.75 160.27 97.71 186.92 69.00 153.00 C 74.71 154.84 79.95 158.09 86.00 159.00 C 85.45 157.99 84.02 157.56 83.00 157.00 C 69.07 152.86 54.48 143.33 49.00 129.00 C 51.75 129.28 54.45 129.90 57.00 131.00 C 57.00 127.48 63.29 127.89 63.00 124.00 C 71.18 122.02 74.54 130.43 82.00 131.00 C 82.28 132.28 81.24 134.50 83.00 135.00 C 82.59 131.37 86.57 128.97 89.00 127.00 C 99.32 118.17 116.38 121.12 123.00 133.00 C 123.52 130.77 121.46 129.27 122.00 127.00 C 129.07 121.63 136.46 115.46 142.00 108.00 C 133.98 119.88 116.88 116.87 111.75 104.25 C 108.50 94.32 119.22 97.49 121.00 104.00 C 118.30 97.48 128.37 93.02 131.92 86.92 C 135.30 78.62 134.73 70.30 133.00 62.00 C 136.62 62.37 137.85 58.85 139.00 56.00 C 149.02 55.28 153.95 67.47 156.98 75.02 C 154.27 86.21 160.75 98.08 157.00 109.00 Z"/>
  </g>
  <g fill="None" fill-opacity="0.0" stroke="#96AED7" stroke-opacity="1.00" stroke-width="0.3">
    <path d=" M 57.00 106.00 C 52.60 100.99 62.05 95.64 64.00 102.00 C 64.13 102.80 65.09 103.11 65.00 104.00 C 66.47 103.73 65.89 102.00 66.00 101.00 C 70.04 101.69 73.51 100.23 77.00 99.00 C 77.89 92.51 82.84 87.38 88.23 84.23 C 91.76 76.09 99.48 84.52 105.00 80.00 C 103.32 72.37 108.18 64.37 113.08 59.08 C 116.27 52.36 115.77 47.29 119.00 41.00 C 93.65 31.63 61.27 43.29 49.78 69.78 C 45.59 79.52 39.27 104.43 55.00 100.00 C 55.14 102.11 54.29 105.23 57.00 106.00 M 77.00 48.00 C 82.64 55.55 68.56 61.78 63.00 64.00 C 57.09 57.38 69.47 46.34 77.00 48.00 M 60.00 68.00 C 64.02 70.70 61.16 77.79 56.33 75.67 C 51.44 73.31 55.20 66.30 60.00 68.00 Z"/>
  </g>
  <g fill="None" fill-opacity="0.0" stroke="#D2DAE6" stroke-opacity="1.00" stroke-width="0.3">
    <path d=" M 77.00 48.00 C 69.47 46.34 57.09 57.38 63.00 64.00 C 68.56 61.78 82.64 55.55 77.00 48.00 Z"/>
  </g>
  <g fill="None" fill-opacity="0.0" stroke="#BBC8DE" stroke-opacity="1.00" stroke-width="0.3">
    <path d=" M 121.00 104.00 C 123.97 109.83 132.46 108.90 135.75 103.75 C 135.68 95.56 148.70 94.92 144.00 104.00 C 147.65 100.47 142.64 89.08 151.23 90.79 C 158.63 93.47 156.82 102.63 157.00 109.00 C 160.75 98.08 154.27 86.21 156.98 75.02 C 153.95 67.47 149.02 55.28 139.00 56.00 C 137.85 58.85 136.62 62.37 133.00 62.00 C 134.73 70.30 135.30 78.62 131.92 86.92 C 128.37 93.02 118.30 97.48 121.00 104.00 Z"/>
  </g>
  <g fill="None" fill-opacity="0.0" stroke="#CBD5E4" stroke-opacity="1.00" stroke-width="0.3">
    <path d=" M 60.00 68.00 C 55.20 66.30 51.44 73.31 56.33 75.67 C 61.16 77.79 64.02 70.70 60.00 68.00 Z"/>
  </g>
  <g fill="None" fill-opacity="0.0" stroke="#D3DAE6" stroke-opacity="1.00" stroke-width="0.3">
    <path d=" M 144.00 104.00 C 143.45 105.46 141.60 106.18 142.00 108.00 C 136.46 115.46 129.07 121.63 122.00 127.00 C 121.46 129.27 123.52 130.77 123.00 133.00 C 122.70 141.83 115.03 135.45 112.00 132.00 C 112.30 133.25 113.83 133.71 114.00 135.00 C 106.23 140.91 98.64 146.30 88.99 144.01 C 80.34 137.18 70.56 142.66 61.00 142.00 C 64.84 150.51 76.04 152.38 83.00 157.00 C 84.02 157.56 85.45 157.99 86.00 159.00 C 96.60 160.73 108.37 160.80 118.00 156.00 C 135.89 146.40 153.30 129.66 157.00 109.00 C 156.82 102.63 158.63 93.47 151.23 90.79 C 142.64 89.08 147.65 100.47 144.00 104.00 Z"/>
  </g>
  <g fill="None" fill-opacity="0.0" stroke="#325683" stroke-opacity="1.00" stroke-width="0.3">
    <path d=" M 142.00 108.00 C 141.60 106.18 143.45 105.46 144.00 104.00 C 148.70 94.92 135.68 95.56 135.75 103.75 C 132.46 108.90 123.97 109.83 121.00 104.00 C 119.22 97.49 108.50 94.32 111.75 104.25 C 116.88 116.87 133.98 119.88 142.00 108.00 Z"/>
  </g>
  <g fill="None" fill-opacity="0.0" stroke="#6280AA" stroke-opacity="1.00" stroke-width="0.3">
    <path d=" M 57.00 106.00 C 57.27 106.17 57.79 106.73 58.00 107.00 C 54.59 102.20 59.98 97.23 64.00 102.00 C 62.05 95.64 52.60 100.99 57.00 106.00 Z"/>
  </g>
  <g fill="None" fill-opacity="0.0" stroke="#2F5381" stroke-opacity="1.00" stroke-width="0.3">
    <path d=" M 58.00 107.00 C 63.11 114.74 72.77 120.80 81.92 116.92 C 90.44 116.67 96.69 95.44 85.30 102.30 C 82.73 112.68 69.67 112.85 65.00 104.00 C 65.09 103.11 64.13 102.80 64.00 102.00 C 59.98 97.23 54.59 102.20 58.00 107.00 Z"/>
  </g>
  <g fill="None" fill-opacity="0.0" stroke="#96AED8" stroke-opacity="1.00" stroke-width="0.3">
    <path d=" M 118.00 156.00 C 108.37 160.80 96.60 160.73 86.00 159.00 C 79.95 158.09 74.71 154.84 69.00 153.00 C 97.71 186.92 173.75 160.27 158.00 113.00 C 151.82 131.51 136.77 149.22 118.00 156.00 Z"/>
  </g>
  <g fill="None" fill-opacity="0.0" stroke="#2F5380" stroke-opacity="1.00" stroke-width="0.3">
    <path d=" M 89.00 127.00 C 79.55 133.39 87.71 141.33 94.00 132.00 C 99.63 129.34 106.92 127.41 112.00 132.00 C 115.03 135.45 122.70 141.83 123.00 133.00 C 116.38 121.12 99.32 118.17 89.00 127.00 Z"/>
  </g>
  <g fill="None" fill-opacity="0.0" stroke="#BDCADF" stroke-opacity="1.00" stroke-width="0.3">
    <path d=" M 83.00 157.00 C 76.04 152.38 64.84 150.51 61.00 142.00 C 70.56 142.66 80.34 137.18 88.99 144.01 C 98.64 146.30 106.23 140.91 114.00 135.00 C 113.83 133.71 112.30 133.25 112.00 132.00 C 106.92 127.41 99.63 129.34 94.00 132.00 C 92.26 135.88 84.47 141.71 83.00 135.00 C 81.24 134.50 82.28 132.28 82.00 131.00 C 74.54 130.43 71.18 122.02 63.00 124.00 C 63.29 127.89 57.00 127.48 57.00 131.00 C 54.45 129.90 51.75 129.28 49.00 129.00 C 54.48 143.33 69.07 152.86 83.00 157.00 Z"/>
  </g>
  <g fill="None" fill-opacity="0.0" stroke="#5D799F" stroke-opacity="1.00" stroke-width="0.3">
    <path d=" M 83.00 135.00 C 84.47 141.71 92.26 135.88 94.00 132.00 C 87.71 141.33 79.55 133.39 89.00 127.00 C 86.57 128.97 82.59 131.37 83.00 135.00 Z"/>
  </g>
  <g fill="#FEFEFE" fill-opacity="1.00" stroke="None"/>
  <g fill="#A9BDDC" fill-opacity="1.00" stroke="None">
    <path d=" M 110.00 26.00 C 54.13 16.78 6.63 81.22 33.08 130.92 C 54.17 179.88 126.81 187.46 158.23 144.23 C 193.34 102.32 162.94 32.24 110.00 26.00 M 65.00 104.00 C 69.67 112.85 82.73 112.68 85.30 102.30 C 96.69 95.44 90.44 116.67 81.92 116.92 C 72.77 120.80 63.11 114.74 58.00 107.00 C 57.79 106.73 57.27 106.17 57.00 106.00 C 54.29 105.23 55.14 102.11 55.00 100.00 C 39.27 104.43 45.59 79.52 49.78 69.78 C 61.27 43.29 93.65 31.63 119.00 41.00 C 115.77 47.29 116.27 52.36 113.08 59.08 C 108.18 64.37 103.32 72.37 105.00 80.00 C 99.48 84.52 91.76 76.09 88.23 84.23 C 82.84 87.38 77.89 92.51 77.00 99.00 C 73.51 100.23 70.04 101.69 66.00 101.00 C 65.89 102.00 66.47 103.73 65.00 104.00 M 157.00 109.00 C 153.30 129.66 135.89 146.40 118.00 156.00 C 136.77 149.22 151.82 131.51 158.00 113.00 C 173.75 160.27 97.71 186.92 69.00 153.00 C 74.71 154.84 79.95 158.09 86.00 159.00 C 85.45 157.99 84.02 157.56 83.00 157.00 C 69.07 152.86 54.48 143.33 49.00 129.00 C 51.75 129.28 54.45 129.90 57.00 131.00 C 57.00 127.48 63.29 127.89 63.00 124.00 C 71.18 122.02 74.54 130.43 82.00 131.00 C 82.28 132.28 81.24 134.50 83.00 135.00 C 82.59 131.37 86.57 128.97 89.00 127.00 C 99.32 118.17 116.38 121.12 123.00 133.00 C 123.52 130.77 121.46 129.27 122.00 127.00 C 129.07 121.63 136.46 115.46 142.00 108.00 C 133.98 119.88 116.88 116.87 111.75 104.25 C 108.50 94.32 119.22 97.49 121.00 104.00 C 118.30 97.48 128.37 93.02 131.92 86.92 C 135.30 78.62 134.73 70.30 133.00 62.00 C 136.62 62.37 137.85 58.85 139.00 56.00 C 149.02 55.28 153.95 67.47 156.98 75.02 C 154.27 86.21 160.75 98.08 157.00 109.00 Z"/>
  </g>
  <g fill="#96AED7" fill-opacity="1.00" stroke="None">
    <path d=" M 57.00 106.00 C 52.60 100.99 62.05 95.64 64.00 102.00 C 64.13 102.80 65.09 103.11 65.00 104.00 C 66.47 103.73 65.89 102.00 66.00 101.00 C 70.04 101.69 73.51 100.23 77.00 99.00 C 77.89 92.51 82.84 87.38 88.23 84.23 C 91.76 76.09 99.48 84.52 105.00 80.00 C 103.32 72.37 108.18 64.37 113.08 59.08 C 116.27 52.36 115.77 47.29 119.00 41.00 C 93.65 31.63 61.27 43.29 49.78 69.78 C 45.59 79.52 39.27 104.43 55.00 100.00 C 55.14 102.11 54.29 105.23 57.00 106.00 M 77.00 48.00 C 82.64 55.55 68.56 61.78 63.00 64.00 C 57.09 57.38 69.47 46.34 77.00 48.00 M 60.00 68.00 C 64.02 70.70 61.16 77.79 56.33 75.67 C 51.44 73.31 55.20 66.30 60.00 68.00 Z"/>
  </g>
  <g fill="#D2DAE6" fill-opacity="1.00" stroke="None">
    <path d=" M 77.00 48.00 C 69.47 46.34 57.09 57.38 63.00 64.00 C 68.56 61.78 82.64 55.55 77.00 48.00 Z"/>
  </g>
  <g fill="#BBC8DE" fill-opacity="1.00" stroke="None">
    <path d=" M 121.00 104.00 C 123.97 109.83 132.46 108.90 135.75 103.75 C 135.68 95.56 148.70 94.92 144.00 104.00 C 147.65 100.47 142.64 89.08 151.23 90.79 C 158.63 93.47 156.82 102.63 157.00 109.00 C 160.75 98.08 154.27 86.21 156.98 75.02 C 153.95 67.47 149.02 55.28 139.00 56.00 C 137.85 58.85 136.62 62.37 133.00 62.00 C 134.73 70.30 135.30 78.62 131.92 86.92 C 128.37 93.02 118.30 97.48 121.00 104.00 Z"/>
  </g>
  <g fill="#CBD5E4" fill-opacity="1.00" stroke="None">
    <path d=" M 60.00 68.00 C 55.20 66.30 51.44 73.31 56.33 75.67 C 61.16 77.79 64.02 70.70 60.00 68.00 Z"/>
  </g>
  <g fill="#D3DAE6" fill-opacity="1.00" stroke="None">
    <path d="M 144 104 C 143.545 105.477 142.717 106.382 142 108 C 136.46 115.46 129.07 121.63 122 127 C 121.46 129.27 123.52 130.77 123 133 C 122.7 141.83 115.03 135.45 112 132 C 112.3 133.25 113.83 133.71 114 135 C 106.23 140.91 98.64 146.3 88.99 144.01 C 80.34 137.18 70.56 142.66 61 142 C 64.84 150.51 76.04 152.38 83 157 C 84.02 157.56 85.45 157.99 86 159 C 96.6 160.73 108.37 160.8 118 156 C 135.89 146.4 153.3 129.66 157 109 C 156.82 102.63 158.63 93.47 151.23 90.79 C 142.64 89.08 147.65 100.47 144 104 Z"/>
  </g>
  <g fill="#325683" fill-opacity="1.00" stroke="None">
    <path d="M 142 108 C 142.672 106.775 143.525 105.95 144 104 C 148.7 94.92 135.68 95.56 135.75 103.75 C 132.46 108.9 123.97 109.83 121 104 C 119.22 97.49 108.5 94.32 111.75 104.25 C 116.88 116.87 133.98 119.88 142 108 Z"/>
  </g>
  <g fill="#6280AA" fill-opacity="1.00" stroke="None">
    <path d=" M 57.00 106.00 C 57.27 106.17 57.79 106.73 58.00 107.00 C 54.59 102.20 59.98 97.23 64.00 102.00 C 62.05 95.64 52.60 100.99 57.00 106.00 Z"/>
  </g>
  <g fill="#2F5381" fill-opacity="1.00" stroke="None">
    <path d=" M 58.00 107.00 C 63.11 114.74 72.77 120.80 81.92 116.92 C 90.44 116.67 96.69 95.44 85.30 102.30 C 82.73 112.68 69.67 112.85 65.00 104.00 C 65.09 103.11 64.13 102.80 64.00 102.00 C 59.98 97.23 54.59 102.20 58.00 107.00 Z"/>
  </g>
  <g fill="#96AED8" fill-opacity="1.00" stroke="None">
    <path d=" M 118.00 156.00 C 108.37 160.80 96.60 160.73 86.00 159.00 C 79.95 158.09 74.71 154.84 69.00 153.00 C 97.71 186.92 173.75 160.27 158.00 113.00 C 151.82 131.51 136.77 149.22 118.00 156.00 Z"/>
  </g>
  <g fill="#2F5380" fill-opacity="1.00" stroke="None">
    <path d=" M 89.00 127.00 C 79.55 133.39 87.71 141.33 94.00 132.00 C 99.63 129.34 106.92 127.41 112.00 132.00 C 115.03 135.45 122.70 141.83 123.00 133.00 C 116.38 121.12 99.32 118.17 89.00 127.00 Z"/>
  </g>
  <g fill="#BDCADF" fill-opacity="1.00" stroke="None">
    <path d=" M 83.00 157.00 C 76.04 152.38 64.84 150.51 61.00 142.00 C 70.56 142.66 80.34 137.18 88.99 144.01 C 98.64 146.30 106.23 140.91 114.00 135.00 C 113.83 133.71 112.30 133.25 112.00 132.00 C 106.92 127.41 99.63 129.34 94.00 132.00 C 92.26 135.88 84.47 141.71 83.00 135.00 C 81.24 134.50 82.28 132.28 82.00 131.00 C 74.54 130.43 71.18 122.02 63.00 124.00 C 63.29 127.89 57.00 127.48 57.00 131.00 C 54.45 129.90 51.75 129.28 49.00 129.00 C 54.48 143.33 69.07 152.86 83.00 157.00 Z"/>
  </g>
  <g fill="#5D799F" fill-opacity="1.00" stroke="None">
    <path d=" M 83.00 135.00 C 84.47 141.71 92.26 135.88 94.00 132.00 C 87.71 141.33 79.55 133.39 89.00 127.00 C 86.57 128.97 82.59 131.37 83.00 135.00 Z"/>
  </g>
</svg>